<svg width="120" height="120" viewBox="0 0 120 120" fill="none" xmlns="http://www.w3.org/2000/svg">
<g clip-path="url(#clip0_47_911)">
<path d="M80.46 95.5998C74.07 91.7298 66.47 91.3598 58.19 91.3598H57C56.27 91.3698 55.68 91.9598 55.67 92.6898V100.2L41.84 87.3998L55.67 75.0698V81.3698C55.68 82.0998 56.27 82.6898 57 82.6998H58.1C76.5 82.6998 80.32 95.3798 80.46 95.6198V95.5998Z" stroke="#00F2B3" stroke-width="2" stroke-linecap="round"/>
<path d="M29.06 84.89C17.45 84.91 8.02 75.52 8 63.92C7.98 54.89 13.73 46.85 22.29 43.96C26.59 34.13 37.22 28.68 47.71 30.93C53.37 22.82 62.65 17.99 72.54 18C88.47 18.16 101.63 30.49 102.81 46.38C112.47 52.81 115.09 65.86 108.66 75.52C104.77 81.37 98.21 84.89 91.18 84.89" stroke="white" stroke-width="2" stroke-linecap="round"/>
</g>
<defs>
<clipPath id="clip0_47_911">
<rect width="106.19" height="85.48" fill="white" transform="translate(7 17)"/>
</clipPath>
</defs>
</svg>
