<svg width="120" height="120" viewBox="0 0 120 120" fill="none" xmlns="http://www.w3.org/2000/svg">
<path d="M104.66 23H14.8392C13.2711 23 12 24.2711 12 25.8392V83.1672C12 84.7352 13.2711 86.0064 14.8392 86.0064H104.66C106.228 86.0064 107.499 84.7352 107.499 83.1672V25.8392C107.499 24.2711 106.228 23 104.66 23Z" stroke="white" stroke-width="2.5" stroke-linecap="round"/>
<path d="M59.7493 86.0059V101.636" stroke="white" stroke-width="2.5" stroke-linecap="round"/>
<path d="M34.3978 101.636H85.1298" stroke="white" stroke-width="2.5" stroke-linecap="round"/>
<path d="M12 70.6641H98.9815" stroke="white" stroke-width="2.5" stroke-linecap="round"/>
<path d="M76.2789 49.2094C77.7757 39.6752 71.2352 30.7267 61.6684 29.2299C52.1342 27.7331 43.1857 34.2736 41.6889 43.8403C40.1921 53.3746 46.7326 62.323 56.2993 63.8199C57.1779 63.95 58.089 64.0151 59.0001 64.0151C60.2692 64.0151 61.5057 63.885 62.7422 63.6246" stroke="white" stroke-width="2.25" stroke-linecap="round"/>
<path d="M67.2978 46.5065C67.2978 36.8421 63.5557 29 59.0001 29C54.4445 29 50.7024 36.8421 50.7024 46.5065C50.7024 56.1709 54.4445 64.013 59.0001 64.013" stroke="white" stroke-width="2.25" stroke-linecap="round"/>
<path d="M59.0002 29.0312V64.0117" stroke="white" stroke-width="2.25" stroke-linecap="round"/>
<path d="M43.8691 37.8174H74.1312" stroke="white" stroke-width="2.25" stroke-linecap="round"/>
<path d="M41.4936 46.5049H76.5066" stroke="white" stroke-width="2.25" stroke-linecap="round"/>
<path d="M43.8691 55.2256H59.0002" stroke="white" stroke-width="2.25" stroke-linecap="round"/>
<path d="M71.0408 65.9693H70.9488C69.4764 65.4785 68.0654 64.7116 66.8384 63.7607C65.7648 62.9018 64.4764 61.5521 64.4764 60.0184V53.1472C64.4764 53.1472 64.5685 52.9018 64.6912 52.8712L70.9795 51H71.1329L77.4212 52.8712C77.4212 52.8712 77.6359 53.0245 77.6359 53.1472V60.0184C77.6359 62.7791 73.4028 65.2331 71.1635 65.9386L71.0715 65.9999L71.0408 65.9693Z" stroke="#00F2B3" stroke-width="2.15" stroke-linecap="round"/>
<path d="M67.5132 58.6071L69.8752 60.969L74.5684 56.2451" stroke="white" stroke-width="2.15" stroke-linecap="round"/>
</svg>
