<svg width="120" height="120" viewBox="0 0 120 120" fill="none" xmlns="http://www.w3.org/2000/svg">
<path d="M109.2 67.5805C113.44 40.3505 94.81 14.8405 67.58 10.6005C40.35 6.36047 14.84 24.9905 10.6 52.2205C6.36001 79.4505 24.99 104.96 52.22 109.2C54.76 109.6 57.32 109.79 59.89 109.79C63.47 109.79 67.04 109.41 70.54 108.64" stroke="#2006F7" stroke-width="2.5" stroke-linecap="round" stroke-linejoin="round"/>
<path d="M83.58 59.9007C83.58 32.3507 72.91 10.0107 59.89 10.0107C46.87 10.0107 36.2 32.3507 36.2 59.9007C36.2 87.4507 46.87 109.791 59.89 109.791" stroke="#2006F7" stroke-width="2.5" stroke-linecap="round" stroke-linejoin="round"/>
<path d="M59.89 10.0107V109.791" stroke="#2006F7" stroke-width="2.5" stroke-linecap="round" stroke-linejoin="round"/>
<path d="M16.75 35.0801H103.04" stroke="#2006F7" stroke-width="2.5" stroke-linecap="round" stroke-linejoin="round"/>
<path d="M10 59.9004H109.78" stroke="#2006F7" stroke-width="2.5" stroke-linecap="round" stroke-linejoin="round"/>
<path d="M16.75 84.7109H59.89" stroke="#2006F7" stroke-width="2.5" stroke-linecap="round" stroke-linejoin="round"/>
<path d="M90.54 108.2C101.332 108.2 110.08 99.4518 110.08 88.6601C110.08 77.8685 101.332 69.1201 90.54 69.1201C79.7484 69.1201 71 77.8685 71 88.6601C71 99.4518 79.7484 108.2 90.54 108.2Z" stroke="#2006F7" stroke-width="2.5" stroke-linecap="round" stroke-linejoin="round"/>
<path d="M88.5453 85.8419C85.742 84.5206 84.2032 81.4588 84.8149 78.4221C85.3258 75.7513 87.7286 73.8656 90.4436 74.0075C92.1212 73.9224 93.7451 74.6192 94.8393 75.8932C95.9398 77.2775 96.4002 79.0623 96.1101 80.8029C95.4164 84.6531 92.3387 86.8352 90.0841 88.1028" stroke="#2006F7" stroke-width="2.25" stroke-linecap="round" stroke-linejoin="round"/>
<path d="M78.707 99.4703C78.707 95.3174 78.9751 92.5362 79.4481 91.2969C80.2143 89.3103 83.601 87.7368 84.733 87.2891C85.9849 89.7203 88.0471 91.155 90.327 91.155C92.6068 91.155 94.6754 89.7203 95.9272 87.2891C97.053 87.7589 100.446 89.3103 101.206 91.2969C101.685 92.5362 101.934 95.2953 101.953 99.4703H78.707Z" stroke="#2006F7" stroke-width="2.25" stroke-linecap="round" stroke-linejoin="round"/>
</svg>
