<svg width="120" height="120" viewBox="0 0 120 120" fill="none" xmlns="http://www.w3.org/2000/svg">
<path d="M92.4961 112.156H92.2527C87.8407 110.665 83.733 108.444 80.0818 105.584C76.8869 103.089 73.0835 99.0725 73.0835 94.478V74.1222C73.0835 73.7266 73.3573 73.3919 73.7225 73.3006L92.3136 67.7324H92.8004L111.391 73.3006C111.757 73.4223 112 73.757 112 74.1222V94.478C112 102.633 99.4944 109.935 92.8004 112.035L92.557 112.187L92.4961 112.156Z" stroke="#00F2B3" stroke-width="2.5" stroke-linecap="round"/>
<path d="M82.0292 90.3721L89.0275 97.34L102.963 83.4043" stroke="white" stroke-width="2.5" stroke-linecap="round"/>
<path d="M66.5367 93.3764H13.089C10.3359 93.3764 8.00003 91.0405 8.00003 88.2875V34.0889C8.00003 31.3359 10.3359 29 13.089 29H101.603C104.356 29 106.692 31.3359 106.692 34.0889V58.7828" stroke="white" stroke-width="2.5" stroke-linecap="round"/>
<path d="M10.336 30.0566L57.7771 64.7893L103.717 30.5016" stroke="white" stroke-width="2.5" stroke-linecap="round"/>
<path d="M106.7 59V65" stroke="white" stroke-width="2.5" stroke-linecap="round"/>
</svg>
