<svg width="120" height="120" viewBox="0 0 120 120" fill="none" xmlns="http://www.w3.org/2000/svg">
<g clip-path="url(#clip0_47_2714)">
<path d="M58.2 97.0696H18.53C16.22 97.1196 14.07 95.9296 12.89 93.9496C11.7 91.9796 11.7 89.5096 12.89 87.5396L54.05 16.1896C55.93 13.0696 59.98 12.0696 63.09 13.9396C64.01 14.4896 64.78 15.2596 65.34 16.1896L106.49 87.3696C107.68 89.3596 107.68 91.8396 106.49 93.8296C105.32 95.8296 103.16 97.0296 100.85 96.9896" stroke="white" stroke-width="2" stroke-linecap="round" stroke-linejoin="round"/>
<path d="M100.84 97.0498H99.22" stroke="white" stroke-width="2" stroke-linecap="round" stroke-linejoin="round"/>
<path d="M76.27 113.48C75.49 113.58 74.77 113.03 74.67 112.25C74.65 112.13 74.65 112 74.67 111.87V108.14C73.42 107.68 72.25 107.01 71.22 106.16L68.19 107.92C67.91 108.1 67.58 108.2 67.25 108.21C66.71 108.18 66.24 107.85 66.02 107.35L63.43 102.85C63.06 102.18 63.3 101.34 63.96 100.97C64.01 100.94 64.06 100.92 64.11 100.9L67.27 99.0797C67.17 98.6297 67.11 98.1597 67.09 97.6997V97.2997C67.09 96.6197 67.14 95.9297 67.27 95.2597L64.09 93.2597C63.71 93.0897 63.42 92.7697 63.28 92.3797C63.16 91.9397 63.23 91.4697 63.48 91.0797L66.12 86.6897C66.32 86.1797 66.8 85.8397 67.35 85.8097C67.68 85.8097 68.01 85.9197 68.29 86.0997L71.54 87.9697L74.75 86.0997V82.2097C74.65 81.4297 75.2 80.7097 75.98 80.6097C76.1 80.5897 76.23 80.5897 76.36 80.6097H81.41C82.18 80.4997 82.89 81.0397 82.99 81.8097C83.01 81.9397 83.01 82.0797 82.99 82.2097V85.9897C84.26 86.4197 85.43 87.0897 86.44 87.9697L89.47 86.1897C89.75 86.0097 90.08 85.8997 90.41 85.8797C90.96 85.9197 91.45 86.2697 91.66 86.7797L94.25 91.2797C94.74 91.8797 94.66 92.7597 94.06 93.2597C93.95 93.3497 93.83 93.4197 93.7 93.4797L90.45 95.2597C90.53 95.7197 90.58 96.1797 90.6 96.6397V97.0097C90.6 97.6997 90.54 98.3897 90.42 99.0697L93.56 100.87C93.93 101.04 94.23 101.34 94.37 101.73C94.49 102.03 94.49 102.37 94.37 102.67C94.34 102.81 94.28 102.95 94.19 103.07L91.6 107.46C91.38 107.96 90.89 108.29 90.35 108.32C90.02 108.32 89.69 108.21 89.41 108.03L86.05 106.25L85.44 106.73L85.09 106.99C84.39 107.43 83.66 107.8 82.89 108.11V111.87C83.01 112.64 82.48 113.35 81.71 113.47C81.58 113.49 81.44 113.49 81.31 113.47H76.28L76.27 113.48Z" stroke="white" stroke-width="2" stroke-linecap="round" stroke-linejoin="round"/>
<path d="M78.8 102.96C82.064 102.96 84.71 100.314 84.71 97.0497C84.71 93.7856 82.064 91.1396 78.8 91.1396C75.536 91.1396 72.89 93.7856 72.89 97.0497C72.89 100.314 75.536 102.96 78.8 102.96Z" stroke="white" stroke-width="2" stroke-linecap="round" stroke-linejoin="round"/>
<path d="M60.09 41.7393V68.7393" stroke="#00F2B3" stroke-width="2" stroke-linecap="round" stroke-linejoin="round"/>
<path d="M60.09 75.46V77.56" stroke="#00F2B3" stroke-width="2" stroke-linecap="round" stroke-linejoin="round"/>
</g>
<defs>
<clipPath id="clip0_47_2714">
<rect width="97.38" height="102.49" fill="white" transform="translate(11 12)"/>
</clipPath>
</defs>
</svg>
