<svg width="120" height="120" viewBox="0 0 120 120" fill="none" xmlns="http://www.w3.org/2000/svg">
<g clip-path="url(#clip0_174_294)">
<path d="M76.4566 87.95H17.2175C14.5757 87.95 12.3342 85.7141 12.3342 83.079V31.202C12.3342 28.5669 14.5757 26.3311 17.2175 26.3311H102.154C104.795 26.3311 107.037 28.5669 107.037 31.202V66.7627" stroke="#2006F7" stroke-width="2.5" stroke-linecap="round"/>
<path d="M14.5757 27.3428L60.0724 60.5877L104.155 27.742" stroke="#2006F7" stroke-width="2.5" stroke-linecap="round"/>
<path d="M96.6566 102.669H96.4698C93.2944 101.604 90.3324 100.007 87.6907 97.9311C85.3958 96.1477 82.6473 93.2465 82.6473 89.9459V75.333C82.6473 75.0669 82.8341 74.8273 83.101 74.7475L96.4965 70.7549H96.8434L110.239 74.7475C110.506 74.8273 110.666 75.0669 110.666 75.333V89.9459C110.666 95.8017 101.673 101.045 96.8434 102.562L96.6566 102.669Z" stroke="#2006F7" stroke-width="2.5" stroke-linecap="round"/>
<path d="M89.1049 87.0177L94.1482 92.0218L104.181 82.0137" stroke="#2006F7" stroke-width="2.5" stroke-linecap="round"/>
</g>
<defs>
<clipPath id="clip0_174_294">
<rect width="101" height="79" fill="white" transform="translate(11 25)"/>
</clipPath>
</defs>
</svg>
