<svg width="120" height="120" viewBox="0 0 120 120" fill="none" xmlns="http://www.w3.org/2000/svg">
<g clip-path="url(#clip0_47_2130)">
<path d="M24.58 67.6304C17.78 67.2304 12.38 60.4304 12.38 52.1504C12.38 43.8704 18.14 36.6904 25.21 36.6904C29.21 36.7504 32.9 38.8504 34.99 42.2604C37.6 46.6004 37.81 51.9604 35.56 56.4904" stroke="#2006F7" stroke-width="2.5" stroke-linecap="round"/>
<path d="M18.39 95.2002H6.05C6.05 95.2002 6.39 88.1702 7.43 82.7102C7.98 79.5902 9.46 76.7102 11.67 74.4302" stroke="#2006F7" stroke-width="2.5" stroke-linecap="round"/>
<path d="M94.58 67.6304C101.38 67.2304 106.78 60.4304 106.78 52.1504C106.78 43.8704 101.02 36.6904 93.95 36.6904C89.95 36.7504 86.26 38.8504 84.17 42.2604C81.56 46.6004 81.35 51.9604 83.6 56.4904" stroke="#2006F7" stroke-width="2.5" stroke-linecap="round"/>
<path d="M100.77 95.2002H113.12C113.12 95.2002 112.78 88.1702 111.74 82.7102C111.19 79.5902 109.71 76.7102 107.5 74.4302" stroke="#2006F7" stroke-width="2.5" stroke-linecap="round"/>
<path d="M54.2 57.6602C45.77 53.6802 41.13 44.4702 42.96 35.3202C44.5 27.2802 51.73 21.6102 59.9 22.0202C64.96 21.7602 69.85 23.8502 73.16 27.6902C76.48 31.8702 77.87 37.2502 76.99 42.5102C74.87 54.1402 65.58 60.6402 58.78 64.5302" stroke="#2006F7" stroke-width="2.5" stroke-linecap="round"/>
<path d="M26.65 98.8502C25.48 98.8502 24.53 97.9002 24.53 96.7302C24.66 85.3202 25.4 77.6702 26.75 74.2202C28.74 69.0502 36.6 64.8602 40.92 62.8902C41.88 62.4702 43.01 62.8102 43.57 63.6902C47.38 70.0402 53.2 73.7902 59.58 73.7902C65.96 73.7902 71.78 70.0602 75.59 63.6902C76.14 62.7902 77.27 62.4302 78.24 62.8402C82.48 64.8102 90.42 69.0002 92.41 74.1702C93.77 77.6902 94.53 85.2702 94.53 96.6802C94.53 97.8502 93.58 98.8002 92.41 98.8002L26.66 98.8402L26.65 98.8502Z" stroke="#2006F7" stroke-width="2.5" stroke-linecap="round"/>
</g>
<defs>
<clipPath id="clip0_47_2130">
<rect width="109.16" height="78.85" fill="white" transform="translate(5 21)"/>
</clipPath>
</defs>
</svg>
