<svg width="120" height="120" viewBox="0 0 120 120" fill="none" xmlns="http://www.w3.org/2000/svg">
<g clip-path="url(#clip0_47_1348)">
<path d="M12 42.97H107" stroke="white" stroke-width="2" stroke-linecap="round" stroke-linejoin="round"/>
<path d="M12 54.91H107" stroke="white" stroke-width="2" stroke-linecap="round" stroke-linejoin="round"/>
<path d="M65.58 88.95H107V28H12V88.95H23.96" stroke="white" stroke-width="2" stroke-linecap="round" stroke-linejoin="round"/>
<path d="M41.73 108.68C40.81 108.82 39.95 108.18 39.81 107.26C39.79 107.09 39.79 106.93 39.81 106.76V102.28C38.28 101.74 36.85 100.92 35.6 99.88L31.96 101.99C31.62 102.21 31.23 102.33 30.82 102.35C30.17 102.31 29.6 101.91 29.33 101.32L26.21 95.91V95.78C25.76 94.97 26.05 93.94 26.87 93.49C26.93 93.46 26.99 93.43 27.06 93.4L30.83 91.29C30.72 90.73 30.66 90.17 30.64 89.61V89.17C30.64 88.34 30.71 87.51 30.85 86.69L27.08 84.58C26.63 84.36 26.28 83.98 26.11 83.51C25.95 82.98 26.03 82.41 26.34 81.95L29.5 76.54C29.75 75.93 30.33 75.52 30.99 75.49C31.38 75.49 31.76 75.62 32.08 75.83L36 78.08L39.85 75.85V71.15C39.71 70.22 40.36 69.35 41.29 69.22C41.45 69.2 41.61 69.2 41.77 69.22H47.81C48.76 69.1 49.62 69.76 49.75 70.71C49.77 70.86 49.77 71.01 49.75 71.16V75.69C51.3 76.19 52.73 77 53.96 78.07L57.6 75.96C57.93 75.73 58.32 75.6 58.72 75.58C59.39 75.63 59.98 76.05 60.24 76.67L63.36 82.06C63.94 82.82 63.8 83.9 63.04 84.48C62.93 84.56 62.81 84.64 62.68 84.69L58.91 86.8C58.99 87.35 59.04 87.91 59.06 88.46V88.92C59.06 89.75 58.98 90.57 58.85 91.38L62.62 93.49C63.07 93.69 63.42 94.05 63.61 94.5C63.73 94.88 63.73 95.28 63.61 95.66C63.57 95.83 63.5 95.98 63.4 96.12L60.28 101.51C60 102.11 59.42 102.5 58.76 102.54C58.36 102.53 57.97 102.4 57.64 102.18L53.56 100.03L52.82 100.62L52.4 100.94C51.52 101.46 50.61 101.91 49.66 102.29V106.8C49.79 107.73 49.13 108.59 48.2 108.72C48.04 108.74 47.88 108.74 47.72 108.72L41.72 108.7L41.73 108.68Z" stroke="#00F2B3" stroke-width="2" stroke-linecap="round" stroke-linejoin="round"/>
<path d="M44.76 96.05C48.6812 96.05 51.86 92.8712 51.86 88.95C51.86 85.0288 48.6812 81.85 44.76 81.85C40.8388 81.85 37.66 85.0288 37.66 88.95C37.66 92.8712 40.8388 96.05 44.76 96.05Z" stroke="white" stroke-width="2" stroke-linecap="round" stroke-linejoin="round"/>
</g>
<defs>
<clipPath id="clip0_47_1348">
<rect width="97" height="82.72" fill="white" transform="translate(11 27)"/>
</clipPath>
</defs>
</svg>
