<svg width="120" height="120" viewBox="0 0 120 120" fill="none" xmlns="http://www.w3.org/2000/svg">
<g clip-path="url(#clip0_47_2744)">
<path d="M60.11 87.7798V109.99" stroke="#2006F7" stroke-width="2.5" stroke-linecap="round" stroke-linejoin="round"/>
<path d="M60.11 10.1499V29.6099" stroke="#2006F7" stroke-width="2.5" stroke-linecap="round" stroke-linejoin="round"/>
<path d="M60.11 78.61C71.1115 78.61 80.03 69.6915 80.03 58.69C80.03 47.6885 71.1115 38.77 60.11 38.77C49.1085 38.77 40.19 47.6885 40.19 58.69C40.19 69.6915 49.1085 78.61 60.11 78.61Z" stroke="#2006F7" stroke-width="2.5" stroke-linecap="round" stroke-linejoin="round"/>
<path d="M60.11 111.37H59.42C49.34 107.93 39.73 102.9 31.25 96.26C23.92 90.31 14.99 81.15 14.99 70.84V23.66C14.99 22.74 15.68 22.06 16.36 21.83L59.43 9H60.35L103.63 21.6C104.55 21.83 105 22.75 105 23.43V70.61C105 89.39 76.15 106.34 60.57 111.14C60.57 111.37 60.34 111.37 60.11 111.37Z" stroke="#2006F7" stroke-width="2.5" stroke-linecap="round" stroke-linejoin="round"/>
<path d="M49.27 58.5198L56.52 65.7598L70.96 51.3198" stroke="#2006F7" stroke-width="2" stroke-linecap="round"/>
</g>
<defs>
<clipPath id="clip0_47_2744">
<rect width="92" height="104.37" fill="white" transform="translate(14 8)"/>
</clipPath>
</defs>
</svg>
