<svg width="120" height="120" viewBox="0 0 120 120" fill="none" xmlns="http://www.w3.org/2000/svg">
<g clip-path="url(#clip0_47_1677)">
<path d="M42.1801 66.5206H59.1101C59.3701 66.5206 59.6201 66.6506 59.7801 66.8606C59.9401 67.0706 59.9901 67.3406 59.9101 67.5906L53.5001 88.8506L78.3101 53.3806H60.7901C60.3301 53.3806 59.9601 53.0106 59.9501 52.5506C59.9501 52.4706 59.9601 52.3906 59.9801 52.3106L66.1901 31.6406L42.1801 66.5206Z" stroke="#2006F7" stroke-width="2.5" stroke-linecap="round" stroke-linejoin="round"/>
<path d="M89.8899 22.1498C68.8299 5.79983 38.4999 9.60983 22.1499 30.6598C8.61994 48.0798 8.61994 72.4598 22.1499 89.8898" stroke="#2006F7" stroke-width="2.5" stroke-linecap="round"/>
<path d="M30.5999 98.3396C51.6599 114.69 81.9799 110.88 98.3399 89.8296C111.87 72.4096 111.87 48.0296 98.3399 30.5996" stroke="#2006F7" stroke-width="2.5" stroke-linecap="round"/>
</g>
<defs>
<clipPath id="clip0_47_1677">
<rect width="98.48" height="98.49" fill="white" transform="translate(11 11)"/>
</clipPath>
</defs>
</svg>
