<svg width="120" height="120" viewBox="0 0 120 120" fill="none" xmlns="http://www.w3.org/2000/svg">
<path d="M91.6505 111.331H91.409C87.032 109.852 82.9568 107.648 79.3344 104.811C76.1648 102.335 72.3915 98.3508 72.3915 93.7927V73.5979C72.3915 73.2055 72.6632 72.8735 73.0255 72.7829L91.4694 67.2588H91.9524L110.396 72.7829C110.759 72.9037 111 73.2357 111 73.5979V93.7927C111 101.883 98.5934 109.127 91.9524 111.21L91.7109 111.361L91.6505 111.331Z" stroke="#00F2B3" stroke-width="2" stroke-linecap="round"/>
<path d="M81.2664 89.7193L88.2093 96.632L102.065 82.8066" stroke="white" stroke-width="2" stroke-linecap="round"/>
<path d="M67.8636 104.54C65.5694 105.899 60.4075 105.959 57.4795 105.959C30.7041 105.959 9 84.2548 9 57.4794C9 30.7041 30.7041 9 57.4795 9C84.2548 9 105.959 30.7041 105.959 57.4794C105.959 59.7132 105.808 61.8867 105.506 64.0299" stroke="white" stroke-width="2" stroke-linecap="round" stroke-linejoin="round"/>
<path d="M12.5318 39.3684L13.1959 37.7686" stroke="white" stroke-width="2"/>
<path d="M12.8638 42.4473H66.6259" stroke="white" stroke-width="2" stroke-linecap="round" stroke-linejoin="round"/>
<path d="M22.3424 89.0543L49.2083 42.4766" stroke="white" stroke-width="2" stroke-linecap="round" stroke-linejoin="round"/>
<path d="M66.6259 72.6021L93.522 26.0244" stroke="white" stroke-width="2" stroke-linecap="round" stroke-linejoin="round"/>
<path d="M49.3593 72.6035H66.626" stroke="white" stroke-width="2" stroke-linecap="round" stroke-linejoin="round"/>
<path d="M48.4235 10.9629L75.3196 57.5104" stroke="white" stroke-width="2" stroke-linecap="round" stroke-linejoin="round"/>
<path d="M40.5147 57.5107L67.8636 104.541" stroke="white" stroke-width="2" stroke-linecap="round" stroke-linejoin="round"/>
</svg>
