<svg width="120" height="120" viewBox="0 0 120 120" fill="none" xmlns="http://www.w3.org/2000/svg">
<g clip-path="url(#clip0_47_1085)">
<path d="M86.5599 83.0801H60.6699" stroke="white" stroke-width="2" stroke-linecap="round" stroke-linejoin="round"/>
<path d="M59.6 59.3499L47.92 67.8399L52.38 54.1099L40.7 45.6299H55.14L59.6 31.8999L64.06 45.6299H78.49L66.81 54.1099L71.28 67.8399L59.6 59.3499Z" stroke="#00F2B3" stroke-width="2" stroke-linecap="round"/>
<path d="M60.35 83.04L36.62 103.39V83.04H18.62C14.41 83.03 11 79.61 11 75.39V23.65C11 19.44 14.41 16.02 18.62 16H100.56C104.77 16.01 108.18 19.43 108.18 23.65V75.44C108.16 79.64 104.75 83.03 100.56 83.04" stroke="white" stroke-width="2" stroke-linecap="round" stroke-linejoin="round"/>
</g>
<defs>
<clipPath id="clip0_47_1085">
<rect width="99.19" height="89.38" fill="white" transform="translate(10 15)"/>
</clipPath>
</defs>
</svg>
