<svg width="120" height="120" viewBox="0 0 120 120" fill="none" xmlns="http://www.w3.org/2000/svg">
<g clip-path="url(#clip0_113_118)">
<path d="M108 20H12C11.4477 20 11 20.4477 11 21V83.66C11 84.2123 11.4477 84.66 12 84.66H108C108.552 84.66 109 84.2123 109 83.66V21C109 20.4477 108.552 20 108 20Z" stroke="#2006F7" stroke-width="2.5" stroke-linecap="round" stroke-linejoin="round"/>
<path d="M60 84.6602V100.71" stroke="#2006F7" stroke-width="2.5" stroke-linecap="round" stroke-linejoin="round"/>
<path d="M33.97 100.71H86.03" stroke="#2006F7" stroke-width="2.5" stroke-linecap="round" stroke-linejoin="round"/>
<path d="M11 68.9102H38.16" stroke="#2006F7" stroke-width="2.5" stroke-linecap="round" stroke-linejoin="round"/>
<path d="M81.84 68.9102H109" stroke="#2006F7" stroke-width="2.5" stroke-linecap="round" stroke-linejoin="round"/>
<rect x="22.25" y="27.25" width="7.86364" height="7.86364" stroke="#2006F7" stroke-width="2.5"/>
<rect x="39.25" y="27.25" width="7.86364" height="7.86364" stroke="#2006F7" stroke-width="2.5"/>
<rect x="56.25" y="27.25" width="7.86364" height="7.86364" stroke="#2006F7" stroke-width="2.5"/>
<rect x="73.25" y="27.25" width="7.86364" height="7.86364" stroke="#2006F7" stroke-width="2.5"/>
<rect x="90.25" y="27.25" width="7.86364" height="7.86364" stroke="#2006F7" stroke-width="2.5"/>
<rect x="22.25" y="41.0684" width="7.86364" height="7.86364" stroke="#2006F7" stroke-width="2.5"/>
<rect x="22.25" y="54.8862" width="7.86364" height="7.86364" stroke="#2006F7" stroke-width="2.5"/>
<rect x="39.25" y="41.0684" width="7.86364" height="7.86364" stroke="#2006F7" stroke-width="2.5"/>
<rect x="39.25" y="54.8862" width="7.86364" height="7.86364" stroke="#2006F7" stroke-width="2.5"/>
<rect x="56.25" y="41.0684" width="7.86364" height="7.86364" stroke="#2006F7" stroke-width="2.5"/>
<rect x="56.25" y="54.8862" width="7.86364" height="7.86364" stroke="#2006F7" stroke-width="2.5"/>
<rect x="73.25" y="41.0684" width="7.86364" height="7.86364" stroke="#2006F7" stroke-width="2.5"/>
<rect x="73.25" y="54.8862" width="7.86364" height="7.86364" stroke="#2006F7" stroke-width="2.5"/>
<rect x="90.25" y="41.0684" width="7.86364" height="7.86364" stroke="#2006F7" stroke-width="2.5"/>
<rect x="90.25" y="54.8862" width="7.86364" height="7.86364" stroke="#2006F7" stroke-width="2.5"/>
</g>
<defs>
<clipPath id="clip0_113_118">
<rect width="100" height="82.71" fill="white" transform="translate(10 19)"/>
</clipPath>
</defs>
</svg>
