<svg width="120" height="120" viewBox="0 0 120 120" fill="none" xmlns="http://www.w3.org/2000/svg">
<g clip-path="url(#clip0_47_500)">
<path d="M40.37 79.61C38.75 79.82 37.26 78.68 37.05 77.06C37.02 76.82 37.02 76.57 37.05 76.33V68.46C34.42 67.51 31.98 66.09 29.86 64.25L23.52 67.93C22.92 68.31 22.22 68.53 21.51 68.55C20.37 68.48 19.37 67.78 18.91 66.74L13.62 57.42V57.18V57.08C12.88 55.65 13.44 53.89 14.87 53.15C14.93 53.12 15 53.09 15.07 53.06L21.63 49.28C21.31 48.26 21.1 47.2 20.99 46.14V45.35C20.99 43.91 21.11 42.48 21.35 41.06L14.79 37.4C14 37.03 13.4 36.35 13.12 35.53C12.87 34.6 13.05 33.61 13.62 32.83L19.1 23.43C19.54 22.38 20.54 21.67 21.68 21.6C22.39 21.61 23.09 21.82 23.69 22.2L30.47 26.11L37.17 22.22V14.37C36.94 12.75 38.07 11.26 39.69 11.03C39.96 10.99 40.22 10.99 40.49 11.03H51.02C52.65 10.87 54.09 12.07 54.25 13.69C54.27 13.9 54.27 14.12 54.25 14.33V22.22C56.89 23.12 59.33 24.52 61.44 26.35L67.76 22.61C68.36 22.22 69.06 22 69.77 21.99C70.93 22.06 71.96 22.79 72.41 23.86L77.83 33.24C78.84 34.54 78.61 36.41 77.32 37.42C77.12 37.58 76.9 37.71 76.67 37.81L70.01 41.55C70.17 42.5 70.26 43.46 70.29 44.43V45.24C70.32 46.68 70.22 48.12 70.01 49.55L76.57 53.29C77.34 53.65 77.95 54.28 78.28 55.06C78.5 56.03 78.33 57.04 77.8 57.88L72.4 67.24C71.92 68.27 70.92 68.96 69.78 69.03C69.07 69.01 68.37 68.8 67.77 68.43L60.99 64.52L59.68 65.55L58.96 66.11C57.45 67.02 55.86 67.79 54.21 68.43V76.28C54.44 77.9 53.31 79.39 51.69 79.62C51.42 79.66 51.14 79.66 50.87 79.62H40.4L40.37 79.61Z" stroke="#2006F7" stroke-width="2.5" stroke-linecap="round"/>
<path d="M51.28 34.3201C45.21 31.2101 37.78 33.6101 34.67 39.6801C32.86 43.2101 32.86 47.4001 34.67 50.9301" stroke="#2006F7" stroke-width="2.5" stroke-linecap="round"/>
<path d="M40.03 56.1998C46.1 59.3098 53.53 56.9098 56.64 50.8398C58.45 47.3098 58.45 43.1198 56.64 39.5898" stroke="#2006F7" stroke-width="2.5" stroke-linecap="round"/>
<path d="M83.19 109.47C82.17 109.56 81.27 108.81 81.18 107.79C81.17 107.68 81.17 107.56 81.18 107.45V102.5C79.54 101.92 78.03 101.05 76.71 99.9198L72.68 102.21C72.31 102.45 71.89 102.58 71.45 102.59C70.75 102.53 70.13 102.11 69.82 101.48L66.46 95.6198V95.4798C65.97 94.5898 66.3 93.4798 67.18 92.9898C67.24 92.9598 67.3 92.9298 67.36 92.8998L71.39 90.5398C71.26 89.9398 71.19 89.3398 71.17 88.7298V88.2298C71.17 87.3398 71.25 86.4498 71.41 85.5698L67.38 83.2798C66.89 83.0498 66.51 82.6298 66.33 82.1098C66.16 81.5398 66.26 80.9198 66.59 80.4198L69.99 74.5598C70.27 73.8998 70.9 73.4498 71.62 73.4098C72.04 73.4298 72.45 73.5698 72.81 73.7898L77.06 76.2298L81.23 73.8098V68.9198C81.14 67.8998 81.89 66.9998 82.91 66.9098C83.02 66.8998 83.14 66.8998 83.25 66.9098H89.81C90.83 66.8198 91.73 67.5698 91.82 68.5898C91.83 68.6998 91.83 68.8198 91.82 68.9298V73.8398C93.46 74.3698 94.99 75.2098 96.31 76.3198L100.34 73.9798C100.71 73.7398 101.13 73.5998 101.57 73.5798C102.29 73.6598 102.91 74.1098 103.2 74.7698L106.58 80.6098C107.21 81.4198 107.06 82.5798 106.26 83.2098C106.14 83.3098 106 83.3898 105.86 83.4498L101.83 85.7898C101.92 86.3798 101.98 86.9798 102.01 87.5798V88.0798C102.01 88.9798 101.94 89.8698 101.79 90.7598L105.82 93.0998C106.3 93.3298 106.68 93.7198 106.91 94.2098C107.04 94.6198 107.04 95.0498 106.91 95.4598C106.86 95.6398 106.78 95.7998 106.69 95.9598L103.31 101.8C103 102.44 102.38 102.86 101.68 102.93C101.15 102.95 100.63 102.81 100.19 102.51L95.96 100.07L95.15 100.71L94.69 101.05C93.75 101.63 92.76 102.12 91.73 102.5V107.39C91.82 108.41 91.07 109.31 90.05 109.4C89.94 109.41 89.82 109.41 89.71 109.4L83.19 109.46V109.47Z" stroke="#2006F7" stroke-width="2.5" stroke-linecap="round"/>
<path d="M86.47 95.62C90.6397 95.62 94.02 92.2398 94.02 88.07C94.02 83.9003 90.6397 80.52 86.47 80.52C82.3002 80.52 78.92 83.9003 78.92 88.07C78.92 92.2398 82.3002 95.62 86.47 95.62Z" stroke="#2006F7" stroke-width="2.5" stroke-linecap="round"/>
</g>
<defs>
<clipPath id="clip0_47_500">
<rect width="96" height="100.47" fill="white" transform="translate(12 10)"/>
</clipPath>
</defs>
</svg>
