<svg width="120" height="120" viewBox="0 0 120 120" fill="none" xmlns="http://www.w3.org/2000/svg">
<g clip-path="url(#clip0_47_66)">
<path d="M26.25 47.28C28.5641 47.28 30.44 45.4041 30.44 43.09C30.44 40.776 28.5641 38.9 26.25 38.9C23.9359 38.9 22.06 40.776 22.06 43.09C22.06 45.4041 23.9359 47.28 26.25 47.28Z" stroke="white" stroke-width="2" stroke-linecap="round" stroke-linejoin="round"/>
<path d="M61.79 102.72C64.1041 102.72 65.98 100.844 65.98 98.53C65.98 96.2159 64.1041 94.34 61.79 94.34C59.4759 94.34 57.6 96.2159 57.6 98.53C57.6 100.844 59.4759 102.72 61.79 102.72Z" stroke="white" stroke-width="2" stroke-linecap="round" stroke-linejoin="round"/>
<path d="M55.26 25.38C57.5741 25.38 59.45 23.5041 59.45 21.19C59.45 18.8759 57.5741 17 55.26 17C52.9459 17 51.07 18.8759 51.07 21.19C51.07 23.5041 52.9459 25.38 55.26 25.38Z" stroke="white" stroke-width="2" stroke-linecap="round" stroke-linejoin="round"/>
<path d="M55.26 70.94C57.5741 70.94 59.45 69.0641 59.45 66.75C59.45 64.4359 57.5741 62.56 55.26 62.56C52.9459 62.56 51.07 64.4359 51.07 66.75C51.07 69.0641 52.9459 70.94 55.26 70.94Z" stroke="white" stroke-width="2" stroke-linecap="round" stroke-linejoin="round"/>
<path d="M68.35 50.19C70.6641 50.19 72.54 48.3141 72.54 46C72.54 43.6859 70.6641 41.81 68.35 41.81C66.0359 41.81 64.16 43.6859 64.16 46C64.16 48.3141 66.0359 50.19 68.35 50.19Z" stroke="white" stroke-width="2" stroke-linecap="round" stroke-linejoin="round"/>
<path d="M24.74 84.8C27.0541 84.8 28.93 82.9241 28.93 80.61C28.93 78.2959 27.0541 76.42 24.74 76.42C22.4259 76.42 20.55 78.2959 20.55 80.61C20.55 82.9241 22.4259 84.8 24.74 84.8Z" stroke="white" stroke-width="2" stroke-linecap="round" stroke-linejoin="round"/>
<path d="M24.74 93.35C31.7761 93.35 37.48 87.6461 37.48 80.61C37.48 73.5739 31.7761 67.87 24.74 67.87C17.7039 67.87 12 73.5739 12 80.61C12 87.6461 17.7039 93.35 24.74 93.35Z" stroke="#00F2B3" stroke-width="2" stroke-linecap="round" stroke-linejoin="round"/>
<path d="M103.81 53.81C106.124 53.81 108 51.9341 108 49.62C108 47.3059 106.124 45.43 103.81 45.43C101.496 45.43 99.62 47.3059 99.62 49.62C99.62 51.9341 101.496 53.81 103.81 53.81Z" stroke="white" stroke-width="2" stroke-linecap="round" stroke-linejoin="round"/>
<path d="M51.91 23.71L34.07 37.18" stroke="white" stroke-width="2" stroke-linecap="round" stroke-linejoin="round"/>
<path d="M29.7 46L47.52 60.45" stroke="white" stroke-width="2" stroke-linecap="round" stroke-linejoin="round"/>
<path d="M55.26 25.39V62.58" stroke="white" stroke-width="2" stroke-linecap="round" stroke-linejoin="round"/>
<path d="M63.09 64.51L99.65 50.19" stroke="white" stroke-width="2" stroke-linecap="round" stroke-linejoin="round"/>
<path d="M64.59 25.8L100.16 47.56" stroke="white" stroke-width="2" stroke-linecap="round" stroke-linejoin="round"/>
<path d="M98.59 58.25L64.76 95.56" stroke="white" stroke-width="2" stroke-linecap="round" stroke-linejoin="round"/>
<path d="M55.85 70.89L59.43 89.26" stroke="white" stroke-width="2" stroke-linecap="round" stroke-linejoin="round"/>
<path d="M57.6 24.66L63.92 37.46" stroke="white" stroke-width="2" stroke-linecap="round" stroke-linejoin="round"/>
<path d="M28.64 79.1L51.69 68.94" stroke="white" stroke-width="2" stroke-linecap="round" stroke-linejoin="round"/>
</g>
<defs>
<clipPath id="clip0_47_66">
<rect width="98" height="87.72" fill="white" transform="translate(11 16)"/>
</clipPath>
</defs>
</svg>
