<svg width="120" height="120" viewBox="0 0 120 120" fill="none" xmlns="http://www.w3.org/2000/svg">
<g clip-path="url(#clip0_47_1248)">
<path d="M67.66 107.28C93.48 102.74 110.82 78.16 106.28 52.35C101.73 26.53 77.16 9.17997 51.34 13.72C25.53 18.27 8.17999 42.84 12.72 68.66C16.23 88.49 31.72 103.98 51.34 107.28" stroke="#2006F7" stroke-width="2.5" stroke-linecap="round" stroke-linejoin="round"/>
<path d="M67.66 91.79C85.01 87.25 95.33 69.69 91 52.34C86.46 34.99 68.9 24.67 51.55 29C34.2 33.54 23.88 51.1 28.21 68.45C31.1 79.81 39.98 88.69 51.55 91.79" stroke="#2006F7" stroke-width="2.5" stroke-linecap="round" stroke-linejoin="round"/>
<path d="M67.66 75.68C76.13 71.14 79.23 60.81 74.68 52.34C70.14 43.87 59.81 40.77 51.34 45.32C42.87 49.86 39.77 60.19 44.32 68.66C45.97 71.76 48.45 74.03 51.34 75.68" stroke="#2006F7" stroke-width="2.5" stroke-linecap="round" stroke-linejoin="round"/>
<path d="M62.02 64.48C64.64 63.07 65.6 59.88 64.19 57.26C62.78 54.64 59.59 53.68 56.97 55.09C54.35 56.5 53.39 59.69 54.8 62.31C55.31 63.27 56.08 63.97 56.97 64.48" stroke="#2006F7" stroke-width="2.5" stroke-linecap="round" stroke-linejoin="round"/>
<path d="M59.6 70.1V107.9" stroke="#2006F7" stroke-width="2.5" stroke-linecap="round" stroke-linejoin="round"/>
</g>
<defs>
<clipPath id="clip0_47_1248">
<rect width="97" height="96.9" fill="white" transform="translate(11 12)"/>
</clipPath>
</defs>
</svg>
