<svg width="120" height="120" viewBox="0 0 120 120" fill="none" xmlns="http://www.w3.org/2000/svg">
<g clip-path="url(#clip0_47_1908)">
<path d="M22.94 72.56C29.5343 72.56 34.88 67.2143 34.88 60.62C34.88 54.0257 29.5343 48.68 22.94 48.68C16.3457 48.68 11 54.0257 11 60.62C11 67.2143 16.3457 72.56 22.94 72.56Z" stroke="#2006F7" stroke-width="2.5" stroke-linecap="round" stroke-linejoin="round"/>
<path d="M77.05 87.07H57.37V106.75H77.05V87.07Z" stroke="#2006F7" stroke-width="2.5" stroke-linecap="round" stroke-linejoin="round"/>
<path d="M97.6574 48.6673L85.7073 60.6174L97.6574 72.5676L109.608 60.6174L97.6574 48.6673Z" stroke="#2006F7" stroke-width="2.5" stroke-linecap="round" stroke-linejoin="round"/>
<path d="M67.19 14L79.15 34.34H55.26L67.19 14Z" stroke="#2006F7" stroke-width="2.5" stroke-linecap="round" stroke-linejoin="round"/>
<path d="M22.94 80.54V92.23C22.94 94.77 25 96.83 27.54 96.83H43.93" stroke="#2006F7" stroke-width="2.5" stroke-linecap="round" stroke-linejoin="round"/>
<path d="M41.1 91.26L46.73 96.91L41.1 102.55" stroke="#2006F7" stroke-width="2.5" stroke-linecap="round" stroke-linejoin="round"/>
<path d="M22.94 40.59V28.75C22.95 26.22 25.01 24.17 27.54 24.17H43.93" stroke="#2006F7" stroke-width="2.5" stroke-linecap="round" stroke-linejoin="round"/>
<path d="M41.1 29.81L46.73 24.18L41.1 18.54" stroke="#2006F7" stroke-width="2.5" stroke-linecap="round" stroke-linejoin="round"/>
<path d="M73.08 66.26L78.71 60.62L73.08 54.97" stroke="#2006F7" stroke-width="2.5" stroke-linecap="round" stroke-linejoin="round"/>
<path d="M42.96 60.62H77.03" stroke="#2006F7" stroke-width="2.5" stroke-linecap="round" stroke-linejoin="round"/>
</g>
<defs>
<clipPath id="clip0_47_1908">
<rect width="100.6" height="94.75" fill="white" transform="translate(10 13)"/>
</clipPath>
</defs>
</svg>
