<svg width="120" height="120" viewBox="0 0 120 120" fill="none" xmlns="http://www.w3.org/2000/svg">
<g clip-path="url(#clip0_47_234)">
<path d="M86.69 52.4099C86.69 56.4099 83.45 59.6499 79.45 59.6499C75.45 59.6499 72.21 56.4099 72.21 52.4099C72.21 48.4099 75.45 45.1699 79.45 45.1699C83.45 45.1699 86.69 48.4099 86.69 52.4099Z" stroke="#2006F7" stroke-width="2.5" stroke-linecap="round" stroke-linejoin="round"/>
<path d="M91.2 72.36L97.88 76.99L104.02 70.85L99.39 64.17C100.48 62.33 101.31 60.33 101.86 58.21L109.86 56.76V48.07L101.86 46.62C101.31 44.5 100.48 42.5 99.39 40.66L104.02 33.98L97.88 27.84L91.2 32.47C89.36 31.38 87.36 30.55 85.24 30L83.79 22H75.1L73.65 30C71.53 30.55 69.53 31.38 67.69 32.47L61.01 27.84L54.87 33.98L59.5 40.66C58.41 42.5 57.58 44.5 57.03 46.62L49.03 48.07V56.76L57.03 58.21C57.58 60.33 58.41 62.33 59.5 64.17" stroke="#2006F7" stroke-width="2.5" stroke-linecap="round" stroke-linejoin="round"/>
<path d="M45.75 82.7705L55.5 69.2905H87.52L74.04 91.2005H60.56" stroke="#2006F7" stroke-width="2.5" stroke-linecap="round"/>
<path d="M25.17 97.9302H89.21" stroke="#2006F7" stroke-width="2.5" stroke-linecap="round"/>
<path d="M27.69 64.2303C22.21 64.2303 18.42 60.0303 18.42 54.8403V51.7103C18.42 46.5203 22.21 42.3203 27.69 42.3203C33.17 42.3203 36.96 46.5203 36.96 51.7103V54.8403C36.96 60.0303 33.17 64.2303 27.69 64.2303Z" stroke="#2006F7" stroke-width="2.5" stroke-linecap="round"/>
<path d="M23.48 86.1402L33.59 97.9402H47.07C53.81 97.9402 53.81 89.5102 53.81 89.5102H40.33L27.3 73.5802C25.95 71.9302 23.93 70.9702 21.79 70.9702C16.79 70.9702 13.15 74.0802 12.27 80.4902C11.5 86.0302 10 97.9302 10 97.9302" stroke="#2006F7" stroke-width="2.5" stroke-linecap="round"/>
</g>
<defs>
<clipPath id="clip0_47_234">
<rect width="101.86" height="77.93" fill="white" transform="translate(9 21)"/>
</clipPath>
</defs>
</svg>
