<svg width="120" height="120" viewBox="0 0 120 120" fill="none" xmlns="http://www.w3.org/2000/svg">
<g clip-path="url(#clip0_47_1484)">
<path d="M78.18 78.3198H47.2V101.2H78.18V78.3198Z" stroke="#2006F7" stroke-width="2.5" stroke-linecap="round"/>
<path d="M53.1499 78.3198V72.1198C53.1499 66.8798 57.4399 62.5898 62.6799 62.5898C67.9199 62.5898 72.2099 66.8798 72.2099 72.1198V78.0798" stroke="#2006F7" stroke-width="2.5" stroke-linecap="round"/>
<path d="M29.0601 85.89C17.4501 85.91 8.02005 76.52 8.00005 64.92C7.98005 55.89 13.7301 47.85 22.2901 44.96C26.5901 35.13 37.2201 29.68 47.7101 31.93C53.3701 23.82 62.6501 18.99 72.5401 19C88.4701 19.16 101.63 31.49 102.81 47.38C112.47 53.81 115.09 66.86 108.66 76.52C104.77 82.37 98.2101 85.89 91.1801 85.89" stroke="#2006F7" stroke-width="2.5" stroke-linecap="round"/>
</g>
<defs>
<clipPath id="clip0_47_1484">
<rect width="106.19" height="84.19" fill="white" transform="translate(7 18)"/>
</clipPath>
</defs>
</svg>
