<svg width="120" height="120" viewBox="0 0 120 120" fill="none" xmlns="http://www.w3.org/2000/svg">
<g clip-path="url(#clip0_47_16)">
<path d="M34.18 64.86C36.6045 64.86 38.57 62.8945 38.57 60.47C38.57 58.0455 36.6045 56.08 34.18 56.08C31.7555 56.08 29.79 58.0455 29.79 60.47C29.79 62.8945 31.7555 64.86 34.18 64.86Z" stroke="#2006F7" stroke-width="2.5" stroke-linecap="round" stroke-linejoin="round"/>
<path d="M67.23 33.31C69.6545 33.31 71.62 31.3446 71.62 28.92C71.62 26.4955 69.6545 24.53 67.23 24.53C64.8055 24.53 62.84 26.4955 62.84 28.92C62.84 31.3446 64.8055 33.31 67.23 33.31Z" stroke="#2006F7" stroke-width="2.5" stroke-linecap="round" stroke-linejoin="round"/>
<path d="M56.51 70.9C62.2703 70.9 66.94 66.2303 66.94 60.47C66.94 54.7096 62.2703 50.04 56.51 50.04C50.7497 50.04 46.08 54.7096 46.08 60.47C46.08 66.2303 50.7497 70.9 56.51 70.9Z" stroke="#2006F7" stroke-width="2.5" stroke-linecap="round" stroke-linejoin="round"/>
<path d="M69.26 91.4C78.02 87.76 84.83 80.58 88 71.64" stroke="#2006F7" stroke-width="2.5" stroke-linecap="round" stroke-linejoin="round"/>
<path d="M34.63 64.86C36.71 75.29 45.88 82.8 56.52 82.78" stroke="#2006F7" stroke-width="2.5" stroke-linecap="round" stroke-linejoin="round"/>
<path d="M78.83 60.47C78.82 48.15 68.82 38.16 56.49 38.18C49.09 38.18 42.17 41.87 38.02 48" stroke="#2006F7" stroke-width="2.5" stroke-linecap="round" stroke-linejoin="round"/>
<path d="M42.94 91.01C46.33 92.53 49.94 93.46 53.64 93.76" stroke="#2006F7" stroke-width="2.5" stroke-linecap="round" stroke-linejoin="round"/>
<path d="M63.01 27.69C60.87 27.27 58.69 27.06 56.51 27.07C38.07 27.04 23.1 41.96 23.07 60.4C23.06 69.29 26.59 77.82 32.88 84.1" stroke="#2006F7" stroke-width="2.5" stroke-linecap="round" stroke-linejoin="round"/>
<path d="M89.92 60.47C89.92 49.71 84.75 39.61 76.02 33.33" stroke="#2006F7" stroke-width="2.5" stroke-linecap="round" stroke-linejoin="round"/>
<path d="M12 60.47C12 85.04 31.92 104.96 56.49 104.96H56.51" stroke="#2006F7" stroke-width="2.5" stroke-linecap="round" stroke-linejoin="round"/>
<path d="M101.01 60.47C100.99 35.89 81.04 15.98 56.46 16C39.28 16.02 23.65 25.92 16.28 41.44" stroke="#2006F7" stroke-width="2.5" stroke-linecap="round" stroke-linejoin="round"/>
<path d="M66.94 60.47H107" stroke="#2006F7" stroke-width="2.5" stroke-linecap="round" stroke-linejoin="round"/>
<path d="M65.03 97.17C67.4545 97.17 69.42 95.2045 69.42 92.78C69.42 90.3555 67.4545 88.39 65.03 88.39C62.6055 88.39 60.64 90.3555 60.64 92.78C60.64 95.2045 62.6055 97.17 65.03 97.17Z" stroke="#2006F7" stroke-width="2.5" stroke-linecap="round" stroke-linejoin="round"/>
</g>
<defs>
<clipPath id="clip0_47_16">
<rect width="97" height="90.96" fill="white" transform="translate(11 15)"/>
</clipPath>
</defs>
</svg>
