<svg width="120" height="120" viewBox="0 0 120 120" fill="none" xmlns="http://www.w3.org/2000/svg">
<g clip-path="url(#clip0_47_2330)">
<path d="M82.93 65.2802V81.8202H38.79V37.6802H82.93V55.5602" stroke="#2006F7" stroke-width="2.5" stroke-linecap="round" stroke-linejoin="round"/>
<path d="M10 70.23L26.28 69.72V93.8L95.33 94.31" stroke="#2006F7" stroke-width="2.5" stroke-linecap="round" stroke-linejoin="round"/>
<path d="M10 57.7501H26.31V24.3101" stroke="#2006F7" stroke-width="2.5" stroke-linecap="round" stroke-linejoin="round"/>
<path d="M92.3601 88.3599L98.3001 94.3099L92.3601 100.27" stroke="#2006F7" stroke-width="2.5" stroke-linecap="round" stroke-linejoin="round"/>
<path d="M20.3601 27.3399L26.3101 21.3799L32.2701 27.3399" stroke="#2006F7" stroke-width="2.5" stroke-linecap="round" stroke-linejoin="round"/>
<path d="M110 47.75H95.33V25.22H66.54" stroke="#2006F7" stroke-width="2.5" stroke-linecap="round" stroke-linejoin="round"/>
<path d="M110 60.23H66.54" stroke="#2006F7" stroke-width="2.5" stroke-linecap="round" stroke-linejoin="round"/>
<path d="M69.17 30.91L63.21 24.97L69.17 19" stroke="#2006F7" stroke-width="2.5" stroke-linecap="round" stroke-linejoin="round"/>
<path d="M60.85 65.0902C63.7937 65.0902 66.18 62.7039 66.18 59.7602C66.18 56.8165 63.7937 54.4302 60.85 54.4302C57.9063 54.4302 55.52 56.8165 55.52 59.7602C55.52 62.7039 57.9063 65.0902 60.85 65.0902Z" stroke="#2006F7" stroke-width="2.5" stroke-linecap="round" stroke-linejoin="round"/>
</g>
<defs>
<clipPath id="clip0_47_2330">
<rect width="102" height="83.27" fill="white" transform="translate(9 18)"/>
</clipPath>
</defs>
</svg>
