<svg width="120" height="120" viewBox="0 0 120 120" fill="none" xmlns="http://www.w3.org/2000/svg">
<g clip-path="url(#clip0_47_344)">
<path d="M14.91 47.7C13.86 47.69 13.01 46.84 13 45.79V35.59C13 34.78 13.52 34.06 14.29 33.79L60.05 18L105.82 33.78C106.59 34.05 107.1 34.77 107.11 35.58V45.78C107.1 46.83 106.25 47.68 105.2 47.69H14.91V47.7Z" stroke="#2006F7" stroke-width="2.5" stroke-linecap="round" stroke-linejoin="round"/>
<path d="M99.45 55.04V87.93H105.13C106.18 87.93 107.04 88.78 107.04 89.84V100.02C107.04 101.07 106.19 101.93 105.13 101.93H14.91C13.86 101.93 13 101.08 13 100.02V89.84C13 88.79 13.85 87.93 14.91 87.93H20.51V55.04" stroke="#2006F7" stroke-width="2.5" stroke-linecap="round" stroke-linejoin="round"/>
<path d="M77.87 55.04V87.93H85.43V55.04" stroke="#2006F7" stroke-width="2.5" stroke-linecap="round" stroke-linejoin="round"/>
<path d="M56.22 55.04V87.93H63.79V55.04" stroke="#2006F7" stroke-width="2.5" stroke-linecap="round" stroke-linejoin="round"/>
<path d="M34.59 55.04V87.93H42.16V55.04" stroke="#2006F7" stroke-width="2.5" stroke-linecap="round" stroke-linejoin="round"/>
</g>
<defs>
<clipPath id="clip0_47_344">
<rect width="96.1" height="85.92" fill="white" transform="translate(12 17)"/>
</clipPath>
</defs>
</svg>
