<svg width="120" height="120" viewBox="0 0 120 120" fill="none" xmlns="http://www.w3.org/2000/svg">
<g clip-path="url(#clip0_47_2556)">
<path d="M77.54 41.6701L85.59 33.6201" stroke="white" stroke-width="2" stroke-linecap="round"/>
<path d="M85.59 17.41V11" stroke="white" stroke-width="2" stroke-linecap="round"/>
<path d="M98.56 20.65L104.97 14.24" stroke="white" stroke-width="2" stroke-linecap="round"/>
<path d="M101.8 33.6201H108.21" stroke="white" stroke-width="2" stroke-linecap="round"/>
<path d="M95.31 43.3501L98.56 46.6001" stroke="white" stroke-width="2" stroke-linecap="round"/>
<path d="M75.86 23.8999L72.61 20.6499" stroke="white" stroke-width="2" stroke-linecap="round"/>
<path d="M23.98 72.5198C23.99 59.9898 34.15 49.8298 46.68 49.8198" stroke="#00F2B3" stroke-width="2" stroke-linecap="round"/>
<path d="M46.68 108.21C66.39 108.21 82.36 92.2301 82.36 72.5301C82.36 52.8201 66.38 36.8501 46.68 36.8501C26.97 36.8501 11 52.8301 11 72.5301C11 92.2301 26.98 108.21 46.68 108.21Z" stroke="white" stroke-width="2" stroke-linecap="round"/>
</g>
<defs>
<clipPath id="clip0_47_2556">
<rect width="99.21" height="99.21" fill="white" transform="translate(10 10)"/>
</clipPath>
</defs>
</svg>
