<svg width="120" height="120" viewBox="0 0 120 120" fill="none" xmlns="http://www.w3.org/2000/svg">
<g clip-path="url(#clip0_47_1750)">
<path d="M60.11 87.7803V109.99" stroke="white" stroke-width="2" stroke-linecap="round" stroke-linejoin="round"/>
<path d="M60.11 10.1504V29.6104" stroke="white" stroke-width="2" stroke-linecap="round" stroke-linejoin="round"/>
<path d="M60.11 78.6095C71.1115 78.6095 80.03 69.691 80.03 58.6895C80.03 47.688 71.1115 38.7695 60.11 38.7695C49.1085 38.7695 40.19 47.688 40.19 58.6895C40.19 69.691 49.1085 78.6095 60.11 78.6095Z" stroke="#00F2B3" stroke-width="2" stroke-linecap="round" stroke-linejoin="round"/>
<path d="M60.11 111.37H59.42C49.34 107.93 39.73 102.9 31.25 96.26C23.92 90.31 14.99 81.15 14.99 70.84V23.66C14.99 22.74 15.68 22.06 16.36 21.83L59.43 9H60.35L103.63 21.6C104.55 21.83 105 22.75 105 23.43V70.61C105 89.39 76.15 106.34 60.57 111.14C60.57 111.37 60.34 111.37 60.11 111.37Z" stroke="white" stroke-width="2" stroke-linecap="round" stroke-linejoin="round"/>
<path d="M60.11 69.6902V50.4502" stroke="white" stroke-width="2" stroke-linecap="round" stroke-linejoin="round"/>
<path d="M69.27 59.6102L60.11 50.4502L50.95 59.6102" stroke="white" stroke-width="2" stroke-linecap="round" stroke-linejoin="round"/>
</g>
<defs>
<clipPath id="clip0_47_1750">
<rect width="92" height="104.37" fill="white" transform="translate(14 8)"/>
</clipPath>
</defs>
</svg>
