<svg width="120" height="120" viewBox="0 0 120 120" fill="none" xmlns="http://www.w3.org/2000/svg">
<g clip-path="url(#clip0_47_2864)">
<path d="M83.5 102.44C82.69 102.55 81.94 101.98 81.83 101.16C81.81 101.03 81.81 100.9 81.83 100.77V96.9299C80.49 96.4799 79.24 95.7699 78.16 94.8599L74.98 96.6999C74.68 96.8799 74.34 96.9799 73.99 96.9899C73.42 96.9699 72.91 96.6199 72.69 96.0899L69.97 91.3899V91.2799C69.58 90.5699 69.85 89.6799 70.56 89.2899C70.61 89.2699 70.65 89.2399 70.7 89.2199L74 87.3799C73.9 86.8999 73.84 86.4199 73.82 85.9299V85.5299C73.82 84.8099 73.88 84.0899 74 83.3799L70.71 81.5399C70.31 81.3599 70.01 81.0199 69.87 80.5999C69.74 80.1399 69.81 79.6399 70.07 79.2399L72.82 74.5199C73.04 73.9899 73.55 73.6299 74.12 73.5999C74.47 73.6199 74.8 73.7299 75.09 73.9099L78.49 75.8699L81.87 73.9099V69.9599C81.76 69.1499 82.33 68.3999 83.15 68.2899C83.28 68.2699 83.41 68.2699 83.54 68.2899H88.83C89.64 68.1799 90.39 68.7499 90.5 69.5699C90.52 69.6999 90.52 69.8299 90.5 69.9599V73.9099C91.85 74.3599 93.09 75.0599 94.17 75.9799L97.35 74.1399C97.65 73.9499 97.99 73.8399 98.34 73.8299C98.92 73.8699 99.43 74.2299 99.66 74.7699L102.36 79.4699C102.87 80.1099 102.77 81.0499 102.13 81.5599C102.03 81.6399 101.91 81.7099 101.79 81.7599L98.49 83.5999C98.49 84.0599 98.6 84.5499 98.64 85.0499V85.4699C98.64 86.1899 98.58 86.9099 98.46 87.6199L101.76 89.4599C102.14 89.6499 102.44 89.9699 102.6 90.3599C102.72 90.6899 102.72 91.0399 102.6 91.3699C102.56 91.5099 102.5 91.6499 102.42 91.7699L99.72 96.4699C99.48 96.9899 98.97 97.3299 98.4 97.3699C98.05 97.3499 97.71 97.2399 97.41 97.0599L94.01 95.0999L93.35 95.6299L92.98 95.9099C92.23 96.3699 91.44 96.7599 90.61 97.0699V101.02C90.72 101.83 90.15 102.58 89.33 102.69C89.2 102.71 89.07 102.71 88.94 102.69L83.49 102.43L83.5 102.44Z" stroke="white" stroke-width="2" stroke-linecap="round" stroke-linejoin="round"/>
<path d="M86.14 91.4098C89.5586 91.4098 92.33 88.6384 92.33 85.2198C92.33 81.8011 89.5586 79.0298 86.14 79.0298C82.7214 79.0298 79.95 81.8011 79.95 85.2198C79.95 88.6384 82.7214 91.4098 86.14 91.4098Z" stroke="white" stroke-width="2" stroke-linecap="round" stroke-linejoin="round"/>
<path d="M73.64 20.3701V60.2201C73.66 67.6201 67.68 73.6401 60.28 73.6601C60.26 73.6601 60.24 73.6601 60.22 73.6601C52.82 73.6701 46.81 67.6801 46.8 60.2801C46.8 60.2601 46.8 60.2401 46.8 60.2201V51.9201L52.18 57.2801" stroke="#00F2B3" stroke-width="2" stroke-linecap="round" stroke-linejoin="round"/>
<path d="M101.54 68.9C105.48 50.15 96.3 31.1 79.18 22.49" stroke="white" stroke-width="2" stroke-linecap="round" stroke-linejoin="round"/>
<path d="M68.09 18.75C65.5 18.25 62.86 18 60.22 18C36.9 18 18 36.9 18 60.22C18 83.54 36.9 102.44 60.22 102.44C63.5 102.44 66.76 102.06 69.95 101.3" stroke="white" stroke-width="2" stroke-linecap="round" stroke-linejoin="round"/>
</g>
<defs>
<clipPath id="clip0_47_2864">
<rect width="86.69" height="86.71" fill="white" transform="translate(17 17)"/>
</clipPath>
</defs>
</svg>
