<svg width="120" height="120" viewBox="0 0 120 120" fill="none" xmlns="http://www.w3.org/2000/svg">
<g clip-path="url(#clip0_47_213)">
<path d="M55.83 99.66C80.0366 99.66 99.66 80.0366 99.66 55.83C99.66 31.6234 80.0366 12 55.83 12C31.6234 12 12 31.6234 12 55.83C12 80.0366 31.6234 99.66 55.83 99.66Z" stroke="#2006F7" stroke-width="2.5" stroke-linecap="round" stroke-linejoin="round"/>
<path d="M92.65 92.6499L108.92 108.92" stroke="#2006F7" stroke-width="2.5" stroke-linecap="round" stroke-linejoin="round"/>
<path d="M55.3899 66.7196C61.6473 66.7196 66.7199 61.647 66.7199 55.3896C66.7199 49.1322 61.6473 44.0596 55.3899 44.0596C49.1325 44.0596 44.0599 49.1322 44.0599 55.3896C44.0599 61.647 49.1325 66.7196 55.3899 66.7196Z" stroke="#2006F7" stroke-width="2.5" stroke-linecap="round" stroke-linejoin="round"/>
<path d="M80.3599 55.3896C80.3599 55.3896 72.1699 37.3896 55.3899 37.3896C38.6099 37.3896 30.4399 55.3896 30.4399 55.3896" stroke="#2006F7" stroke-width="2.5" stroke-linecap="round" stroke-linejoin="round"/>
<path d="M32.7699 59.4697C36.2799 64.7897 43.7499 73.4097 55.3899 73.4097C67.0299 73.4097 74.4999 64.7897 78.0199 59.4697" stroke="#2006F7" stroke-width="2.5" stroke-linecap="round" stroke-linejoin="round"/>
<path d="M55.6999 54.2495V55.9695" stroke="#2006F7" stroke-width="2.5" stroke-linecap="round"/>
</g>
<defs>
<clipPath id="clip0_47_213">
<rect width="98.92" height="98.92" fill="white" transform="translate(11 11)"/>
</clipPath>
</defs>
</svg>
