<svg width="120" height="120" viewBox="0 0 120 120" fill="none" xmlns="http://www.w3.org/2000/svg">
<g clip-path="url(#clip0_47_2407)">
<path d="M36.78 107C50.4656 107 61.56 95.906 61.56 82.2204C61.56 68.5348 50.4656 57.4404 36.78 57.4404C23.0944 57.4404 12 68.5348 12 82.2204C12 95.906 23.0944 107 36.78 107Z" stroke="#2006F7" stroke-width="2.5" stroke-linecap="round" stroke-linejoin="round"/>
<path d="M67.76 67.76L90.48 45.04L107 61.57V28.52V12H90.48H57.43L73.96 28.52L51.24 51.24" stroke="#2006F7" stroke-width="2.5" stroke-linecap="round" stroke-linejoin="round"/>
<path d="M49.17 12H24.39L40.91 28.52L18.2 51.24" stroke="#2006F7" stroke-width="2.5" stroke-linecap="round" stroke-linejoin="round"/>
<path d="M67.76 100.8L90.48 78.0901L107 94.6101V69.8301" stroke="#2006F7" stroke-width="2.5" stroke-linecap="round" stroke-linejoin="round"/>
<path d="M36.7801 65.0801L42.1501 76.0201L54.1301 77.6701L45.4601 86.1401L47.5201 98.1201L36.7801 92.3401L26.0401 98.1201L28.1101 86.1401L19.4301 77.6701L31.4101 76.0201L36.7801 65.0801Z" stroke="#2006F7" stroke-width="2.5" stroke-linecap="round" stroke-linejoin="round"/>
</g>
<defs>
<clipPath id="clip0_47_2407">
<rect width="97" height="97" fill="white" transform="translate(11 11)"/>
</clipPath>
</defs>
</svg>
