<svg width="120" height="120" viewBox="0 0 120 120" fill="none" xmlns="http://www.w3.org/2000/svg">
<g clip-path="url(#clip0_47_2342)">
<path d="M82.93 65.2799V81.8199H38.79V37.6799H82.93V55.5599" stroke="#00F2B3" stroke-width="2" stroke-linecap="round" stroke-linejoin="round"/>
<path d="M10 70.23L26.28 69.72V93.8L95.33 94.31" stroke="white" stroke-width="2" stroke-linecap="round" stroke-linejoin="round"/>
<path d="M10 57.7501H26.31V24.3101" stroke="white" stroke-width="2" stroke-linecap="round" stroke-linejoin="round"/>
<path d="M92.36 88.3601L98.3 94.3101L92.36 100.27" stroke="white" stroke-width="2" stroke-linecap="round" stroke-linejoin="round"/>
<path d="M20.36 27.3399L26.31 21.3799L32.27 27.3399" stroke="white" stroke-width="2" stroke-linecap="round" stroke-linejoin="round"/>
<path d="M110 47.75H95.33V25.22H66.54" stroke="white" stroke-width="2" stroke-linecap="round" stroke-linejoin="round"/>
<path d="M110 60.23H66.54" stroke="white" stroke-width="2" stroke-linecap="round" stroke-linejoin="round"/>
<path d="M69.17 30.91L63.21 24.97L69.17 19" stroke="white" stroke-width="2" stroke-linecap="round" stroke-linejoin="round"/>
<path d="M60.85 65.0899C63.7937 65.0899 66.18 62.7036 66.18 59.7599C66.18 56.8163 63.7937 54.4299 60.85 54.4299C57.9063 54.4299 55.52 56.8163 55.52 59.7599C55.52 62.7036 57.9063 65.0899 60.85 65.0899Z" stroke="white" stroke-width="2" stroke-linecap="round" stroke-linejoin="round"/>
</g>
<defs>
<clipPath id="clip0_47_2342">
<rect width="102" height="83.27" fill="white" transform="translate(9 18)"/>
</clipPath>
</defs>
</svg>
