<svg width="120" height="120" viewBox="0 0 120 120" fill="none" xmlns="http://www.w3.org/2000/svg">
<g clip-path="url(#clip0_47_2353)">
<path d="M108.5 17.4004C94.61 17.5204 81.73 24.6604 74.26 36.3704C65.98 49.5604 65.98 66.3304 74.26 79.5204C81.75 91.2004 94.63 98.3004 108.5 98.3904C94.93 89.4604 86.9 74.1904 87.25 57.9504C86.87 41.6804 94.9 26.3604 108.5 17.4104V17.4004Z" stroke="#2006F7" stroke-width="2.5" stroke-linecap="round" stroke-linejoin="round"/>
<path d="M62.65 42.8598C61.01 42.3498 59.29 42.0898 57.57 42.0898C47.93 42.0898 40.11 49.9098 40.11 59.5498C40.11 69.1898 47.93 77.0098 57.57 77.0098C59.29 77.0098 61.01 76.7498 62.65 76.2398" stroke="#2006F7" stroke-width="2.5" stroke-linecap="round" stroke-linejoin="round"/>
<path d="M57.55 24.94V13" stroke="#2006F7" stroke-width="2.5" stroke-linecap="round" stroke-linejoin="round"/>
<path d="M33.08 35.0796L24.64 26.6396" stroke="#2006F7" stroke-width="2.5" stroke-linecap="round" stroke-linejoin="round"/>
<path d="M22.94 59.5498H11" stroke="#2006F7" stroke-width="2.5" stroke-linecap="round" stroke-linejoin="round"/>
<path d="M33.08 84.0195L24.64 92.4595" stroke="#2006F7" stroke-width="2.5" stroke-linecap="round" stroke-linejoin="round"/>
<path d="M57.55 94.1602V106.1" stroke="#2006F7" stroke-width="2.5" stroke-linecap="round" stroke-linejoin="round"/>
</g>
<defs>
<clipPath id="clip0_47_2353">
<rect width="99.5" height="95.1" fill="white" transform="translate(10 12)"/>
</clipPath>
</defs>
</svg>
