<svg width="120" height="120" viewBox="0 0 120 120" fill="none" xmlns="http://www.w3.org/2000/svg">
<g clip-path="url(#clip0_47_380)">
<path d="M69.6 16.71C69.6 11.35 65.25 7 59.89 7C54.53 7 50.18 11.35 50.18 16.71H40.38V31.07H79.4V16.71H69.6Z" stroke="#2006F7" stroke-width="2.5" stroke-linecap="round" stroke-linejoin="round"/>
<path d="M86.46 23.7402H99.79V113.21H20V23.7402H33.33" stroke="#2006F7" stroke-width="2.5" stroke-linecap="round" stroke-linejoin="round"/>
<path d="M49.69 68.4702L56.51 75.2702L70.1 61.6802" stroke="#2006F7" stroke-width="2.5" stroke-linecap="round" stroke-linejoin="round"/>
<path d="M59.89 89.65C71.5874 89.65 81.07 80.1674 81.07 68.47C81.07 56.7726 71.5874 47.29 59.89 47.29C48.1926 47.29 38.71 56.7726 38.71 68.47C38.71 80.1674 48.1926 89.65 59.89 89.65Z" stroke="#2006F7" stroke-width="2.5" stroke-linecap="round" stroke-linejoin="round"/>
</g>
<defs>
<clipPath id="clip0_47_380">
<rect width="81.79" height="108.21" fill="white" transform="translate(19 6)"/>
</clipPath>
</defs>
</svg>
