<svg width="120" height="120" viewBox="0 0 120 120" fill="none" xmlns="http://www.w3.org/2000/svg">
<g clip-path="url(#clip0_47_791)">
<path d="M60.04 64.5293C60.04 80.0893 66.71 93.9793 77.27 103.799" stroke="#2006F7" stroke-width="2.5" stroke-linecap="round"/>
<path d="M44.3 13.41C49.3 11.93 54.67 11 60.23 11C65.05 11 69.68 11.74 74.12 12.85" stroke="#2006F7" stroke-width="2.5" stroke-linecap="round"/>
<path d="M90.97 34.8898C83.19 26.7398 72.26 21.5498 60.04 21.5498C47.82 21.5498 35.78 27.2998 28 36.1898" stroke="#2006F7" stroke-width="2.5" stroke-linecap="round"/>
<path d="M91.72 59.1602C89.13 43.9702 75.98 32.4902 60.05 32.4902C42.45 32.4902 28 46.9302 28 64.5302C28 75.8302 30.22 86.7602 34.48 96.9402" stroke="#2006F7" stroke-width="2.5" stroke-linecap="round"/>
<path d="M90.2299 86.5705C84.6699 80.6405 81.5199 72.8605 81.5199 64.5305C81.5199 52.6805 71.8899 43.2305 60.2199 43.2305C48.5499 43.2305 38.9199 52.8605 38.9199 64.5305C38.9199 80.6405 44.1099 95.8305 53.1799 108.61" stroke="#2006F7" stroke-width="2.5" stroke-linecap="round"/>
<path d="M85.0501 96.3894C75.9701 88.2394 70.7901 76.7594 70.7901 64.3494C70.7901 58.4194 65.9701 53.6094 60.0501 53.6094C54.1301 53.6094 49.3101 58.4294 49.3101 64.3494C49.3101 80.8294 55.6101 96.3894 66.5401 108.249" stroke="#2006F7" stroke-width="2.5" stroke-linecap="round"/>
</g>
<defs>
<clipPath id="clip0_47_791">
<rect width="65.72" height="99.61" fill="white" transform="translate(27 10)"/>
</clipPath>
</defs>
</svg>
