<svg width="120" height="120" viewBox="0 0 120 120" fill="none" xmlns="http://www.w3.org/2000/svg">
<g clip-path="url(#clip0_47_2664)">
<path d="M45.02 101.17C44.05 101.22 43.14 100.73 42.65 99.8897C42.13 99.0997 42.13 98.0697 42.65 97.2797L59.06 68.8197C59.75 67.5097 61.37 67.0097 62.68 67.6997C63.16 67.9497 63.55 68.3397 63.8 68.8197L80.21 97.2797C80.93 98.5297 80.51 100.12 79.26 100.85C78.83 101.1 78.34 101.22 77.84 101.2L45.01 101.18L45.02 101.17Z" stroke="#2006F7" stroke-width="2.5" stroke-linecap="round"/>
<path d="M61.41 78.5898V87.7998" stroke="#2006F7" stroke-width="2.5" stroke-linecap="round"/>
<path d="M61.41 93.6699V94.6699" stroke="#2006F7" stroke-width="2.5" stroke-linecap="round"/>
<path d="M29.0601 85.89C17.4501 85.91 8.02005 76.52 8.00005 64.92C7.98005 55.89 13.7301 47.85 22.2901 44.96C26.5901 35.13 37.2201 29.68 47.7101 31.93C53.3701 23.82 62.6501 18.99 72.5401 19C88.4701 19.16 101.63 31.49 102.81 47.38C112.47 53.81 115.09 66.86 108.66 76.52C104.77 82.37 98.2101 85.89 91.1801 85.89" stroke="#2006F7" stroke-width="2.5" stroke-linecap="round"/>
</g>
<defs>
<clipPath id="clip0_47_2664">
<rect width="106.19" height="84.19" fill="white" transform="translate(7 18)"/>
</clipPath>
</defs>
</svg>
