<svg width="120" height="120" viewBox="0 0 120 120" fill="none" xmlns="http://www.w3.org/2000/svg">
<path d="M104.61 62.5905C108.48 37.7205 91.46 14.4205 66.59 10.5505C41.73 6.6805 18.42 23.7005 14.55 48.5705C10.68 73.4405 27.7 96.7405 52.57 100.611C54.89 100.971 57.23 101.151 59.58 101.151C62.85 101.151 66.11 100.801 69.31 100.101" stroke="#2006F7" stroke-width="2.5" stroke-linecap="round" stroke-linejoin="round"/>
<path d="M81.21 55.5807C81.21 30.4207 71.46 10.0107 59.57 10.0107C47.68 10.0107 37.93 30.4207 37.93 55.5807C37.93 80.7407 47.68 101.151 59.57 101.151" stroke="#2006F7" stroke-width="2.5" stroke-linecap="round" stroke-linejoin="round"/>
<path d="M59.57 10.0107V101.151" stroke="#2006F7" stroke-width="2.5" stroke-linecap="round" stroke-linejoin="round"/>
<path d="M20.16 32.9102H98.98" stroke="#2006F7" stroke-width="2.5" stroke-linecap="round" stroke-linejoin="round"/>
<path d="M14 55.5801H105.15" stroke="#2006F7" stroke-width="2.5" stroke-linecap="round" stroke-linejoin="round"/>
<path d="M20.16 78.251H59.57" stroke="#2006F7" stroke-width="2.5" stroke-linecap="round" stroke-linejoin="round"/>
<path d="M85.5001 85.3506C82.3201 85.3506 79.7501 82.7706 79.7501 79.6006C79.7501 76.4206 82.3301 73.8506 85.5001 73.8506C88.6801 73.8506 91.2501 76.4306 91.2501 79.6006C91.2501 82.7806 88.6701 85.3506 85.5001 85.3506Z" stroke="#2006F7" stroke-width="2.5" stroke-linecap="round" stroke-linejoin="round"/>
<path d="M89.8901 105.08C99.5501 92.9803 108.33 77.7803 98.1201 67.4203C94.8201 64.2103 90.3501 62.4703 85.7501 62.6203C81.1601 62.4903 76.7201 64.2203 73.4401 67.4203C61.7601 79.2603 74.9101 97.4203 85.7501 110.05" stroke="#2006F7" stroke-width="2.5" stroke-linecap="round" stroke-linejoin="round"/>
</svg>
