<svg width="120" height="120" viewBox="0 0 120 120" fill="none" xmlns="http://www.w3.org/2000/svg">
<g clip-path="url(#clip0_343_13)">
<path d="M47.1373 83.6122L56.9216 70.1406H89.0882L75.549 92.0404H62.0098" stroke="white" stroke-width="2" stroke-linecap="round"/>
<path d="M26.4608 98.7705H90.7843" stroke="white" stroke-width="2" stroke-linecap="round"/>
<path d="M29 65.0775C23.5 65.0775 19.6863 60.8731 19.6863 55.6933V52.562C19.6863 47.3821 23.4902 43.1777 29 43.1777C34.5098 43.1777 38.3137 47.3821 38.3137 52.562V55.6933C38.3137 60.8731 34.5098 65.0775 29 65.0775Z" stroke="white" stroke-width="2" stroke-linecap="round"/>
<path d="M24.7647 86.9775L34.9216 98.7712H48.4608C55.2353 98.7712 55.2353 90.3527 55.2353 90.3527H41.6961L28.6078 74.4327C27.2549 72.7841 25.2157 71.8281 23.0784 71.8281C18.0588 71.8281 14.402 74.9302 13.5098 81.3489C12.7353 86.8799 11.2255 98.7809 11.2255 98.7809" stroke="white" stroke-width="2" stroke-linecap="round"/>
<path d="M74.5882 49.2835L78.8235 53.4976L87.2647 45.0986" stroke="white" stroke-width="2" stroke-linecap="round"/>
<path d="M105.412 35.7344C110.216 44.5821 109.853 55.3222 104.48 63.8383" stroke="white" stroke-width="2" stroke-linecap="round"/>
<path d="M55.1863 37.6853C61.5392 23.6285 78.1373 17.3658 92.2549 23.6772C92.5588 23.8138 92.8529 23.9504 93.1471 24.0967" stroke="white" stroke-width="2" stroke-linecap="round"/>
<path d="M56.6765 63.1648C55.0392 60.4041 53.8529 57.3216 53.2451 54.0146" stroke="white" stroke-width="2" stroke-linecap="round"/>
<path d="M101.52 73.0758C104.333 73.0758 106.618 70.8029 106.618 68.0032C106.618 65.2036 104.333 62.9307 101.52 62.9307C98.7059 62.9307 96.4216 65.2036 96.4216 68.0032C96.4216 70.8029 98.7059 73.0758 101.52 73.0758Z" stroke="white" stroke-width="2" stroke-linecap="round"/>
<path d="M97.6569 31.4322C100.471 31.4322 102.755 29.1593 102.755 26.3597C102.755 23.56 100.471 21.2871 97.6569 21.2871C94.8431 21.2871 92.5588 23.56 92.5588 26.3597C92.5588 29.1593 94.8431 31.4322 97.6569 31.4322Z" stroke="white" stroke-width="2" stroke-linecap="round"/>
<path d="M52.4804 54.0836C55.2941 54.0836 57.5784 51.8107 57.5784 49.011C57.5784 46.2114 55.2941 43.9385 52.4804 43.9385C49.6667 43.9385 47.3824 46.2114 47.3824 49.011C47.3824 51.8107 49.6667 54.0836 52.4804 54.0836Z" stroke="white" stroke-width="2" stroke-linecap="round"/>
<path d="M80.951 62.414C78.2647 61.5165 75.5294 60.063 73.3333 58.3559C71.049 56.8732 69.5196 54.493 69.1275 51.8104V39.5875C69.1275 39.3631 69.2745 39.1583 69.4902 39.09L80.951 35.666L92.4118 39.09C92.6275 39.1583 92.7745 39.3631 92.7745 39.5875V51.8104C92.3824 54.493 90.8529 56.8732 88.5686 58.3559C86.3726 60.063 83.6373 61.5165 80.951 62.414Z" stroke="#00F2B3" stroke-width="2" stroke-linecap="round"/>
</g>
<defs>
<clipPath id="clip0_343_13">
<rect width="100" height="80" fill="white" transform="translate(10 20)"/>
</clipPath>
</defs>
</svg>
