<svg width="120" height="120" viewBox="0 0 120 120" fill="none" xmlns="http://www.w3.org/2000/svg">
<g clip-path="url(#clip0_47_891)">
<path d="M34.83 59.7102C38.5027 59.7102 41.48 56.7329 41.48 53.0602C41.48 49.3875 38.5027 46.4102 34.83 46.4102C31.1573 46.4102 28.18 49.3875 28.18 53.0602C28.18 56.7329 31.1573 59.7102 34.83 59.7102Z" stroke="#00F2B3" stroke-width="2" stroke-linecap="round"/>
<path d="M58.56 43.55C62.2327 43.55 65.21 40.5727 65.21 36.9C65.21 33.2273 62.2327 30.25 58.56 30.25C54.8873 30.25 51.91 33.2273 51.91 36.9C51.91 40.5727 54.8873 43.55 58.56 43.55Z" stroke="#00F2B3" stroke-width="2" stroke-linecap="round"/>
<path d="M82.29 59.7102C85.9627 59.7102 88.94 56.7329 88.94 53.0602C88.94 49.3875 85.9627 46.4102 82.29 46.4102C78.6173 46.4102 75.64 49.3875 75.64 53.0602C75.64 56.7329 78.6173 59.7102 82.29 59.7102Z" stroke="#00F2B3" stroke-width="2" stroke-linecap="round"/>
<path d="M40.53 49.19L52.85 40.77" stroke="#00F2B3" stroke-width="2" stroke-linecap="round"/>
<path d="M76.62 49.19L64.26 40.77" stroke="#00F2B3" stroke-width="2" stroke-linecap="round"/>
<path d="M108 20H12C11.4477 20 11 20.4477 11 21V83.66C11 84.2123 11.4477 84.66 12 84.66H108C108.552 84.66 109 84.2123 109 83.66V21C109 20.4477 108.552 20 108 20Z" stroke="white" stroke-width="2" stroke-linecap="round" stroke-linejoin="round"/>
<path d="M60 84.6602V100.71" stroke="white" stroke-width="2" stroke-linecap="round" stroke-linejoin="round"/>
<path d="M33.97 100.71H86.03" stroke="white" stroke-width="2" stroke-linecap="round" stroke-linejoin="round"/>
<path d="M11 68.9102H38.16" stroke="white" stroke-width="2" stroke-linecap="round" stroke-linejoin="round"/>
<path d="M81.84 68.9102H109" stroke="white" stroke-width="2" stroke-linecap="round" stroke-linejoin="round"/>
</g>
<defs>
<clipPath id="clip0_47_891">
<rect width="100" height="82.71" fill="white" transform="translate(10 19)"/>
</clipPath>
</defs>
</svg>
