<svg width="120" height="120" viewBox="0 0 120 120" fill="none" xmlns="http://www.w3.org/2000/svg">
<g clip-path="url(#clip0_47_2468)">
<path d="M86.19 93.21C81.92 96.58 77.04 99.09 71.82 100.6" stroke="white" stroke-width="2" stroke-linecap="round"/>
<path d="M102.03 64.7202C101.15 72.6302 98.05 80.1302 93.07 86.3402" stroke="white" stroke-width="2" stroke-linecap="round"/>
<path d="M26.95 86.3798C23.5 82.0498 20.93 77.0798 19.39 71.7598" stroke="white" stroke-width="2" stroke-linecap="round"/>
<path d="M55.28 102.03C47.37 101.15 39.88 98.0498 33.66 93.0898" stroke="white" stroke-width="2" stroke-linecap="round"/>
<path d="M93 33.5801C96.31 37.7001 98.81 42.4201 100.37 47.4701" stroke="white" stroke-width="2" stroke-linecap="round"/>
<path d="M64.7 17.9702C72.63 18.8402 80.16 21.9602 86.38 26.9502" stroke="white" stroke-width="2" stroke-linecap="round"/>
<path d="M60 22.44C62.6068 22.44 64.72 20.3268 64.72 17.72C64.72 15.1132 62.6068 13 60 13C57.3932 13 55.28 15.1132 55.28 17.72C55.28 20.3268 57.3932 22.44 60 22.44Z" stroke="white" stroke-width="2" stroke-linecap="round"/>
<path d="M60 107C62.6068 107 64.72 104.887 64.72 102.28C64.72 99.6733 62.6068 97.5601 60 97.5601C57.3932 97.5601 55.28 99.6733 55.28 102.28C55.28 104.887 57.3932 107 60 107Z" stroke="#00F2B3" stroke-width="2" stroke-linecap="round"/>
<path d="M102.28 64.7198C104.887 64.7198 107 62.6066 107 59.9998C107 57.393 104.887 55.2798 102.28 55.2798C99.6732 55.2798 97.56 57.393 97.56 59.9998C97.56 62.6066 99.6732 64.7198 102.28 64.7198Z" stroke="#00F2B3" stroke-width="2" stroke-linecap="round"/>
<path d="M89.89 34.8301C92.4968 34.8301 94.61 32.7169 94.61 30.1101C94.61 27.5034 92.4968 25.3901 89.89 25.3901C87.2832 25.3901 85.17 27.5034 85.17 30.1101C85.17 32.7169 87.2832 34.8301 89.89 34.8301Z" stroke="white" stroke-width="2" stroke-linecap="round"/>
<path d="M30.11 94.6099C32.7168 94.6099 34.83 92.4967 34.83 89.8899C34.83 87.2831 32.7168 85.1699 30.11 85.1699C27.5032 85.1699 25.39 87.2831 25.39 89.8899C25.39 92.4967 27.5032 94.6099 30.11 94.6099Z" stroke="white" stroke-width="2" stroke-linecap="round"/>
<path d="M89.89 94.6099C92.4968 94.6099 94.61 92.4967 94.61 89.8899C94.61 87.2831 92.4968 85.1699 89.89 85.1699C87.2832 85.1699 85.17 87.2831 85.17 89.8899C85.17 92.4967 87.2832 94.6099 89.89 94.6099Z" stroke="white" stroke-width="2" stroke-linecap="round"/>
<path d="M33.62 26.9501C37.95 23.5001 42.92 20.9301 48.24 19.3901" stroke="white" stroke-width="2" stroke-linecap="round"/>
<path d="M17.97 55.3001C18.84 47.3701 21.96 39.8401 26.95 33.6201" stroke="white" stroke-width="2" stroke-linecap="round"/>
<path d="M40.64 34.4702L97.93 58.2002" stroke="#00F2B3" stroke-width="2" stroke-linecap="round"/>
<path d="M22.07 61.7998L81.14 86.2798" stroke="white" stroke-width="2" stroke-linecap="round"/>
<path d="M61.8 22.0698L88.1 85.5498" stroke="white" stroke-width="2" stroke-linecap="round"/>
<path d="M33.43 86.5699L83.33 37.1499" stroke="white" stroke-width="2" stroke-linecap="round"/>
<path d="M31.97 34.4102L58.2 97.9302" stroke="#00F2B3" stroke-width="2" stroke-linecap="round"/>
<path d="M17.72 64.7198C20.3268 64.7198 22.44 62.6066 22.44 59.9998C22.44 57.393 20.3268 55.2798 17.72 55.2798C15.1132 55.2798 13 57.393 13 59.9998C13 62.6066 15.1132 64.7198 17.72 64.7198Z" stroke="white" stroke-width="2" stroke-linecap="round"/>
<path d="M30.11 34.8301C32.7168 34.8301 34.83 32.7169 34.83 30.1101C34.83 27.5034 32.7168 25.3901 30.11 25.3901C27.5032 25.3901 25.39 27.5034 25.39 30.1101C25.39 32.7169 27.5032 34.8301 30.11 34.8301Z" stroke="#00F2B3" stroke-width="2" stroke-linecap="round"/>
</g>
<defs>
<clipPath id="clip0_47_2468">
<rect width="96" height="96" fill="white" transform="translate(12 12)"/>
</clipPath>
</defs>
</svg>
