<svg width="120" height="120" viewBox="0 0 120 120" fill="none" xmlns="http://www.w3.org/2000/svg">
<g clip-path="url(#clip0_47_2179)">
<path d="M73.77 101.19V79.04" stroke="#00F2B3" stroke-width="2" stroke-linecap="round" stroke-linejoin="round"/>
<path d="M51.63 79.04V101.19" stroke="#00F2B3" stroke-width="2" stroke-linecap="round" stroke-linejoin="round"/>
<path d="M42.65 92.21L51.61 101.19L60.59 92.21" stroke="#00F2B3" stroke-width="2" stroke-linecap="round" stroke-linejoin="round"/>
<path d="M82.75 87.99L73.77 79.04L64.81 87.99" stroke="#00F2B3" stroke-width="2" stroke-linecap="round" stroke-linejoin="round"/>
<path d="M29.06 85.89C17.45 85.91 8.02001 76.52 8.00001 64.92C7.98001 55.89 13.73 47.85 22.29 44.96C26.59 35.13 37.22 29.68 47.71 31.93C53.37 23.82 62.65 18.99 72.54 19C88.47 19.16 101.63 31.49 102.81 47.38C112.47 53.81 115.09 66.86 108.66 76.52C104.77 82.37 98.21 85.89 91.18 85.89" stroke="white" stroke-width="2" stroke-linecap="round"/>
</g>
<defs>
<clipPath id="clip0_47_2179">
<rect width="106.19" height="84.19" fill="white" transform="translate(7 18)"/>
</clipPath>
</defs>
</svg>
