<svg width="120" height="120" viewBox="0 0 120 120" fill="none" xmlns="http://www.w3.org/2000/svg">
<path d="M104.5 21H14.8343C13.2689 21 12 22.2689 12 23.8343V81.0633C12 82.6286 13.2689 83.8975 14.8343 83.8975H104.5C106.065 83.8975 107.334 82.6286 107.334 81.0633V23.8343C107.334 22.2689 106.065 21 104.5 21Z" stroke="white" stroke-width="2.5" stroke-linecap="round"/>
<path d="M59.6671 83.8965V99.4992" stroke="white" stroke-width="2.5" stroke-linecap="round"/>
<path d="M34.3591 99.5H84.9749" stroke="white" stroke-width="2.5" stroke-linecap="round"/>
<path d="M12 68.5811H98.8312" stroke="white" stroke-width="2.5" stroke-linecap="round"/>
<path d="M62.8734 58.1879H41.5449C40.457 58.1879 39.5123 57.2717 39.5123 56.1552V34.5405C39.5123 33.4526 40.4284 32.5078 41.5449 32.5078H76.8443C77.9321 32.5078 78.8769 33.4239 78.8769 34.5405V44.3888" stroke="white" stroke-width="2.25" stroke-linecap="round"/>
<path d="M40.457 32.9385L59.3806 46.7948L77.7031 33.1102" stroke="white" stroke-width="2.25" stroke-linecap="round"/>
<path d="M72.7241 61.88H72.6454C71.1757 61.3814 69.7848 60.6466 68.5776 59.6756C67.5017 58.8358 66.242 57.4974 66.242 55.949V49.152C66.242 49.152 66.3207 48.9158 66.4519 48.8633L72.6716 47H72.8291L79.0488 48.8633C79.0488 48.8633 79.2587 49.0207 79.2587 49.152V55.949C79.2587 58.6783 75.086 61.1189 72.8553 61.8275L72.7766 61.88H72.7241Z" stroke="#00F2B3" stroke-width="2.15" stroke-linecap="round"/>
<path d="M69.2075 54.6101L71.5431 56.9195L76.2144 52.2744" stroke="white" stroke-width="2.15" stroke-linecap="round"/>
</svg>
