<svg width="120" height="120" viewBox="0 0 120 120" fill="none" xmlns="http://www.w3.org/2000/svg">
<g clip-path="url(#clip0_47_905)">
<path d="M80.4601 95.6003C74.0701 91.7303 66.4701 91.3603 58.1901 91.3603H57.0001C56.2701 91.3703 55.6801 91.9603 55.6701 92.6903V100.2L41.8401 87.4003L55.6701 75.0703V81.3703C55.6801 82.1003 56.2701 82.6903 57.0001 82.7003H58.1001C76.5001 82.7003 80.3201 95.3803 80.4601 95.6203V95.6003Z" stroke="#2006F7" stroke-width="2.5" stroke-linecap="round"/>
<path d="M29.0601 84.89C17.4501 84.91 8.02005 75.52 8.00005 63.92C7.98005 54.89 13.7301 46.85 22.2901 43.96C26.5901 34.13 37.2201 28.68 47.7101 30.93C53.3701 22.82 62.6501 17.99 72.5401 18C88.4701 18.16 101.63 30.49 102.81 46.38C112.47 52.81 115.09 65.86 108.66 75.52C104.77 81.37 98.2101 84.89 91.1801 84.89" stroke="#2006F7" stroke-width="2.5" stroke-linecap="round"/>
</g>
<defs>
<clipPath id="clip0_47_905">
<rect width="106.19" height="85.48" fill="white" transform="translate(7 17)"/>
</clipPath>
</defs>
</svg>
