<svg width="120" height="120" viewBox="0 0 120 120" fill="none" xmlns="http://www.w3.org/2000/svg">
<g clip-path="url(#clip0_47_2955)">
<path d="M73.78 20.3799V60.3699C73.8 67.7999 67.8 73.8299 60.37 73.8499C60.35 73.8499 60.33 73.8499 60.31 73.8499C52.88 73.8599 46.86 67.8499 46.85 60.4199C46.85 60.3999 46.85 60.3799 46.85 60.3599V52.0299L52.25 57.4099" stroke="#00F2B3" stroke-width="2" stroke-linecap="round" stroke-linejoin="round"/>
<path d="M94.3 85.66C108.28 66.89 104.39 40.35 85.63 26.38C83.65 24.91 81.55 23.61 79.34 22.5" stroke="white" stroke-width="2" stroke-linecap="round" stroke-linejoin="round"/>
<path d="M68.24 18.74C65.63 18.25 62.98 18 60.32 18C36.92 18.03 17.97 37.01 18 60.41C18.03 83.81 37.01 102.75 60.41 102.73C65.34 102.73 70.23 101.86 74.87 100.17" stroke="white" stroke-width="2" stroke-linecap="round" stroke-linejoin="round"/>
<path d="M86.92 91.1602L92.02 100.98L88.78 102.73L83.34 92.6402L78.55 97.2002V76.2202L93.55 91.1602H86.92Z" stroke="white" stroke-width="2" stroke-linecap="round" stroke-linejoin="round"/>
</g>
<defs>
<clipPath id="clip0_47_2955">
<rect width="86.69" height="86.73" fill="white" transform="translate(17 17)"/>
</clipPath>
</defs>
</svg>
