<svg width="120" height="120" viewBox="0 0 120 120" fill="none" xmlns="http://www.w3.org/2000/svg">
<g clip-path="url(#clip0_47_2390)">
<path d="M20.99 29.98C25.955 29.98 29.98 25.955 29.98 20.99C29.98 16.025 25.955 12 20.99 12C16.025 12 12 16.025 12 20.99C12 25.955 16.025 29.98 20.99 29.98Z" stroke="white" stroke-width="2" stroke-linecap="round" stroke-linejoin="round"/>
<path d="M64.14 49.56C69.1051 49.56 73.13 45.5351 73.13 40.57C73.13 35.605 69.1051 31.58 64.14 31.58C59.175 31.58 55.15 35.605 55.15 40.57C55.15 45.5351 59.175 49.56 64.14 49.56Z" stroke="#00F2B3" stroke-width="2" stroke-linecap="round" stroke-linejoin="round"/>
<path d="M64.14 88.34C69.1051 88.34 73.13 84.315 73.13 79.35C73.13 74.3849 69.1051 70.36 64.14 70.36C59.175 70.36 55.15 74.3849 55.15 79.35C55.15 84.315 59.175 88.34 64.14 88.34Z" stroke="white" stroke-width="2" stroke-linecap="round" stroke-linejoin="round"/>
<path d="M99.01 68.97C103.975 68.97 108 64.945 108 59.98C108 55.0149 103.975 50.99 99.01 50.99C94.045 50.99 90.02 55.0149 90.02 59.98C90.02 64.945 94.045 68.97 99.01 68.97Z" stroke="white" stroke-width="2" stroke-linecap="round" stroke-linejoin="round"/>
<path d="M20.99 68.97C25.955 68.97 29.98 64.945 29.98 59.98C29.98 55.0149 25.955 50.99 20.99 50.99C16.025 50.99 12 55.0149 12 59.98C12 64.945 16.025 68.97 20.99 68.97Z" stroke="#00F2B3" stroke-width="2" stroke-linecap="round" stroke-linejoin="round"/>
<path d="M20.99 107.96C25.955 107.96 29.98 103.935 29.98 98.97C29.98 94.005 25.955 89.98 20.99 89.98C16.025 89.98 12 94.005 12 98.97C12 103.935 16.025 107.96 20.99 107.96Z" stroke="white" stroke-width="2" stroke-linecap="round" stroke-linejoin="round"/>
<path d="M71.23 46.09L85.54 53.25" stroke="white" stroke-width="2" stroke-linecap="round" stroke-linejoin="round"/>
<path d="M29.02 25L55.47 38.22" stroke="white" stroke-width="2" stroke-linecap="round" stroke-linejoin="round"/>
<path d="M55.47 81.74L29.02 94.97" stroke="white" stroke-width="2" stroke-linecap="round" stroke-linejoin="round"/>
<path d="M85.54 66.72L71.25 73.87" stroke="white" stroke-width="2" stroke-linecap="round" stroke-linejoin="round"/>
<path d="M54.55 44.88L30.55 55.67" stroke="#00F2B3" stroke-width="2" stroke-linecap="round" stroke-linejoin="round"/>
<path d="M54.55 75.05L30.57 64.29" stroke="white" stroke-width="2" stroke-linecap="round" stroke-linejoin="round"/>
<path d="M30.67 34.08L58.75 72.07" stroke="white" stroke-width="2" stroke-linecap="round" stroke-linejoin="round"/>
<path d="M58.8 47.8L30.67 85.84" stroke="#00F2B3" stroke-width="2" stroke-linecap="round" stroke-linejoin="round"/>
</g>
<defs>
<clipPath id="clip0_47_2390">
<rect width="98" height="97.96" fill="white" transform="translate(11 11)"/>
</clipPath>
</defs>
</svg>
