<svg width="120" height="120" viewBox="0 0 120 120" fill="none" xmlns="http://www.w3.org/2000/svg">
<g clip-path="url(#clip0_47_286)">
<path d="M29.06 85.89C17.45 85.91 8.02001 76.52 8.00001 64.92C7.98001 55.89 13.73 47.85 22.29 44.96C26.59 35.13 37.22 29.68 47.71 31.93C53.37 23.82 62.65 18.99 72.54 19C88.47 19.16 101.63 31.49 102.81 47.38C112.47 53.81 115.09 66.86 108.66 76.52C104.77 82.37 98.21 85.89 91.18 85.89" stroke="white" stroke-width="2" stroke-linecap="round"/>
<path d="M79.3098 67.3799H41.7798V101.19H79.3098V67.3799Z" stroke="#00F2B3" stroke-width="2" stroke-linecap="round"/>
<path d="M41.7798 75.5H75.7298" stroke="#00F2B3" stroke-width="2" stroke-linecap="round"/>
<path d="M46.1099 71.02V71.69" stroke="#00F2B3" stroke-width="2" stroke-linecap="round"/>
<path d="M49.23 71.02V71.69" stroke="#00F2B3" stroke-width="2" stroke-linecap="round"/>
<path d="M52.3599 71.02V71.69" stroke="#00F2B3" stroke-width="2" stroke-linecap="round"/>
</g>
<defs>
<clipPath id="clip0_47_286">
<rect width="106.19" height="84.19" fill="white" transform="translate(7 18)"/>
</clipPath>
</defs>
</svg>
