<svg width="120" height="120" viewBox="0 0 120 120" fill="none" xmlns="http://www.w3.org/2000/svg">
<g clip-path="url(#clip0_47_2625)">
<path d="M74.15 60.78C84.02 52.56 84.38 41.59 84.38 41.59C75.43 16.92 63.19 14 60.08 14C56.97 14 44.55 16.92 35.78 41.59C35.78 41.59 36.15 52.55 46.01 60.78" stroke="white" stroke-width="2" stroke-linecap="round" stroke-linejoin="round"/>
<path d="M42.17 40.68C47.47 39.22 53.68 38.3 60.26 38.3C66.84 38.3 72.87 39.21 78.17 40.49" stroke="white" stroke-width="2" stroke-linecap="round" stroke-linejoin="round"/>
<path d="M35.59 58.04L30.47 60.42C30.47 60.42 26.82 62.06 25.54 67.18L19.69 89.11C19.69 89.11 16.4 98.8 27.55 101.9" stroke="white" stroke-width="2" stroke-linecap="round" stroke-linejoin="round"/>
<path d="M79.82 55.6602L89.69 60.4102C89.69 60.4102 93.34 62.0502 94.62 67.1702L100.47 89.1002C100.47 89.1002 103.76 98.9702 92.43 101.89" stroke="white" stroke-width="2" stroke-linecap="round" stroke-linejoin="round"/>
<path d="M86.94 69.1899H33.4V106.29H86.94V69.1899Z" stroke="#00F2B3" stroke-width="2" stroke-linecap="round" stroke-linejoin="round"/>
<path d="M100.28 96.23H112.16" stroke="white" stroke-width="2" stroke-linecap="round" stroke-linejoin="round"/>
<path d="M8 96.23H19.88" stroke="white" stroke-width="2" stroke-linecap="round" stroke-linejoin="round"/>
<path d="M72.32 39.77C72.32 50.55 66.84 59.32 60.08 59.32C53.32 59.32 47.84 50.55 47.84 39.77" stroke="white" stroke-width="2" stroke-linecap="round" stroke-linejoin="round"/>
<path d="M65.74 87.8299C65.74 90.9399 63.18 93.4899 60.08 93.4899C56.98 93.4899 54.42 90.9299 54.42 87.8299C54.42 84.7299 56.98 82.1699 60.08 82.1699C63.18 82.1699 65.74 84.7299 65.74 87.8299Z" stroke="white" stroke-width="2" stroke-linecap="round" stroke-linejoin="round"/>
</g>
<defs>
<clipPath id="clip0_47_2625">
<rect width="106.16" height="94.28" fill="white" transform="translate(7 13)"/>
</clipPath>
</defs>
</svg>
