<svg width="120" height="120" viewBox="0 0 120 120" fill="none" xmlns="http://www.w3.org/2000/svg">
<g clip-path="url(#clip0_47_2897)">
<path d="M48.48 31.4199C35.08 34.8899 27.03 48.5599 30.49 61.9599C32.77 70.7799 39.66 77.6699 48.48 79.9499" stroke="#2006F7" stroke-width="2.5" stroke-linecap="round" stroke-linejoin="round"/>
<path d="M61.14 79.9499C74.54 76.4799 82.59 62.8099 79.13 49.4099C76.85 40.5899 69.96 33.6999 61.14 31.4199" stroke="#2006F7" stroke-width="2.5" stroke-linecap="round" stroke-linejoin="round"/>
<path d="M44.59 41.5598L48.48 31.4198L38.35 27.5098" stroke="#2006F7" stroke-width="2.5" stroke-linecap="round" stroke-linejoin="round"/>
<path d="M65.05 69.8096L61.14 79.9496L71.27 83.8596" stroke="#2006F7" stroke-width="2.5" stroke-linecap="round" stroke-linejoin="round"/>
<path d="M55.22 100.44C80.1943 100.44 100.44 80.1943 100.44 55.22C100.44 30.2457 80.1943 10 55.22 10C30.2457 10 10 30.2457 10 55.22C10 80.1943 30.2457 100.44 55.22 100.44Z" stroke="#2006F7" stroke-width="2.5" stroke-linecap="round" stroke-linejoin="round"/>
<path d="M93.21 93.21L110 110" stroke="#2006F7" stroke-width="2.5" stroke-linecap="round" stroke-linejoin="round"/>
</g>
<defs>
<clipPath id="clip0_47_2897">
<rect width="102" height="102" fill="white" transform="translate(9 9)"/>
</clipPath>
</defs>
</svg>
