<svg width="120" height="120" viewBox="0 0 120 120" fill="none" xmlns="http://www.w3.org/2000/svg">
<g clip-path="url(#clip0_47_2815)">
<path d="M22.32 34.4502C11.97 49.8402 11.97 69.9702 22.32 85.3702" stroke="white" stroke-width="2" stroke-linecap="round" stroke-linejoin="round"/>
<path d="M25.63 43.25L22.28 33.98L13 37.31" stroke="white" stroke-width="2" stroke-linecap="round" stroke-linejoin="round"/>
<path d="M97.68 84.9102C108.03 69.5202 108.03 49.3802 97.68 33.9902" stroke="white" stroke-width="2" stroke-linecap="round" stroke-linejoin="round"/>
<path d="M94.37 76.1001L97.72 85.3701L107 82.0401" stroke="white" stroke-width="2" stroke-linecap="round" stroke-linejoin="round"/>
<path d="M85.42 22.3201C70.03 11.9701 49.9 11.9701 34.5 22.3201" stroke="white" stroke-width="2" stroke-linecap="round" stroke-linejoin="round"/>
<path d="M76.62 25.63L85.89 22.28L82.56 13" stroke="white" stroke-width="2" stroke-linecap="round" stroke-linejoin="round"/>
<path d="M34.97 97.4897C50.36 107.84 70.5 107.84 85.89 97.4897" stroke="white" stroke-width="2" stroke-linecap="round" stroke-linejoin="round"/>
<path d="M43.77 94.1899L34.5 97.5299L37.83 106.82" stroke="white" stroke-width="2" stroke-linecap="round" stroke-linejoin="round"/>
<path d="M56.04 86.1799C54.79 86.3499 53.65 85.4699 53.48 84.2299C53.45 84.0299 53.45 83.8199 53.48 83.6199V77.6299C51.47 76.9199 49.6 75.8499 47.98 74.4599L43.13 77.2799C42.68 77.5599 42.16 77.7299 41.63 77.7499C40.74 77.7299 39.94 77.1899 39.59 76.3699L35.49 69.1799C35.47 69.1199 35.44 69.0599 35.41 69.0099V68.8799C34.83 67.7599 35.26 66.3899 36.38 65.8099C36.44 65.7799 36.49 65.7499 36.55 65.7299L41.57 62.8299C41.41 62.0799 41.32 61.3199 41.31 60.5499V59.8899C41.31 58.7899 41.4 57.6899 41.59 56.6099L36.57 53.7899C35.97 53.4999 35.51 52.9899 35.28 52.3699C35.07 51.6699 35.18 50.8999 35.6 50.2999L39.8 43.0899C40.14 42.2799 40.91 41.7399 41.78 41.6899C42.3 41.7099 42.81 41.8699 43.26 42.1499L48.46 45.1499L53.6 42.1799V36.1699C53.43 34.9199 54.31 33.7799 55.55 33.6099C55.75 33.5799 55.96 33.5799 56.16 33.6099H64.22C65.47 33.4399 66.61 34.3199 66.78 35.5599C66.81 35.7599 66.81 35.9699 66.78 36.1699V42.2099C68.8 42.9099 70.66 43.9799 72.28 45.3799L77.12 42.5199C77.56 42.2199 78.09 42.0399 78.62 42.0199C79.49 42.1099 80.24 42.6799 80.57 43.4999L84.7 50.6799C85.49 51.6599 85.34 53.0899 84.36 53.8799C84.18 54.0299 83.97 54.1499 83.76 54.2299L78.73 57.0999C78.84 57.8299 78.92 58.5699 78.95 59.3099V59.9299C78.95 61.0299 78.86 62.1299 78.67 63.2099L83.7 66.0899C84.29 66.3599 84.77 66.8399 85.02 67.4499C85.17 68.1899 85.04 68.9599 84.64 69.5999L80.57 76.7299C80.21 77.5599 79.4 78.1099 78.5 78.1499C77.97 78.1199 77.45 77.9599 77 77.6799L71.8 74.6799L70.81 75.4799L70.25 75.8999C69.1 76.5999 67.88 77.1999 66.62 77.6799V83.6899C66.79 84.9399 65.91 86.0799 64.67 86.2499C64.47 86.2799 64.26 86.2799 64.06 86.2499L56.04 86.1999V86.1799Z" stroke="white" stroke-width="2" stroke-linecap="round"/>
<path d="M64.38 51.4798C59.75 49.0898 54.05 50.8998 51.66 55.5398C50.26 58.2598 50.26 61.4898 51.66 64.2098" stroke="#00F2B3" stroke-width="2" stroke-linecap="round"/>
<path d="M55.77 68.3101C60.4 70.7001 66.1 68.8901 68.49 64.2501C69.89 61.5301 69.89 58.3001 68.49 55.5801" stroke="#00F2B3" stroke-width="2" stroke-linecap="round"/>
</g>
<defs>
<clipPath id="clip0_47_2815">
<rect width="96" height="95.82" fill="white" transform="translate(12 12)"/>
</clipPath>
</defs>
</svg>
