<svg width="120" height="120" viewBox="0 0 120 120" fill="none" xmlns="http://www.w3.org/2000/svg">
<g clip-path="url(#clip0_47_170)">
<path d="M63.22 101.16L63.35 78.3101L108.1 78.4401L107.97 101.16H63.22Z" stroke="#2006F7" stroke-width="2.5" stroke-linecap="round"/>
<path d="M11.01 101.16L11.14 78.3101L55.89 78.4401L55.76 101.16H11.01Z" stroke="#2006F7" stroke-width="2.5" stroke-linecap="round"/>
<path d="M88.68 70.9999L88.81 48.1699L107.99 48.2999L107.86 70.9999H88.68Z" stroke="#2006F7" stroke-width="2.5" stroke-linecap="round"/>
<path d="M37.11 70.9999L37.24 48.1699L81.99 48.2999L81.86 70.9999H37.11Z" stroke="#2006F7" stroke-width="2.5" stroke-linecap="round"/>
<path d="M11.01 70.9999L11.14 48.1699L30.32 48.2999L30.19 70.9999H11.01Z" stroke="#2006F7" stroke-width="2.5" stroke-linecap="round"/>
<path d="M63.22 40.85L63.35 18L108.1 18.13L107.97 40.85H63.22Z" stroke="#2006F7" stroke-width="2.5" stroke-linecap="round"/>
<path d="M11.01 40.85L11.14 18L55.89 18.13L55.76 40.85H11.01Z" stroke="#2006F7" stroke-width="2.5" stroke-linecap="round"/>
</g>
<defs>
<clipPath id="clip0_47_170">
<rect width="99.11" height="85.16" fill="white" transform="translate(10 17)"/>
</clipPath>
</defs>
</svg>
