<svg width="120" height="120" viewBox="0 0 120 120" fill="none" xmlns="http://www.w3.org/2000/svg">
<g clip-path="url(#clip0_47_1599)">
<path d="M38.49 104.31L42.15 87.5H78.82L82.49 104.31" stroke="#2006F7" stroke-width="2.5" stroke-linecap="round" stroke-linejoin="round"/>
<path d="M75.16 84.1404C75.16 82.1504 73.78 80.4704 71.49 80.4704C67.82 80.4704 64.16 76.8004 64.16 71.3004C64.16 60.3004 82.49 58.4704 82.49 30.8104V16.1504H38.49V30.8204C38.49 58.4704 56.82 60.3104 56.82 71.3104C56.82 76.8104 53.15 80.4804 49.49 80.4804C47.2 80.4804 45.82 82.1604 45.82 84.1504" stroke="#2006F7" stroke-width="2.5" stroke-linecap="round" stroke-linejoin="round"/>
<path d="M34.6699 104.311H86.3099" stroke="#2006F7" stroke-width="2.5" stroke-linecap="round" stroke-linejoin="round"/>
<path d="M34.67 22.42C32.53 21.2 31 18.75 31 16H20C20 40.45 33.9 51.29 42.31 55.72" stroke="#2006F7" stroke-width="2.5" stroke-linecap="round" stroke-linejoin="round"/>
<path d="M86.92 21.9604C88.75 20.5804 89.82 18.4504 89.82 16.1504H100.82C100.82 40.6004 86.92 51.4404 78.51 55.8704" stroke="#2006F7" stroke-width="2.5" stroke-linecap="round" stroke-linejoin="round"/>
</g>
<defs>
<clipPath id="clip0_47_1599">
<rect width="82.82" height="90.31" fill="white" transform="translate(19 15)"/>
</clipPath>
</defs>
</svg>
