<svg width="120" height="120" viewBox="0 0 120 120" fill="none" xmlns="http://www.w3.org/2000/svg">
<path d="M59.1436 79.3248C62.4715 79.3248 65.1692 76.627 65.1692 73.2991C65.1692 69.9712 62.4715 67.2734 59.1436 67.2734C55.8157 67.2734 53.1179 69.9712 53.1179 73.2991C53.1179 76.627 55.8157 79.3248 59.1436 79.3248Z" stroke="#2006F7" stroke-width="2.5" stroke-linecap="round" stroke-linejoin="round"/>
<path d="M65.2591 72.2198L85.9442 68.3525" stroke="#2006F7" stroke-width="2.5" stroke-linecap="round" stroke-linejoin="round"/>
<path d="M78.4795 41.1918C60.7622 30.8493 38.0086 36.785 27.666 54.4123C22.2699 63.6756 21.1007 74.7377 24.4283 84.9004" stroke="#2006F7" stroke-width="2.5" stroke-linecap="round"/>
<path d="M95.1177 84.901C99.0748 72.8497 96.6466 59.6292 88.6423 49.7363" stroke="#2006F7" stroke-width="2.5" stroke-linecap="round"/>
<path d="M103.032 96.7723C115.983 72.8496 107.169 42.991 83.2461 30.0404C59.3234 17.0897 29.4648 25.9033 16.5142 49.8261C8.50993 64.4856 8.50993 82.2028 16.5142 96.8623H103.032V96.7723Z" stroke="#2006F7" stroke-width="2.5" stroke-linecap="round" stroke-linejoin="round"/>
</svg>
