<svg width="120" height="120" viewBox="0 0 120 120" fill="none" xmlns="http://www.w3.org/2000/svg">
<path d="M47.63 84.2499L57.61 70.4399H90.42L76.61 92.8899H62.8" stroke="#2006F7" stroke-width="2.5" stroke-linecap="round"/>
<path d="M26.54 99.79H92.15" stroke="#2006F7" stroke-width="2.5" stroke-linecap="round"/>
<path d="M29.13 65.2498C23.52 65.2498 19.63 60.9398 19.63 55.6298V52.4198C19.63 47.1098 23.51 42.7998 29.13 42.7998C34.75 42.7998 38.63 47.1098 38.63 52.4198V55.6298C38.63 60.9398 34.75 65.2498 29.13 65.2498Z" stroke="#2006F7" stroke-width="2.5" stroke-linecap="round"/>
<path d="M24.81 87.6999L35.17 99.7899H48.98C55.89 99.7899 55.89 91.1599 55.89 91.1599H42.08L28.73 74.8399C27.35 73.1499 25.27 72.1699 23.09 72.1699C17.97 72.1699 14.24 75.3499 13.33 81.9299C12.54 87.5999 11 99.7999 11 99.7999" stroke="#2006F7" stroke-width="2.5" stroke-linecap="round"/>
<path d="M54.7599 65.7501C52.3899 62.0301 50.8199 57.7201 50.2999 53.0401C48.4999 36.7001 60.2899 21.9901 76.6299 20.1801C92.9699 18.3801 107.68 30.1701 109.49 46.5101C110.92 59.5101 103.76 71.4701 92.5499 76.7301" stroke="#2006F7" stroke-width="2.5" stroke-linecap="round" stroke-linejoin="round"/>
<path d="M62.0346 56.3035C64.8151 56.3035 67.0691 54.0494 67.0691 51.2689C67.0691 48.4884 64.8151 46.2344 62.0346 46.2344C59.2541 46.2344 57 48.4884 57 51.2689C57 54.0494 59.2541 56.3035 62.0346 56.3035Z" stroke="#2006F7" stroke-width="2.5" stroke-linecap="round"/>
<path d="M80 44.0691C82.7805 44.0691 85.0345 41.8151 85.0345 39.0346C85.0345 36.2541 82.7805 34 80 34C77.2194 34 74.9654 36.2541 74.9654 39.0346C74.9654 41.8151 77.2194 44.0691 80 44.0691Z" stroke="#2006F7" stroke-width="2.5" stroke-linecap="round"/>
<path d="M97.9655 56.3035C100.746 56.3035 103 54.0494 103 51.2689C103 48.4884 100.746 46.2344 97.9655 46.2344C95.185 46.2344 92.9309 48.4884 92.9309 51.2689C92.9309 54.0494 95.185 56.3035 97.9655 56.3035Z" stroke="#2006F7" stroke-width="2.5" stroke-linecap="round"/>
<path d="M66.3499 48.3389L75.677 41.9644" stroke="#2006F7" stroke-width="2.5" stroke-linecap="round"/>
<path d="M93.6728 48.3389L84.3154 41.9644" stroke="#2006F7" stroke-width="2.5" stroke-linecap="round"/>
</svg>
