<svg width="120" height="120" viewBox="0 0 120 120" fill="none" xmlns="http://www.w3.org/2000/svg">
<path d="M59.1435 79.3257C62.4714 79.3257 65.1692 76.628 65.1692 73.3001C65.1692 69.9722 62.4714 67.2744 59.1435 67.2744C55.8156 67.2744 53.1178 69.9722 53.1178 73.3001C53.1178 76.628 55.8156 79.3257 59.1435 79.3257Z" stroke="white" stroke-width="2" stroke-linecap="round" stroke-linejoin="round"/>
<path d="M65.259 72.2207L85.9441 68.3535" stroke="white" stroke-width="2" stroke-linecap="round" stroke-linejoin="round"/>
<path d="M78.4795 41.1928C60.7623 30.8502 38.0087 36.786 27.6661 54.4133C22.27 63.6766 21.1008 74.7386 24.4284 84.9013" stroke="#00F2B3" stroke-width="2" stroke-linecap="round"/>
<path d="M95.1176 84.901C99.0748 72.8497 96.6465 59.6292 88.6423 49.7363" stroke="#00F2B3" stroke-width="2" stroke-linecap="round"/>
<path d="M103.032 96.7723C115.983 72.8496 107.169 42.991 83.2461 30.0404C59.3234 17.0897 29.4648 25.9033 16.5142 49.8261C8.50993 64.4856 8.50993 82.2028 16.5142 96.8623H103.032V96.7723Z" stroke="white" stroke-width="2" stroke-linecap="round" stroke-linejoin="round"/>
</svg>
