<svg width="120" height="120" viewBox="0 0 120 120" fill="none" xmlns="http://www.w3.org/2000/svg">
<g clip-path="url(#clip0_47_2077)">
<path d="M91.14 86.1103C92.34 85.0603 93.39 83.8603 94.27 82.5303C100.26 82.3303 104.96 77.3203 104.76 71.3303C104.67 68.7003 103.63 66.1903 101.84 64.2703C107.45 62.0603 110.2 55.7203 107.98 50.1103C106.35 45.9703 102.37 43.2403 97.92 43.2003C97.45 43.2203 96.98 43.2603 96.51 43.3403C96.15 32.4903 87.06 23.9903 76.21 24.3503C73.13 24.4503 70.13 25.2803 67.43 26.7503C64.21 19.9803 56.11 17.1103 49.34 20.3303C45.95 21.9403 43.38 24.8903 42.24 28.4703C37.35 24.9803 30.56 26.1203 27.07 31.0003C25.74 32.8603 25.03 35.1003 25.05 37.3903C25.05 38.2203 25.16 39.0503 25.36 39.8503C24.71 39.7303 24.06 39.6703 23.4 39.6503C17.39 39.6203 12.5 44.4703 12.48 50.4803C12.47 53.0703 13.38 55.5703 15.05 57.5503C10.37 61.3203 9.64 68.1603 13.4 72.8403C15.47 75.4003 18.58 76.8903 21.87 76.8903C24.31 82.3803 30.74 84.8503 36.23 82.4103C38.6 81.3603 40.51 79.4903 41.63 77.1503C41.96 83.5403 47.4 88.4503 53.78 88.1203C58.12 87.9003 61.96 85.2703 63.75 81.3103C66.9 87.0003 72.9 90.5203 79.4 90.5003C81.59 90.5103 83.76 90.1103 85.8 89.3303" stroke="white" stroke-width="2" stroke-linecap="round" stroke-linejoin="round"/>
<path d="M32.36 58.29L41.6 67.52V77.15" stroke="#00F2B3" stroke-width="2" stroke-linecap="round" stroke-linejoin="round"/>
<path d="M63.27 30.9502L56.19 38.0502" stroke="#00F2B3" stroke-width="2" stroke-linecap="round" stroke-linejoin="round"/>
<path d="M101.78 64.26L96.52 59H86.62" stroke="#00F2B3" stroke-width="2" stroke-linecap="round" stroke-linejoin="round"/>
<path d="M83.73 73.7202H71.38L63.8 81.3102L54.9 72.3902V55.9502" stroke="#00F2B3" stroke-width="2" stroke-linecap="round" stroke-linejoin="round"/>
<path d="M56.19 38.0508H43.28" stroke="#00F2B3" stroke-width="2" stroke-linecap="round" stroke-linejoin="round"/>
<path d="M80.52 90.5104L91.08 101.07V86.1104" stroke="white" stroke-width="2" stroke-linecap="round" stroke-linejoin="round"/>
<path d="M96.4 43.3301H81.44L73.2 51.5401" stroke="#00F2B3" stroke-width="2" stroke-linecap="round" stroke-linejoin="round"/>
</g>
<defs>
<clipPath id="clip0_47_2077">
<rect width="99.75" height="84.07" fill="white" transform="translate(10 18)"/>
</clipPath>
</defs>
</svg>
