<svg width="120" height="120" viewBox="0 0 120 120" fill="none" xmlns="http://www.w3.org/2000/svg">
<path d="M64.0408 100.018H11V14H101.332V63.5107" stroke="#2006F7" stroke-width="2.5" stroke-linecap="round"/>
<path d="M11 34.6689H92.7033" stroke="#2006F7" stroke-width="2.5" stroke-linecap="round"/>
<path d="M21.8917 26.3706C23.1248 26.3706 24.1244 25.371 24.1244 24.1379C24.1244 22.9049 23.1248 21.9053 21.8917 21.9053C20.6587 21.9053 19.6591 22.9049 19.6591 24.1379C19.6591 25.371 20.6587 26.3706 21.8917 26.3706Z" fill="#2006F7"/>
<path d="M29.7966 26.3706C31.0296 26.3706 32.0292 25.371 32.0292 24.1379C32.0292 22.9049 31.0296 21.9053 29.7966 21.9053C28.5635 21.9053 27.5639 22.9049 27.5639 24.1379C27.5639 25.371 28.5635 26.3706 29.7966 26.3706Z" fill="#2006F7"/>
<path d="M37.6711 26.3706C38.9042 26.3706 39.9038 25.371 39.9038 24.1379C39.9038 22.9049 38.9042 21.9053 37.6711 21.9053C36.4381 21.9053 35.4385 22.9049 35.4385 24.1379C35.4385 25.371 36.4381 26.3706 37.6711 26.3706Z" fill="#2006F7"/>
<path d="M88.6603 111.392H88.419C84.0442 109.913 79.9711 107.711 76.3505 104.875C73.1826 102.401 69.4112 98.418 69.4112 93.8622V73.6777C69.4112 73.2855 69.6827 72.9536 70.0448 72.8631L88.4793 67.3418H88.962L107.397 72.8631C107.759 72.9838 108 73.3157 108 73.6777V93.8622C108 101.948 95.5997 109.189 88.962 111.271L88.7207 111.422L88.6603 111.392Z" stroke="#2006F7" stroke-width="2.5" stroke-linecap="round"/>
<path d="M78.2815 89.79L85.2208 96.7294L99.0694 82.8809" stroke="#2006F7" stroke-width="2.5" stroke-linecap="round"/>
<path d="M26.9304 75.4876L38.0937 64.2942L26.9304 53.1309" stroke="#2006F7" stroke-width="2.5" stroke-linecap="round"/>
<path d="M38.0936 75.4883H62.0494" stroke="#2006F7" stroke-width="2.5" stroke-linecap="round"/>
</svg>
