<svg width="120" height="120" viewBox="0 0 120 120" fill="none" xmlns="http://www.w3.org/2000/svg">
<g clip-path="url(#clip0_47_2310)">
<path d="M52.54 108.52C50.19 108.77 48.08 107.07 47.83 104.72C47.8 104.42 47.8 104.12 47.83 103.82V92.82C44.14 91.51 40.72 89.54 37.73 87L28.83 92.18C28 92.71 27.04 93.02 26.05 93.06C24.46 92.97 23.04 91.99 22.39 90.54L14.77 77.38C14.74 77.26 14.69 77.15 14.62 77.06V76.82C13.55 74.82 14.3 72.33 16.29 71.26C16.44 71.18 16.6 71.11 16.76 71.05L25.72 65.57C25.45 64.22 25.29 62.86 25.25 61.48V60.26C25.24 58.27 25.4 56.28 25.72 54.31L16.52 49.13C15.42 48.6 14.57 47.65 14.17 46.5C13.78 45.22 14 43.83 14.75 42.71L22.47 29.47C23.11 28 24.51 27.01 26.11 26.9C27.07 26.94 28.01 27.22 28.83 27.73L38.39 33.23L47.82 27.75V16.73C47.57 14.38 49.27 12.27 51.62 12.02C51.92 11.99 52.22 11.99 52.52 12.02H67.32C69.67 11.77 71.78 13.47 72.03 15.82C72.06 16.12 72.06 16.42 72.03 16.72V27.8C75.74 29.06 79.17 31.04 82.13 33.62L91.03 28.36C91.85 27.81 92.8 27.5 93.79 27.46C95.43 27.56 96.87 28.59 97.49 30.11L105.08 43.29C106.48 45.19 106.08 47.87 104.18 49.27C103.95 49.44 103.71 49.58 103.45 49.7L94.17 54.94C94.37 56.29 94.5 57.64 94.56 59V60.24C94.6 62.23 94.47 64.22 94.17 66.19L103.41 71.47C104.49 71.98 105.35 72.86 105.83 73.95C106.08 74.89 106.02 75.88 105.66 76.77C105.56 77.18 105.38 77.56 105.15 77.9L97.56 91.08C96.88 92.54 95.46 93.51 93.86 93.63C92.88 93.59 91.93 93.28 91.1 92.75L81.54 87.25L79.72 88.7L78.69 89.47C76.57 90.77 74.34 91.86 72.02 92.74V103.78C72.27 106.13 70.57 108.24 68.22 108.49C67.92 108.52 67.62 108.52 67.32 108.49H52.54V108.52Z" stroke="white" stroke-width="2" stroke-linecap="round" stroke-linejoin="round"/>
<path d="M52.61 49.54H75.45" stroke="#00F2B3" stroke-width="2" stroke-linecap="round" stroke-linejoin="round"/>
<path d="M52.61 60.2598H75.45" stroke="#00F2B3" stroke-width="2" stroke-linecap="round" stroke-linejoin="round"/>
<path d="M52.61 70.98H75.45" stroke="#00F2B3" stroke-width="2" stroke-linecap="round" stroke-linejoin="round"/>
<path d="M47.07 49.54H44.48" stroke="#00F2B3" stroke-width="2" stroke-linecap="round" stroke-linejoin="round"/>
<path d="M47.07 60.2598H44.48" stroke="#00F2B3" stroke-width="2" stroke-linecap="round" stroke-linejoin="round"/>
<path d="M47.07 70.98H44.48" stroke="#00F2B3" stroke-width="2" stroke-linecap="round" stroke-linejoin="round"/>
</g>
<defs>
<clipPath id="clip0_47_2310">
<rect width="94" height="98.55" fill="white" transform="translate(13 11)"/>
</clipPath>
</defs>
</svg>
