<?xml version="1.0" encoding="UTF-8"?>
<svg id="Layer_1" xmlns="http://www.w3.org/2000/svg" version="1.1" viewBox="0 0 120 120">
  <!-- Generator: Adobe Illustrator 29.7.1, SVG Export Plug-In . SVG Version: 2.1.1 Build 8)  -->
  <defs>
    <style>
      .st0 {
        fill: none;
        stroke: #2006f7;
        stroke-linecap: round;
        stroke-linejoin: round;
        stroke-width: 2.5px;
      }
    </style>
  </defs>
  <path class="st0" d="M104.7,23H14.8c-1.6,0-2.8,1.3-2.8,2.8v57.3c0,1.6,1.3,2.8,2.8,2.8h89.8c1.6,0,2.8-1.3,2.8-2.8V25.8c0-1.6-1.3-2.8-2.8-2.8Z"/>
  <path class="st0" d="M59.7,86v15.6"/>
  <path class="st0" d="M34.4,101.6h50.7"/>
  <path class="st0" d="M12,70.7h87"/>
  <path class="st0" d="M76.3,49.2c1.5-9.5-5-18.5-14.6-20-9.5-1.5-18.5,5-20,14.6-1.5,9.5,5,18.5,14.6,20,.9.1,1.8.2,2.7.2s2.5-.1,3.7-.4"/>
  <path class="st0" d="M67.3,46.5c0-9.7-3.7-17.5-8.3-17.5s-8.3,7.8-8.3,17.5,3.7,17.5,8.3,17.5"/>
  <path class="st0" d="M59,29v35"/>
  <path class="st0" d="M43.9,37.8h30.3"/>
  <path class="st0" d="M41.5,46.5h35"/>
  <path class="st0" d="M43.9,55.2h15.1"/>
  <path class="st0" d="M71,66h0c-1.5-.5-2.9-1.3-4.1-2.2-1.1-.9-2.4-2.2-2.4-3.7v-6.9s0-.2.2-.3l6.3-1.9h.2l6.3,1.9s.2.2.2.3v6.9c0,2.8-4.2,5.2-6.5,5.9h0c0,0,0,0,0,0Z"/>
  <path class="st0" d="M67.5,58.6l2.4,2.4,4.7-4.7"/>
</svg>