<svg width="120" height="120" viewBox="0 0 120 120" fill="none" xmlns="http://www.w3.org/2000/svg">
<g clip-path="url(#clip0_47_2036)">
<path d="M84.79 20.66C88.27 47.28 73.45 72.93 48.64 83.21" stroke="white" stroke-width="2" stroke-linecap="round" stroke-linejoin="round"/>
<path d="M65.76 18.01C71.44 39.79 58.57 62.09 36.86 68.06" stroke="white" stroke-width="2" stroke-linecap="round" stroke-linejoin="round"/>
<path d="M47.23 19.98C51.88 31.76 46.1 45.09 34.31 49.74C32.7 50.37 31.03 50.83 29.32 51.08" stroke="white" stroke-width="2" stroke-linecap="round" stroke-linejoin="round"/>
<path d="M96.59 69.19L106.35 74.83" stroke="#00F2B3" stroke-width="2" stroke-linecap="round" stroke-linejoin="round"/>
<path d="M25.95 28.4L89.7 65.2" stroke="#00F2B3" stroke-width="2" stroke-linecap="round" stroke-linejoin="round"/>
<path d="M95.04 63.69C100.63 52.76 103.53 40.66 103.51 28.39C79.52 14.53 49.95 14.53 25.95 28.4C25.92 56.1 40.67 81.71 64.63 95.59C75.28 89.45 84.33 80.88 91.05 70.58" stroke="white" stroke-width="2" stroke-linecap="round" stroke-linejoin="round"/>
<path d="M93.14 71.17C95.3381 71.17 97.12 69.3881 97.12 67.19C97.12 64.9919 95.3381 63.21 93.14 63.21C90.9419 63.21 89.16 64.9919 89.16 67.19C89.16 69.3881 90.9419 71.17 93.14 71.17Z" stroke="#00F2B3" stroke-width="2" stroke-linecap="round" stroke-linejoin="round"/>
<path d="M55.22 100.25C53.56 100.92 51.87 101.57 50.17 102.18" stroke="white" stroke-width="2" stroke-linecap="round" stroke-linejoin="round"/>
<path d="M25.26 87.73H25.96C30.4 87.73 34.82 87.24 39.15 86.26" stroke="white" stroke-width="2" stroke-linecap="round" stroke-linejoin="round"/>
<path d="M19.53 69.05C21.65 69.38 23.8 69.55 25.95 69.55H27.32" stroke="white" stroke-width="2" stroke-linecap="round" stroke-linejoin="round"/>
<path d="M19.8 50.48C17.76 49.92 15.8 49.07 14 47.97" stroke="white" stroke-width="2" stroke-linecap="round" stroke-linejoin="round"/>
</g>
<defs>
<clipPath id="clip0_47_2036">
<rect width="94.35" height="86.18" fill="white" transform="translate(13 17)"/>
</clipPath>
</defs>
</svg>
