<svg width="120" height="120" viewBox="0 0 120 120" fill="none" xmlns="http://www.w3.org/2000/svg">
<g clip-path="url(#clip0_47_974)">
<path d="M103.3 77.9402C113.03 53.1002 100.78 25.0702 75.94 15.3402C51.1 5.61023 23.07 17.8602 13.34 42.7002C3.61 67.5402 15.86 95.5702 40.7 105.3C46.31 107.5 52.28 108.63 58.31 108.63" stroke="#2006F7" stroke-width="2.5" stroke-linecap="round" stroke-linejoin="round"/>
<path d="M81.24 60.3198C81.24 33.6498 70.91 12.0098 58.31 12.0098C45.71 12.0098 35.38 33.6398 35.38 60.3198C35.38 86.9998 45.71 108.63 58.31 108.63" stroke="#2006F7" stroke-width="2.5" stroke-linecap="round" stroke-linejoin="round"/>
<path d="M58.31 12.0098V108.62" stroke="#2006F7" stroke-width="2.5" stroke-linecap="round" stroke-linejoin="round"/>
<path d="M16.53 36.29H100.08" stroke="#2006F7" stroke-width="2.5" stroke-linecap="round" stroke-linejoin="round"/>
<path d="M10 60.3203H106.61" stroke="#2006F7" stroke-width="2.5" stroke-linecap="round" stroke-linejoin="round"/>
<path d="M16.53 84.3506H58.31" stroke="#2006F7" stroke-width="2.5" stroke-linecap="round" stroke-linejoin="round"/>
<path d="M68.16 108.08C67.04 108.09 66.01 107.5 65.45 106.53C64.89 105.58 64.89 104.39 65.45 103.44L84.79 69.9803C85.63 68.4803 87.53 67.9503 89.02 68.7903C89.52 69.0703 89.93 69.4803 90.21 69.9803L109.57 103.46C110.43 104.92 109.94 106.8 108.48 107.66C107.98 107.95 107.41 108.1 106.84 108.08H68.15H68.16Z" stroke="#2006F7" stroke-width="2.5" stroke-linecap="round" stroke-linejoin="round"/>
<path d="M87.5 80.9004V91.7204" stroke="#2006F7" stroke-width="2.5" stroke-linecap="round" stroke-linejoin="round"/>
<path d="M87.5 98.0703V99.9403" stroke="#2006F7" stroke-width="2.5" stroke-linecap="round" stroke-linejoin="round"/>
</g>
<defs>
<clipPath id="clip0_47_974">
<rect width="102" height="98.62" fill="white" transform="translate(9 11)"/>
</clipPath>
</defs>
</svg>
