<svg width="120" height="120" viewBox="0 0 120 120" fill="none" xmlns="http://www.w3.org/2000/svg">
<g clip-path="url(#clip0_47_928)">
<path d="M101.42 50.1201H18V111.83H101.42V50.1201Z" stroke="#2006F7" stroke-width="2.5" stroke-linecap="round" stroke-linejoin="round"/>
<path d="M85.47 50.1202V33.7402C85.48 19.5302 73.98 8.01024 59.77 7.99024C59.75 7.99024 59.74 7.99024 59.72 7.99024C45.51 7.98024 33.99 19.4802 33.97 33.6902C33.97 33.7102 33.97 33.7202 33.97 33.7402V50.1202" stroke="#2006F7" stroke-width="2.5" stroke-linecap="round" stroke-linejoin="round"/>
<path d="M59.72 102.25C71.4119 102.25 80.89 92.772 80.89 81.0802C80.89 69.3883 71.4119 59.9102 59.72 59.9102C48.0281 59.9102 38.55 69.3883 38.55 81.0802C38.55 92.772 48.0281 102.25 59.72 102.25Z" stroke="#2006F7" stroke-width="2.5" stroke-linecap="round" stroke-linejoin="round"/>
<path d="M59.72 91.3504V80.1904" stroke="#2006F7" stroke-width="2.5" stroke-linecap="round" stroke-linejoin="round"/>
<path d="M59.72 73.6201V72.6201" stroke="#2006F7" stroke-width="2.5" stroke-linecap="round" stroke-linejoin="round"/>
</g>
<defs>
<clipPath id="clip0_47_928">
<rect width="85.42" height="105.83" fill="white" transform="translate(17 7)"/>
</clipPath>
</defs>
</svg>
