<svg width="120" height="120" viewBox="0 0 120 120" fill="none" xmlns="http://www.w3.org/2000/svg">
<g clip-path="url(#clip0_47_1934)">
<path d="M85.08 22.85C87.6095 22.85 89.66 20.7995 89.66 18.27C89.66 15.7405 87.6095 13.69 85.08 13.69C82.5505 13.69 80.5 15.7405 80.5 18.27C80.5 20.7995 82.5505 22.85 85.08 22.85Z" stroke="#2006F7" stroke-width="2.5" stroke-linecap="round" stroke-linejoin="round"/>
<path d="M103.42 73.41C105.949 73.41 108 71.3595 108 68.83C108 66.3005 105.949 64.25 103.42 64.25C100.891 64.25 98.84 66.3005 98.84 68.83C98.84 71.3595 100.891 73.41 103.42 73.41Z" stroke="#2006F7" stroke-width="2.5" stroke-linecap="round" stroke-linejoin="round"/>
<path d="M80.58 95C83.1095 95 85.16 92.9495 85.16 90.42C85.16 87.8905 83.1095 85.84 80.58 85.84C78.0505 85.84 76 87.8905 76 90.42C76 92.9495 78.0505 95 80.58 95Z" stroke="#2006F7" stroke-width="2.5" stroke-linecap="round" stroke-linejoin="round"/>
<path d="M54.47 111.79V9" stroke="#2006F7" stroke-width="2.5" stroke-linecap="round" stroke-linejoin="round"/>
<path d="M54.47 47.91H67.87L85.08 30.68V22.93" stroke="#2006F7" stroke-width="2.5" stroke-linecap="round" stroke-linejoin="round"/>
<path d="M78.54 60.4H83.16L91.59 68.83H98.83" stroke="#2006F7" stroke-width="2.5" stroke-linecap="round" stroke-linejoin="round"/>
<path d="M54.47 60.4H71.32" stroke="#2006F7" stroke-width="2.5" stroke-linecap="round" stroke-linejoin="round"/>
<path d="M54.47 72.05H62.21L77.34 87.18" stroke="#2006F7" stroke-width="2.5" stroke-linecap="round" stroke-linejoin="round"/>
<path d="M47.58 105.16C45.46 105.45 43.5 103.96 43.22 101.84C43.17 101.49 43.17 101.15 43.22 100.8V90.6C39.79 89.39 36.62 87.56 33.85 85.21L25.59 90.02C24.82 90.5 23.94 90.78 23.03 90.82C21.51 90.78 20.16 89.87 19.56 88.47L12.58 76.23C12.55 76.13 12.5 76.03 12.44 75.94V75.73C11.45 73.83 12.18 71.49 14.08 70.5C14.18 70.45 14.28 70.4 14.38 70.36L22.93 65.41C22.66 64.13 22.51 62.84 22.48 61.53V60.41C22.48 58.54 22.64 56.67 22.96 54.82L14.41 50.01C13.39 49.52 12.61 48.65 12.22 47.59C11.86 46.39 12.06 45.09 12.76 44.06L19.92 31.78C20.49 30.4 21.8 29.47 23.29 29.39C24.18 29.43 25.05 29.7 25.81 30.17L34.67 35.27L43.42 30.21V19.97C43.13 17.85 44.62 15.89 46.74 15.61C47.09 15.56 47.43 15.56 47.78 15.61" stroke="#2006F7" stroke-width="2.5" stroke-linecap="round" stroke-linejoin="round"/>
<path d="M54.47 44.28C45.57 44.28 38.35 51.5 38.35 60.4C38.35 69.3 45.57 76.52 54.47 76.52" stroke="#2006F7" stroke-width="2.5" stroke-linecap="round" stroke-linejoin="round"/>
</g>
<defs>
<clipPath id="clip0_47_1934">
<rect width="98" height="104.79" fill="white" transform="translate(11 8)"/>
</clipPath>
</defs>
</svg>
