<svg width="120" height="120" viewBox="0 0 120 120" fill="none" xmlns="http://www.w3.org/2000/svg">
<g clip-path="url(#clip0_47_1821)">
<path d="M52.39 108.66C50.1 108.97 47.99 107.36 47.68 105.07C47.63 104.7 47.63 104.32 47.68 103.95V92.9402C43.98 91.6302 40.56 89.6602 37.57 87.1202L28.66 92.3102C27.83 92.8302 26.88 93.1302 25.9 93.1702C24.26 93.1302 22.8 92.1402 22.15 90.6402L14.62 77.4402C14.58 77.3302 14.53 77.2202 14.47 77.1302V76.9002C13.4 74.8502 14.19 72.3202 16.24 71.2502C16.34 71.2002 16.45 71.1502 16.56 71.1002L25.79 65.7602C25.5 64.3802 25.34 62.9802 25.31 61.5802V60.3702C25.31 58.3502 25.48 56.3302 25.83 54.3402L16.6 49.1502C15.5 48.6202 14.65 47.6802 14.24 46.5302C13.85 45.2402 14.06 43.8402 14.83 42.7202L22.55 29.4802C23.17 27.9902 24.58 26.9902 26.19 26.9102C27.15 26.9502 28.09 27.2402 28.91 27.7502L38.47 33.2502L47.91 27.7902V16.7502C47.6 14.4602 49.21 12.3502 51.5 12.0402C51.87 11.9902 52.25 11.9902 52.62 12.0402H67.43C69.72 11.7302 71.83 13.3402 72.14 15.6302C72.19 16.0002 72.19 16.3802 72.14 16.7502V27.8402C75.85 29.1202 79.28 31.1002 82.25 33.6602L91.14 28.4102C91.96 27.8502 92.91 27.5302 93.9 27.4902C95.5 27.6602 96.88 28.7102 97.48 30.2102L105.07 43.3902C106.52 45.1902 106.24 47.8202 104.44 49.2702C104.11 49.5402 103.73 49.7602 103.33 49.9102L94.08 55.1802C94.29 56.5202 94.42 57.8802 94.48 59.2402V60.3702C94.48 62.3902 94.31 64.4102 93.96 66.4002L103.21 71.6902C104.3 72.1902 105.17 73.0802 105.64 74.1802C105.92 75.5402 105.67 76.9502 104.95 78.1302L97.48 91.2302C96.81 92.7602 95.34 93.7702 93.67 93.8502C92.69 93.8002 91.74 93.5102 90.91 92.9902L81.35 87.4902L79.53 88.9502L78.5 89.7202C76.38 91.0102 74.15 92.1002 71.83 92.9802V104.03C72.14 106.32 70.53 108.43 68.24 108.74C67.87 108.79 67.49 108.79 67.12 108.74L52.39 108.66Z" stroke="#2006F7" stroke-width="2.5" stroke-linecap="round"/>
<path d="M67.72 44.9103C59.21 40.5103 48.75 43.8503 44.35 52.3603C41.77 57.3503 41.77 63.2903 44.35 68.2803" stroke="#2006F7" stroke-width="2.5" stroke-linecap="round"/>
<path d="M51.91 75.83C60.42 80.23 70.88 76.89 75.28 68.38C77.86 63.39 77.86 57.45 75.28 52.46" stroke="#2006F7" stroke-width="2.5" stroke-linecap="round"/>
</g>
<defs>
<clipPath id="clip0_47_1821">
<rect width="94" height="98.78" fill="white" transform="translate(13 11)"/>
</clipPath>
</defs>
</svg>
