<svg width="120" height="120" viewBox="0 0 120 120" fill="none" xmlns="http://www.w3.org/2000/svg">
<g clip-path="url(#clip0_47_2159)">
<path d="M108 20H12C11.4477 20 11 20.4477 11 21V83.66C11 84.2123 11.4477 84.66 12 84.66H108C108.552 84.66 109 84.2123 109 83.66V21C109 20.4477 108.552 20 108 20Z" stroke="white" stroke-width="2" stroke-linecap="round" stroke-linejoin="round"/>
<path d="M60 84.6602V100.71" stroke="white" stroke-width="2" stroke-linecap="round" stroke-linejoin="round"/>
<path d="M33.97 100.71H86.03" stroke="white" stroke-width="2" stroke-linecap="round" stroke-linejoin="round"/>
<path d="M11 68.9102H38.16" stroke="white" stroke-width="2" stroke-linecap="round" stroke-linejoin="round"/>
<path d="M81.84 68.9102H109" stroke="white" stroke-width="2" stroke-linecap="round" stroke-linejoin="round"/>
<path d="M73.93 47.1099H45.86V67.8399H73.93V47.1099Z" stroke="#00F2B3" stroke-width="2" stroke-linecap="round"/>
<path d="M51.26 47.1098V41.7098C51.26 36.9598 55.15 33.0698 59.9 33.0698C64.65 33.0698 68.54 36.9598 68.54 41.7098V47.1098" stroke="#00F2B3" stroke-width="2" stroke-linecap="round"/>
</g>
<defs>
<clipPath id="clip0_47_2159">
<rect width="100" height="82.71" fill="white" transform="translate(10 19)"/>
</clipPath>
</defs>
</svg>
