<svg width="120" height="120" viewBox="0 0 120 120" fill="none" xmlns="http://www.w3.org/2000/svg">
<g clip-path="url(#clip0_47_1091)">
<path d="M52.5399 108.52C50.1899 108.77 48.0799 107.07 47.8299 104.72C47.7999 104.42 47.7999 104.12 47.8299 103.82V92.82C44.1399 91.51 40.7199 89.54 37.7299 87L28.8299 92.18C27.9999 92.71 27.0399 93.02 26.0499 93.06C24.4599 92.97 23.0399 91.99 22.3899 90.54L14.7699 77.38C14.7399 77.26 14.6899 77.15 14.6199 77.06V76.82C13.5499 74.82 14.2999 72.33 16.2899 71.26C16.4399 71.18 16.5999 71.11 16.7599 71.05L25.7199 65.57C25.4499 64.22 25.2899 62.86 25.2499 61.48V60.26C25.2399 58.27 25.3999 56.28 25.7199 54.31L16.5199 49.13C15.4199 48.6 14.5699 47.65 14.1699 46.5C13.7799 45.22 13.9999 43.83 14.7499 42.71L22.4699 29.47C23.1099 28 24.5099 27.01 26.1099 26.9C27.0699 26.94 28.0099 27.22 28.8299 27.73L38.3899 33.23L47.8199 27.75V16.73C47.5699 14.38 49.2699 12.27 51.6199 12.02C51.9199 11.99 52.2199 11.99 52.5199 12.02H67.3199C69.6699 11.77 71.7799 13.47 72.0299 15.82C72.0599 16.12 72.0599 16.42 72.0299 16.72V27.8C75.7399 29.06 79.1699 31.04 82.1299 33.62L91.0299 28.36C91.8499 27.81 92.7999 27.5 93.7899 27.46C95.4299 27.56 96.8699 28.59 97.4899 30.11L105.08 43.29C106.48 45.19 106.08 47.87 104.18 49.27C103.95 49.44 103.71 49.58 103.45 49.7L94.1699 54.94C94.3699 56.29 94.4999 57.64 94.5599 59V60.24C94.5999 62.23 94.4699 64.22 94.1699 66.19L103.41 71.47C104.49 71.98 105.35 72.86 105.83 73.95C106.08 74.89 106.02 75.88 105.66 76.77C105.56 77.18 105.38 77.56 105.15 77.9L97.5599 91.08C96.8799 92.54 95.4599 93.51 93.8599 93.63C92.8799 93.59 91.9299 93.28 91.0999 92.75L81.5399 87.25L79.7199 88.7L78.6899 89.47C76.5699 90.77 74.3399 91.86 72.0199 92.74V103.78C72.2699 106.13 70.5699 108.24 68.2199 108.49C67.9199 108.52 67.6199 108.52 67.3199 108.49H52.5399V108.52Z" stroke="#2006F7" stroke-width="2.5" stroke-linecap="round"/>
<path d="M42.4399 73.8899C41.4299 73.9099 40.4899 73.3899 39.9799 72.5199C39.4699 71.6599 39.4699 70.5799 39.9799 69.7199L57.5099 39.3499C58.2999 37.9899 60.0399 37.5299 61.3999 38.3199C61.8299 38.5699 62.1799 38.9199 62.4299 39.3499L79.9599 69.6899C80.7799 71.0099 80.3699 72.7299 79.0599 73.5499C78.5899 73.8399 78.0499 73.9899 77.4999 73.9699L42.4499 73.8799L42.4399 73.8899Z" stroke="#2006F7" stroke-width="2.5" stroke-linecap="round"/>
<path d="M59.9699 48.3198V59.3198" stroke="#2006F7" stroke-width="2.5" stroke-linecap="round"/>
<path d="M59.9699 64.7598V66.3298" stroke="#2006F7" stroke-width="2.5" stroke-linecap="round"/>
</g>
<defs>
<clipPath id="clip0_47_1091">
<rect width="94" height="98.55" fill="white" transform="translate(13 11)"/>
</clipPath>
</defs>
</svg>
