<svg width="120" height="120" viewBox="0 0 120 120" fill="none" xmlns="http://www.w3.org/2000/svg">
<g clip-path="url(#clip0_47_1456)">
<path d="M54.2 57.5499C45.31 53.3599 40.43 43.6499 42.37 34.0199C43.99 25.5499 51.61 19.5699 60.22 20.0199C65.54 19.7499 70.69 21.9599 74.16 25.9999C77.65 30.3899 79.11 36.0499 78.19 41.5699C75.99 53.7799 66.23 60.6999 59.08 64.7199" stroke="white" stroke-width="2" stroke-linecap="round" stroke-linejoin="round"/>
<path d="M23 100.77C23 87.5996 23.85 78.7796 25.35 74.8496C27.78 68.5496 38.52 63.5596 42.11 62.1396C46.08 69.8496 52.62 74.3997 59.85 74.3997C67.08 74.3997 73.64 69.8496 77.61 62.1396C81.18 63.6296 91.94 68.5496 94.35 74.8496C95.87 78.7796 96.66 87.5296 96.72 100.77H23Z" stroke="#00F2B3" stroke-width="2" stroke-linecap="round" stroke-linejoin="round"/>
</g>
<defs>
<clipPath id="clip0_47_1456">
<rect width="75.71" height="82.77" fill="white" transform="translate(22 19)"/>
</clipPath>
</defs>
</svg>
