<svg width="120" height="120" viewBox="0 0 120 120" fill="none" xmlns="http://www.w3.org/2000/svg">
<path d="M104.5 21H14.8343C13.2689 21 12 22.2689 12 23.8343V81.0633C12 82.6286 13.2689 83.8975 14.8343 83.8975H104.5C106.065 83.8975 107.334 82.6286 107.334 81.0633V23.8343C107.334 22.2689 106.065 21 104.5 21Z" stroke="#2006F7" stroke-width="2" stroke-linecap="round"/>
<path d="M59.6671 83.8965V99.4992" stroke="#2006F7" stroke-width="2" stroke-linecap="round"/>
<path d="M34.3591 99.5H84.9749" stroke="#2006F7" stroke-width="2" stroke-linecap="round"/>
<path d="M12 68.5811H98.8312" stroke="#2006F7" stroke-width="2" stroke-linecap="round"/>
<path d="M62.8734 58.1879H41.5449C40.457 58.1879 39.5123 57.2717 39.5123 56.1552V34.5405C39.5123 33.4526 40.4284 32.5078 41.5449 32.5078H76.8443C77.9321 32.5078 78.8769 33.4239 78.8769 34.5405V44.3888" stroke="#2006F7" stroke-width="2" stroke-linecap="round"/>
<path d="M40.457 32.9385L59.3806 46.7948L77.7031 33.1102" stroke="#2006F7" stroke-width="2" stroke-linecap="round"/>
<path d="M72.7217 61.88H72.6358C71.0326 61.3361 69.5153 60.5344 68.1984 59.4752C67.0246 58.5591 65.6504 57.099 65.6504 55.4099V47.995C65.6504 47.995 65.7363 47.7374 65.8794 47.6801L72.6645 45.6475H72.8362L79.6213 47.6801C79.6213 47.6801 79.8503 47.8519 79.8503 47.995V55.4099C79.8503 58.3873 75.2983 61.0498 72.8649 61.8227L72.779 61.88H72.7217Z" stroke="#2006F7" stroke-width="2" stroke-linecap="round"/>
<path d="M68.8854 53.9493L71.4334 56.4687L76.5293 51.4014" stroke="#2006F7" stroke-width="2" stroke-linecap="round"/>
</svg>
