<svg width="120" height="120" viewBox="0 0 120 120" fill="none" xmlns="http://www.w3.org/2000/svg">
<g clip-path="url(#clip0_47_1022)">
<path d="M13 60.3994H67.4" stroke="#2006F7" stroke-width="2.5" stroke-linecap="round" stroke-linejoin="round"/>
<path d="M52.76 45.7598L67.4 60.3998L52.76 75.0498" stroke="#2006F7" stroke-width="2.5" stroke-linecap="round" stroke-linejoin="round"/>
<path d="M106.59 67.7898C106.98 65.3498 107.17 62.8798 107.17 60.4098C107.15 34.2098 85.9 12.9898 59.71 13.0098C36.65 13.0198 16.94 29.5998 13 52.3198" stroke="#2006F7" stroke-width="2.5" stroke-linecap="round" stroke-linejoin="round"/>
<path d="M13 68.4795C17.51 94.3395 42.14 111.649 68 107.139C68.68 107.019 69.35 106.889 70.02 106.739" stroke="#2006F7" stroke-width="2.5" stroke-linecap="round" stroke-linejoin="round"/>
<path d="M79.79 87.6495L85.75 93.6195L97.64 81.7295" stroke="#2006F7" stroke-width="2.5" stroke-linecap="round" stroke-linejoin="round"/>
<path d="M88.71 106.209C98.9438 106.209 107.24 97.9132 107.24 87.6794C107.24 77.4456 98.9438 69.1494 88.71 69.1494C78.4762 69.1494 70.18 77.4456 70.18 87.6794C70.18 97.9132 78.4762 106.209 88.71 106.209Z" stroke="#2006F7" stroke-width="2.5" stroke-linecap="round" stroke-linejoin="round"/>
</g>
<defs>
<clipPath id="clip0_47_1022">
<rect width="96.25" height="96.86" fill="white" transform="translate(12 12)"/>
</clipPath>
</defs>
</svg>
