<svg width="120" height="120" viewBox="0 0 120 120" fill="none" xmlns="http://www.w3.org/2000/svg">
<g clip-path="url(#clip0_174_301)">
<path d="M14.5753 27.334L60.0667 60.4707L104.144 27.7319" stroke="#00F2B3" stroke-width="2" stroke-linecap="round"/>
<path d="M65.5364 87.7445H17.2168C14.5753 87.7445 12.3341 85.516 12.3341 82.8894V31.1813C12.3341 28.5547 14.5753 26.3262 17.2168 26.3262H102.143C104.784 26.3262 107.026 28.5547 107.026 31.1813V64.2119" stroke="white" stroke-width="2" stroke-linecap="round"/>
<path d="M82.9591 85.0914L88.3487 90.3976L99.0212 79.7588" stroke="white" stroke-width="2" stroke-linecap="round"/>
<path d="M90.9902 101.673C100.2 101.673 107.666 94.2492 107.666 85.0914C107.666 75.9336 100.2 68.5098 90.9902 68.5098C81.7804 68.5098 74.3145 75.9336 74.3145 85.0914C74.3145 94.2492 81.7804 101.673 90.9902 101.673Z" stroke="#00F2B3" stroke-width="2" stroke-linecap="round"/>
</g>
<defs>
<clipPath id="clip0_174_301">
<rect width="98" height="78" fill="white" transform="translate(11 25)"/>
</clipPath>
</defs>
</svg>
