<svg width="120" height="120" viewBox="0 0 120 120" fill="none" xmlns="http://www.w3.org/2000/svg">
<g clip-path="url(#clip0_47_689)">
<path d="M17.85 72.76C18.48 72.98 19.06 73.33 19.53 73.8C19.86 74.14 20.14 74.53 20.35 74.96" stroke="white" stroke-width="2" stroke-linecap="round" stroke-linejoin="round"/>
<path d="M17.85 72.76C15.55 71.96 13.04 73.18 12.24 75.48C11.44 77.78 12.66 80.29 14.96 81.09C16.56 81.65 18.34 81.23 19.53 80.03C20.87 78.7 21.21 76.65 20.35 74.96" stroke="white" stroke-width="2" stroke-linecap="round" stroke-linejoin="round"/>
<path d="M99.73 74.85C98.61 77 99.43 79.65 101.58 80.77C103.73 81.89 106.38 81.07 107.5 78.92C108.62 76.77 107.8 74.12 105.65 73C104.74 72.52 103.69 72.38 102.69 72.6" stroke="white" stroke-width="2" stroke-linecap="round" stroke-linejoin="round"/>
<path d="M102.68 72.6C101.85 72.78 101.09 73.19 100.49 73.79C100.18 74.1 99.92 74.45 99.73 74.85" stroke="white" stroke-width="2" stroke-linecap="round" stroke-linejoin="round"/>
<path d="M57.47 53.18C57.67 53.26 57.86 53.36 58.04 53.47" stroke="white" stroke-width="2" stroke-linecap="round" stroke-linejoin="round"/>
<path d="M57.47 53.18C55.25 52.24 52.69 53.28 51.74 55.5C50.79 57.72 51.84 60.28 54.06 61.23C56.28 62.18 58.84 61.13 59.79 58.91C60.49 57.26 60.11 55.34 58.83 54.09C58.59 53.86 58.33 53.66 58.05 53.48" stroke="#00F2B3" stroke-width="2" stroke-linecap="round" stroke-linejoin="round"/>
<path d="M87.7 91.69C86.73 91.79 85.82 92.23 85.13 92.92C83.41 94.64 83.41 97.43 85.13 99.15C86.85 100.87 89.64 100.87 91.36 99.15C93.08 97.43 93.08 94.64 91.36 92.92C90.4 91.95 89.04 91.5 87.7 91.68" stroke="#00F2B3" stroke-width="2" stroke-linecap="round" stroke-linejoin="round"/>
<path d="M58.0499 53.47C60.7299 50.26 65.6899 47.05 72.9299 53.18C76.9599 56.59 79.9999 62.36 82.2499 68.59" stroke="#00F2B3" stroke-width="2" stroke-linecap="round" stroke-linejoin="round"/>
<path d="M57.4701 53.18C60.4501 47.31 67.4001 36.44 80.1301 31.87" stroke="#00F2B3" stroke-width="2" stroke-linecap="round" stroke-linejoin="round"/>
<path d="M97.79 31.81C97.89 31.69 97.97 31.58 98.06 31.48H98.18" stroke="white" stroke-width="2" stroke-linecap="round" stroke-linejoin="round"/>
<path d="M97.79 31.81C96.3 33.68 96.62 36.4 98.49 37.89C100.36 39.38 103.08 39.06 104.57 37.19C106.06 35.32 105.74 32.6 103.87 31.11C102.17 29.76 99.74 29.88 98.18 31.38" stroke="#00F2B3" stroke-width="2" stroke-linecap="round" stroke-linejoin="round"/>
<path d="M36.65 23.8C36.5 23.54 36.31 23.31 36.1 23.1C34.37 21.37 31.57 21.36 29.84 23.09C28.11 24.82 28.1 27.62 29.83 29.35C31.56 31.08 34.36 31.09 36.09 29.36C36.09 29.36 36.09 29.36 36.1 29.35C37.58 27.87 37.8 25.55 36.65 23.81" stroke="white" stroke-width="2" stroke-linecap="round" stroke-linejoin="round"/>
<path d="M99.73 74.85C74.62 62.86 45.44 62.9 20.36 74.95" stroke="white" stroke-width="2" stroke-linecap="round" stroke-linejoin="round"/>
<path d="M80.12 31.87C68.16 20 52.83 14.24 36.65 23.8" stroke="white" stroke-width="2" stroke-linecap="round" stroke-linejoin="round"/>
<path d="M102.68 72.6C98.84 57.29 91.07 43.24 80.12 31.87" stroke="white" stroke-width="2" stroke-linecap="round" stroke-linejoin="round"/>
<path d="M97.79 31.81C94.79 30.18 89.62 28.87 81.58 31.38L80.13 31.87" stroke="white" stroke-width="2" stroke-linecap="round" stroke-linejoin="round"/>
<path d="M85.47 79.49C86.59 84.27 87.31 88.64 87.74 91.69" stroke="#00F2B3" stroke-width="2" stroke-linecap="round" stroke-linejoin="round"/>
<path d="M17.85 72.76C21.92 62.01 35.48 33.36 67.12 23.25" stroke="white" stroke-width="2" stroke-linecap="round" stroke-linejoin="round"/>
<path d="M75.86 21.61C83.26 21.36 90.82 24.14 98.18 31.4" stroke="#00F2B3" stroke-width="2" stroke-linecap="round" stroke-linejoin="round"/>
</g>
<defs>
<clipPath id="clip0_47_689">
<rect width="98" height="83.45" fill="white" transform="translate(11 18)"/>
</clipPath>
</defs>
</svg>
