<svg width="120" height="120" viewBox="0 0 120 120" fill="none" xmlns="http://www.w3.org/2000/svg">
<g clip-path="url(#clip0_102_14)">
<path d="M47.63 84.2499L57.61 70.4399H90.42L76.61 92.8899H62.8" stroke="white" stroke-width="2" stroke-linecap="round"/>
<path d="M26.54 99.79H92.15" stroke="white" stroke-width="2" stroke-linecap="round"/>
<path d="M29.13 65.2498C23.52 65.2498 19.63 60.9398 19.63 55.6298V52.4198C19.63 47.1098 23.51 42.7998 29.13 42.7998C34.75 42.7998 38.63 47.1098 38.63 52.4198V55.6298C38.63 60.9398 34.75 65.2498 29.13 65.2498Z" stroke="white" stroke-width="2" stroke-linecap="round"/>
<path d="M24.81 87.6999L35.17 99.7899H48.98C55.89 99.7899 55.89 91.1599 55.89 91.1599H42.08L28.73 74.8399C27.35 73.1499 25.27 72.1699 23.09 72.1699C17.97 72.1699 14.24 75.3499 13.33 81.9299C12.54 87.5999 11 99.7999 11 99.7999" stroke="white" stroke-width="2" stroke-linecap="round"/>
<path d="M54.76 65.7501C52.39 62.0301 50.82 57.7201 50.3 53.0401C48.5 36.7001 60.29 21.9901 76.63 20.1801C92.97 18.3801 107.68 30.1701 109.49 46.5101C110.92 59.5101 103.76 71.4701 92.55 76.7301" stroke="#00F2B3" stroke-width="2" stroke-linecap="round" stroke-linejoin="round"/>
<path d="M62.0338 53.3C64.8139 53.3 67.0675 51.0463 67.0675 48.2662C67.0675 45.4861 64.8139 43.2324 62.0338 43.2324C59.2537 43.2324 57 45.4861 57 48.2662C57 51.0463 59.2537 53.3 62.0338 53.3Z" stroke="white" stroke-width="2" stroke-linecap="round"/>
<path d="M79.9964 41.0675C82.7764 41.0675 85.0301 38.8139 85.0301 36.0338C85.0301 33.2537 82.7764 31 79.9964 31C77.2163 31 74.9626 33.2537 74.9626 36.0338C74.9626 38.8139 77.2163 41.0675 79.9964 41.0675Z" stroke="white" stroke-width="2" stroke-linecap="round"/>
<path d="M97.9591 53.3C100.739 53.3 102.993 51.0463 102.993 48.2662C102.993 45.4861 100.739 43.2324 97.9591 43.2324C95.179 43.2324 92.9253 45.4861 92.9253 48.2662C92.9253 51.0463 95.179 53.3 97.9591 53.3Z" stroke="white" stroke-width="2" stroke-linecap="round"/>
<path d="M66.3484 45.337L75.6742 38.9634" stroke="white" stroke-width="2" stroke-linecap="round"/>
<path d="M93.6671 45.337L84.3111 38.9634" stroke="white" stroke-width="2" stroke-linecap="round"/>
</g>
<defs>
<clipPath id="clip0_102_14">
<rect width="100.67" height="81.79" fill="white" transform="translate(10 19)"/>
</clipPath>
</defs>
</svg>
