<svg width="120" height="120" viewBox="0 0 120 120" fill="none" xmlns="http://www.w3.org/2000/svg">
<g clip-path="url(#clip0_47_755)">
<path d="M65.52 44.71C56.87 41.44 47.2 45.79 43.93 54.45C40.66 63.1 45.01 72.77 53.67 76.04C62.32 79.31 71.99 74.96 75.26 66.3C77.37 60.72 76.36 54.44 72.59 49.81" stroke="#2006F7" stroke-width="2" stroke-linecap="round" stroke-linejoin="round"/>
<path d="M66.05 55.01L92.46 33.42" stroke="#2006F7" stroke-width="2" stroke-linecap="round" stroke-linejoin="round"/>
<path d="M66.05 65.73L92.46 87.32" stroke="#2006F7" stroke-width="2" stroke-linecap="round" stroke-linejoin="round"/>
<path d="M53.62 55.01L27.21 33.42" stroke="#2006F7" stroke-width="2" stroke-linecap="round" stroke-linejoin="round"/>
<path d="M53.62 65.73L27.21 87.32" stroke="#2006F7" stroke-width="2" stroke-linecap="round" stroke-linejoin="round"/>
<path d="M91.63 75.66C97.68 71.24 103.18 66.11 108 60.38C108 60.38 86.29 33.01 59.5 33.01C50.79 33.26 42.72 35.15 35.27 39.68" stroke="#2006F7" stroke-width="2.5" stroke-linecap="round" stroke-linejoin="round"/>
<path d="M27.37 45.11C21.32 49.52 15.82 54.65 11 60.37C11 60.37 32.71 87.74 59.5 87.74C68.21 87.49 76.71 84.98 84.16 80.45" stroke="#2006F7" stroke-width="2" stroke-linecap="round" stroke-linejoin="round"/>
<path d="M59.61 61.95V58.8" stroke="#2006F7" stroke-width="2" stroke-linecap="round" stroke-linejoin="round"/>
</g>
<defs>
<clipPath id="clip0_47_755">
<rect width="99" height="56.75" fill="white" transform="translate(10 32)"/>
</clipPath>
</defs>
</svg>
