<svg width="120" height="120" viewBox="0 0 120 120" fill="none" xmlns="http://www.w3.org/2000/svg">
<g clip-path="url(#clip0_47_1220)">
<path d="M19.7699 77.74V48.97" stroke="white" stroke-width="2" stroke-linecap="round" stroke-linejoin="round"/>
<path d="M23.83 84.81C24.69 83.36 24.69 81.56 23.83 80.11" stroke="#00F2B3" stroke-width="2" stroke-linecap="round" stroke-linejoin="round"/>
<path d="M19.7699 77.74C21.4499 77.74 22.9899 78.65 23.8199 80.1" stroke="#00F2B3" stroke-width="2" stroke-linecap="round" stroke-linejoin="round"/>
<path d="M23.83 84.81L48.99 99.33" stroke="white" stroke-width="2" stroke-linecap="round" stroke-linejoin="round"/>
<path d="M64.18 15.11C65.5 12.86 64.74 9.97 62.49 8.65C60.24 7.33 57.35 8.09 56.03 10.34C55.17 11.81 55.17 13.64 56.03 15.11" stroke="white" stroke-width="2" stroke-linecap="round" stroke-linejoin="round"/>
<path d="M64.18 15.11C62.88 17.36 60.01 18.13 57.76 16.84C57.04 16.43 56.44 15.83 56.03 15.11" stroke="white" stroke-width="2" stroke-linecap="round" stroke-linejoin="round"/>
<path d="M24.18 38.56C24.46 37.96 24.6 37.3 24.6 36.64C24.61 34.02 22.5 31.89 19.88 31.87C17.26 31.85 15.13 33.97 15.11 36.59C15.1 39.21 17.21 41.34 19.83 41.36C21.71 41.36 23.41 40.27 24.18 38.56Z" stroke="white" stroke-width="2" stroke-linecap="round" stroke-linejoin="round"/>
<path d="M19.77 77.74C17.16 77.71 15.03 79.81 15 82.41C14.97 85.02 17.07 87.15 19.67 87.18C21.38 87.2 22.97 86.29 23.82 84.8" stroke="#00F2B3" stroke-width="2" stroke-linecap="round" stroke-linejoin="round"/>
<path d="M55.28 106.39C55.27 109 57.37 111.12 59.98 111.13C62.59 111.14 64.71 109.04 64.72 106.43C64.73 103.82 62.63 101.7 60.02 101.69C60.02 101.69 60.01 101.69 60 101.69C57.4 101.69 55.29 103.79 55.28 106.39Z" stroke="white" stroke-width="2" stroke-linecap="round" stroke-linejoin="round"/>
<path d="M100.23 77.74C102.84 77.71 104.97 79.81 105 82.41C105.03 85.01 102.93 87.15 100.33 87.18C98.62 87.2 97.03 86.29 96.18 84.8" stroke="white" stroke-width="2" stroke-linecap="round" stroke-linejoin="round"/>
<path d="M96.17 80.1C95.31 81.55 95.31 83.35 96.17 84.8" stroke="white" stroke-width="2" stroke-linecap="round" stroke-linejoin="round"/>
<path d="M100.23 77.74C98.55 77.74 97.01 78.65 96.18 80.1" stroke="white" stroke-width="2" stroke-linecap="round" stroke-linejoin="round"/>
<path d="M96.17 38.35C97.48 40.58 100.35 41.32 102.58 40.01C104.81 38.7 105.55 35.83 104.24 33.6C102.93 31.37 100.06 30.63 97.83 31.94C96.4 32.78 95.52 34.32 95.52 35.99C95.52 36.82 95.75 37.63 96.17 38.35Z" stroke="#00F2B3" stroke-width="2" stroke-linecap="round" stroke-linejoin="round"/>
<path d="M55.92 61.67C57.24 63.95 60.16 64.73 62.44 63.4C64.72 62.08 65.5 59.16 64.17 56.88" stroke="#00F2B3" stroke-width="2" stroke-linecap="round" stroke-linejoin="round"/>
<path d="M55.92 61.67C54.6 59.39 55.38 56.47 57.65 55.15C59.92 53.83 62.85 54.61 64.17 56.88" stroke="#00F2B3" stroke-width="2" stroke-linecap="round" stroke-linejoin="round"/>
<path d="M55.92 61.57L34.32 74.04" stroke="#00F2B3" stroke-width="2" stroke-linecap="round" stroke-linejoin="round"/>
<path d="M96.17 38.35L64.08 56.89" stroke="#00F2B3" stroke-width="2" stroke-linecap="round" stroke-linejoin="round"/>
<path d="M23.83 80.1L34.32 74.04" stroke="#00F2B3" stroke-width="2" stroke-linecap="round" stroke-linejoin="round"/>
<path d="M86.81 28.24L64.08 15.11" stroke="white" stroke-width="2" stroke-linecap="round" stroke-linejoin="round"/>
<path d="M55.92 15.11L32.04 28.9" stroke="white" stroke-width="2" stroke-linecap="round" stroke-linejoin="round"/>
<path d="M100.23 77.74V48.19" stroke="white" stroke-width="2" stroke-linecap="round" stroke-linejoin="round"/>
<path d="M71.01 99.33L96.17 84.81" stroke="white" stroke-width="2" stroke-linecap="round" stroke-linejoin="round"/>
<path d="M48.59 52.62L24.18 38.56" stroke="white" stroke-width="2" stroke-linecap="round" stroke-linejoin="round"/>
<path d="M85.52 73.96L96.17 80.1" stroke="white" stroke-width="2" stroke-linecap="round" stroke-linejoin="round"/>
<path d="M71.41 65.81L85.52 73.96" stroke="white" stroke-width="2" stroke-linecap="round" stroke-linejoin="round"/>
</g>
<defs>
<clipPath id="clip0_47_1220">
<rect width="92" height="105.14" fill="white" transform="translate(14 7)"/>
</clipPath>
</defs>
</svg>
