<svg width="120" height="120" viewBox="0 0 120 120" fill="none" xmlns="http://www.w3.org/2000/svg">
<g clip-path="url(#clip0_175_357)">
<path d="M55.675 100.378C80.3484 100.378 100.35 80.3702 100.35 55.6891C100.35 31.008 80.3484 11 55.675 11C31.0017 11 11 31.008 11 55.6891C11 80.3702 31.0017 100.378 55.675 100.378Z" stroke="#2006F7" stroke-width="2.5" stroke-linecap="round"/>
<path d="M92.7777 92.8042L109.399 109.398" stroke="#2006F7" stroke-width="2.5" stroke-linecap="round"/>
<path d="M55.8132 74.4102H55.589C51.778 73.1288 48.2232 71.2067 45.0527 68.7079C42.2986 66.5616 39 63.0697 39 59.0974V41.5101C39 41.1897 39.2242 40.9014 39.5444 40.8053L55.621 36H56.0374L72.114 40.8053C72.4342 40.9014 72.6264 41.1897 72.6264 41.5101V59.0974C72.6264 66.1451 61.8339 72.456 56.0374 74.282L55.8132 74.4102Z" stroke="#2006F7" stroke-width="2.5" stroke-linecap="round"/>
<path d="M46.7501 55.5734L52.8029 61.596L64.8443 49.5508" stroke="#2006F7" stroke-width="2.5" stroke-linecap="round"/>
</g>
<defs>
<clipPath id="clip0_175_357">
<rect width="102" height="102" fill="white" transform="translate(9 9)"/>
</clipPath>
</defs>
</svg>
