<svg width="120" height="120" viewBox="0 0 120 120" fill="none" xmlns="http://www.w3.org/2000/svg">
<path d="M106.132 65.3895C110.27 38.7352 92.0438 13.7543 65.3895 9.58581C38.7352 5.4477 13.7543 23.6736 9.58581 50.3279C5.4477 76.9823 23.6736 101.963 50.3279 106.132C52.823 106.527 55.318 106.71 57.8435 106.71C61.3426 106.71 64.8418 106.345 68.28 105.584" stroke="white" stroke-width="2" stroke-linecap="round"/>
<path d="M81.0595 57.875C81.0595 30.886 70.6229 9.00879 57.8739 9.00879C45.1248 9.00879 34.6883 30.886 34.6883 57.875C34.6883 84.864 45.1248 106.741 57.8739 106.741" stroke="white" stroke-width="2" stroke-linecap="round"/>
<path d="M57.8434 9.00879V106.741" stroke="white" stroke-width="2" stroke-linecap="round"/>
<path d="M15.6105 33.5645H100.107" stroke="white" stroke-width="2" stroke-linecap="round"/>
<path d="M9.00761 57.873H106.71" stroke="white" stroke-width="2" stroke-linecap="round"/>
<path d="M15.6105 82.1855H57.8435" stroke="white" stroke-width="2" stroke-linecap="round"/>
<path d="M91.4961 112.156H91.2527C86.8407 110.665 82.7331 108.444 79.0818 105.584C75.8869 103.089 72.0835 99.0725 72.0835 94.478V74.1222C72.0835 73.7266 72.3573 73.3919 72.7225 73.3006L91.3136 67.7324H91.8004L110.391 73.3006C110.757 73.4223 111 73.757 111 74.1222V94.478C111 102.633 98.4944 109.935 91.8004 112.035L91.557 112.187L91.4961 112.156Z" stroke="#00F2B3" stroke-width="2" stroke-linecap="round"/>
<path d="M81.0292 90.3721L88.0275 97.34L101.963 83.4043" stroke="white" stroke-width="2" stroke-linecap="round"/>
</svg>
