<svg width="120" height="120" viewBox="0 0 120 120" fill="none" xmlns="http://www.w3.org/2000/svg">
<g clip-path="url(#clip0_47_266)">
<path d="M57.52 71.81C56.63 71.94 55.8 71.32 55.67 70.43C55.65 70.28 55.65 70.13 55.67 69.98V65.68C54.2 65.17 52.84 64.4 51.65 63.41L48.17 65.42C47.84 65.63 47.47 65.75 47.08 65.76C46.45 65.72 45.9 65.33 45.65 64.75L42.67 59.6V59.48C42.25 58.7 42.54 57.72 43.32 57.3C43.37 57.27 43.42 57.25 43.47 57.23L47.07 55.22C46.97 54.7 46.9 54.17 46.89 53.63V53.19C46.89 52.4 46.95 51.61 47.09 50.84L43.49 48.83C43.06 48.63 42.72 48.26 42.57 47.8C42.41 47.3 42.49 46.76 42.79 46.33L45.81 41.16C46.04 40.57 46.6 40.17 47.24 40.13C47.61 40.14 47.98 40.26 48.29 40.47L52.03 42.62L55.71 40.47V36.15C55.59 35.26 56.21 34.44 57.11 34.32C57.26 34.3 57.41 34.3 57.56 34.32H63.33C64.22 34.19 65.05 34.81 65.18 35.7C65.2 35.85 65.2 36 65.18 36.15V40.47C66.66 40.97 68.02 41.75 69.2 42.76L72.68 40.75C73 40.55 73.37 40.43 73.75 40.41C74.39 40.45 74.95 40.84 75.2 41.44L78.18 46.61C78.74 47.3 78.62 48.32 77.93 48.87C77.81 48.97 77.68 49.04 77.54 49.1L73.94 51.11C74.02 51.63 74.07 52.15 74.08 52.68V53.14C74.08 53.93 74.01 54.71 73.88 55.49L77.48 57.5C77.9 57.71 78.23 58.06 78.42 58.49C78.54 58.85 78.54 59.24 78.42 59.6C78.37 59.76 78.3 59.9 78.22 60.04L75.24 65.19C74.98 65.76 74.42 66.14 73.79 66.18C73.41 66.16 73.04 66.04 72.72 65.84L68.98 63.69L68.28 64.27L67.88 64.57C67.05 65.07 66.17 65.49 65.27 65.84V70.16C65.39 71.05 64.77 71.87 63.87 71.99C63.72 72.01 63.57 72.01 63.42 71.99L57.53 71.81H57.52Z" stroke="#00F2B3" stroke-width="2" stroke-linecap="round" stroke-linejoin="round"/>
<path d="M60.42 59.7499C64.1645 59.7499 67.2 56.7144 67.2 52.9699C67.2 49.2255 64.1645 46.1899 60.42 46.1899C56.6755 46.1899 53.64 49.2255 53.64 52.9699C53.64 56.7144 56.6755 59.7499 60.42 59.7499Z" stroke="#00F2B3" stroke-width="2" stroke-linecap="round" stroke-linejoin="round"/>
<path d="M108 20H12C11.4477 20 11 20.4477 11 21V83.66C11 84.2123 11.4477 84.66 12 84.66H108C108.552 84.66 109 84.2123 109 83.66V21C109 20.4477 108.552 20 108 20Z" stroke="white" stroke-width="2" stroke-linecap="round" stroke-linejoin="round"/>
<path d="M60 84.6602V100.71" stroke="white" stroke-width="2" stroke-linecap="round" stroke-linejoin="round"/>
<path d="M33.97 100.71H86.03" stroke="white" stroke-width="2" stroke-linecap="round" stroke-linejoin="round"/>
<path d="M11 68.9102H38.16" stroke="white" stroke-width="2" stroke-linecap="round" stroke-linejoin="round"/>
<path d="M81.84 68.9102H109" stroke="white" stroke-width="2" stroke-linecap="round" stroke-linejoin="round"/>
</g>
<defs>
<clipPath id="clip0_47_266">
<rect width="100" height="82.71" fill="white" transform="translate(10 19)"/>
</clipPath>
</defs>
</svg>
