<svg width="120" height="120" viewBox="0 0 120 120" fill="none" xmlns="http://www.w3.org/2000/svg">
<path d="M64.0408 100.018H11V14H101.332V63.5107" stroke="white" stroke-width="2" stroke-linecap="round"/>
<path d="M11 34.6689H92.7033" stroke="white" stroke-width="2" stroke-linecap="round"/>
<path d="M21.8915 22.9053C22.5722 22.9053 23.1238 23.457 23.1239 24.1377C23.1239 24.8185 22.5723 25.3701 21.8915 25.3701C21.2108 25.37 20.6591 24.8184 20.6591 24.1377C20.6592 23.4571 21.2109 22.9054 21.8915 22.9053Z" fill="#2006F7" stroke="white" stroke-width="2"/>
<path d="M29.7963 22.9053C30.477 22.9053 31.0286 23.457 31.0287 24.1377C31.0287 24.8185 30.4771 25.3701 29.7963 25.3701C29.1157 25.37 28.5639 24.8184 28.5639 24.1377C28.564 23.4571 29.1157 22.9054 29.7963 22.9053Z" fill="#2006F7" stroke="white" stroke-width="2"/>
<path d="M37.6709 22.9053C38.3516 22.9053 38.9032 23.457 38.9033 24.1377C38.9033 24.8185 38.3517 25.3701 37.6709 25.3701C36.9902 25.37 36.4385 24.8184 36.4385 24.1377C36.4386 23.4571 36.9903 22.9054 37.6709 22.9053Z" fill="#2006F7" stroke="white" stroke-width="2"/>
<path d="M88.6603 111.392H88.419C84.0442 109.913 79.9711 107.711 76.3505 104.875C73.1826 102.401 69.4112 98.418 69.4112 93.8622V73.6777C69.4112 73.2855 69.6827 72.9536 70.0448 72.8631L88.4793 67.3418H88.962L107.397 72.8631C107.759 72.9838 108 73.3157 108 73.6777V93.8622C108 101.948 95.5997 109.189 88.962 111.271L88.7207 111.422L88.6603 111.392Z" stroke="#00F2B3" stroke-width="2" stroke-linecap="round"/>
<path d="M78.2815 89.79L85.2208 96.7294L99.0694 82.8809" stroke="white" stroke-width="2" stroke-linecap="round"/>
<path d="M26.9304 75.4876L38.0937 64.2942L26.9304 53.1309" stroke="white" stroke-width="2" stroke-linecap="round"/>
<path d="M38.0936 75.4883H62.0494" stroke="white" stroke-width="2" stroke-linecap="round"/>
</svg>
