<svg width="120" height="120" viewBox="0 0 120 120" fill="none" xmlns="http://www.w3.org/2000/svg">
<g clip-path="url(#clip0_47_1009)">
<path d="M84.51 73.24C78.22 79.66 69.4 83.54 59.77 83.54C40.51 83.54 25 67.89 25 48.77C25 29.65 40.65 14 59.77 14C78.89 14 94.54 29.65 94.54 48.77C94.54 55.59 92.53 62.01 89.19 67.36" stroke="#2006F7" stroke-width="2.5" stroke-linecap="round" stroke-linejoin="round"/>
<path d="M59.7701 75.9198C44.7901 75.9198 32.6201 63.7498 32.6201 48.7698C32.6201 33.7898 44.7901 21.7598 59.7701 21.7598C74.7501 21.7598 86.9201 33.9298 86.9201 48.9098C86.9201 61.6098 78.0901 72.3098 66.3301 75.2498" stroke="#2006F7" stroke-width="2.5" stroke-linecap="round" stroke-linejoin="round"/>
<path d="M66.05 87.9202L76.09 106.81L80.9001 91.1602L96.5501 95.9702L84.51 73.2402" stroke="#2006F7" stroke-width="2.5" stroke-linecap="round" stroke-linejoin="round"/>
<path d="M53.5 87.9207L43.46 106.811L38.65 91.1607L23 95.9707L33.06 76.9707" stroke="#2006F7" stroke-width="2.5" stroke-linecap="round" stroke-linejoin="round"/>
</g>
<defs>
<clipPath id="clip0_47_1009">
<rect width="75.55" height="94.81" fill="white" transform="translate(22 13)"/>
</clipPath>
</defs>
</svg>
