<svg width="120" height="120" viewBox="0 0 120 120" fill="none" xmlns="http://www.w3.org/2000/svg">
<g clip-path="url(#clip0_47_2009)">
<path d="M17.68 39.57C14.58 45.94 12.98 52.93 13 60.01C13 85.97 34.04 107.01 60 107.01C85.96 107.01 107 85.97 107 60.01C107 50.48 104.1 41.17 98.69 33.32" stroke="white" stroke-width="2" stroke-linecap="round" stroke-linejoin="round"/>
<path d="M86.51 21.2C65.9 7.12001 38.18 11.19 23 31" stroke="white" stroke-width="2" stroke-linecap="round" stroke-linejoin="round"/>
<path d="M37.27 76.72C46.54 89.25 64.22 91.88 76.74 82.61C87.87 74.37 91.38 59.26 85.01 46.96" stroke="white" stroke-width="2" stroke-linecap="round" stroke-linejoin="round"/>
<path d="M72.82 34.89C58.93 27.82 41.94 33.35 34.87 47.25C32.86 51.21 31.81 55.58 31.8 60.02C31.8 62.78 32.2 64.85 33 67.5" stroke="white" stroke-width="2" stroke-linecap="round" stroke-linejoin="round"/>
<path d="M60 69.41C65.19 69.41 69.4 65.2 69.4 60.01C69.4 54.82 65.19 50.61 60 50.61C54.81 50.61 50.6 54.82 50.6 60.01C50.6 65.2 54.81 69.41 60 69.41Z" stroke="white" stroke-width="2" stroke-linecap="round" stroke-linejoin="round"/>
<path d="M66.62 53.35L93.54 27.09" stroke="white" stroke-width="2" stroke-linecap="round" stroke-linejoin="round"/>
<path d="M85.4 87.94C87.36 89.77 90.44 89.67 92.28 87.71C94.11 85.75 94.01 82.67 92.04 80.83C90 79.1 86.94 79.34 85.2 81.38C83.57 83.3 83.68 86.15 85.46 87.94H85.4Z" stroke="#00F2B3" stroke-width="2" stroke-linecap="round" stroke-linejoin="round"/>
<path d="M29.92 72.7C30.1 75.34 32.38 77.33 35.01 77.16C37.4 77 39.31 75.1 39.47 72.7C39.65 70.06 37.65 67.78 35.01 67.61C32.37 67.43 30.09 69.43 29.92 72.07C29.91 72.28 29.91 72.5 29.92 72.71V72.7Z" stroke="#00F2B3" stroke-width="2" stroke-linecap="round" stroke-linejoin="round"/>
<path d="M59.85 22.26C59.85 24.94 62.02 27.11 64.7 27.11C67.38 27.11 69.55 24.94 69.55 22.26C69.55 19.58 67.38 17.41 64.7 17.41C62.02 17.41 59.85 19.58 59.85 22.26Z" stroke="#00F2B3" stroke-width="2" stroke-linecap="round" stroke-linejoin="round"/>
<path d="M15.29 35.44C15.47 38.08 17.75 40.07 20.38 39.9C22.77 39.74 24.68 37.84 24.84 35.44C25.02 32.8 23.02 30.52 20.38 30.35C17.74 30.17 15.46 32.17 15.29 34.81C15.28 35.02 15.28 35.24 15.29 35.45V35.44Z" stroke="#00F2B3" stroke-width="2" stroke-linecap="round" stroke-linejoin="round"/>
</g>
<defs>
<clipPath id="clip0_47_2009">
<rect width="96" height="96.02" fill="white" transform="translate(12 12)"/>
</clipPath>
</defs>
</svg>
