<svg width="120" height="120" viewBox="0 0 120 120" fill="none" xmlns="http://www.w3.org/2000/svg">
<g clip-path="url(#clip0_47_295)">
<path d="M47.45 80.6598C51.5535 80.6598 54.88 77.3333 54.88 73.2298C54.88 69.1263 51.5535 65.7998 47.45 65.7998C43.3465 65.7998 40.02 69.1263 40.02 73.2298C40.02 77.3333 43.3465 80.6598 47.45 80.6598Z" stroke="#2006F7" stroke-width="2.5" stroke-linecap="round" stroke-linejoin="round"/>
<path d="M72.58 54.9796C76.6835 54.9796 80.01 51.6531 80.01 47.5496C80.01 43.4462 76.6835 40.1196 72.58 40.1196C68.4765 40.1196 65.15 43.4462 65.15 47.5496C65.15 51.6531 68.4765 54.9796 72.58 54.9796Z" stroke="#2006F7" stroke-width="2.5" stroke-linecap="round" stroke-linejoin="round"/>
<path d="M40.02 54.4499L53.8 40.6699" stroke="#2006F7" stroke-width="2.5" stroke-linecap="round" stroke-linejoin="round"/>
<path d="M53.8 54.4499L40.02 40.6699" stroke="#2006F7" stroke-width="2.5" stroke-linecap="round" stroke-linejoin="round"/>
<path d="M66.23 80.1096L80.01 66.3296" stroke="#2006F7" stroke-width="2.5" stroke-linecap="round" stroke-linejoin="round"/>
<path d="M80.01 80.1096L66.23 66.3296" stroke="#2006F7" stroke-width="2.5" stroke-linecap="round" stroke-linejoin="round"/>
<path d="M105 31.8898V71.1498C105 90.0698 76.06 106.94 60.61 111.76C60.22 111.88 59.81 111.88 59.42 111.76C49.24 108.32 39.71 103.18 31.24 96.5598C23.83 90.6898 15.01 81.5198 15.01 71.1498V23.8398C15.02 22.9498 15.61 22.1698 16.45 21.9098L59.44 9.02982C59.63 8.99982 59.82 8.99982 60.01 9.02982C60.2 8.99982 60.39 8.99982 60.58 9.02982L103.57 21.9198" stroke="#2006F7" stroke-width="2.5" stroke-linecap="round" stroke-linejoin="round"/>
</g>
<defs>
<clipPath id="clip0_47_295">
<rect width="92" height="104.84" fill="white" transform="translate(14 8)"/>
</clipPath>
</defs>
</svg>
