<svg width="120" height="120" viewBox="0 0 120 120" fill="none" xmlns="http://www.w3.org/2000/svg">
<g clip-path="url(#clip0_47_1276)">
<path d="M59.21 73.8H59.05C56.36 72.89 53.84 71.53 51.6 69.78C49.27 68.26 47.71 65.82 47.31 63.07V50.54C47.31 50.31 47.46 50.1 47.68 50.03L59.05 46.62H59.37L70.81 50.03C71.03 50.1 71.18 50.31 71.18 50.54V63.05C71.18 68.04 63.52 72.5 59.43 73.77L59.2 73.79L59.21 73.8Z" stroke="white" stroke-width="2" stroke-linecap="round"/>
<path d="M84.32 46.59C89.22 55.66 88.85 66.67 83.37 75.4" stroke="#00F2B3" stroke-width="2" stroke-linecap="round"/>
<path d="M33.09 48.59C39.57 34.18 56.5 27.76 70.9 34.23C71.21 34.37 71.51 34.51 71.81 34.66" stroke="#00F2B3" stroke-width="2" stroke-linecap="round"/>
<path d="M59.21 88.75C45.42 88.75 33.6 78.89 31.12 65.33" stroke="#00F2B3" stroke-width="2" stroke-linecap="round"/>
<path d="M15.89 78.93C5.53999 55.01 16.55 27.23 40.47 16.88C55.46 10.39 72.75 12.12 86.16 21.45" stroke="white" stroke-width="2" stroke-linecap="round"/>
<path d="M104.22 45.97C112.08 70.82 98.31 97.34 73.47 105.2C58.3 110 41.74 106.84 29.41 96.78" stroke="white" stroke-width="2" stroke-linecap="round"/>
<path d="M80.35 84.87C83.2219 84.87 85.55 82.5419 85.55 79.67C85.55 76.7981 83.2219 74.47 80.35 74.47C77.4781 74.47 75.15 76.7981 75.15 79.67C75.15 82.5419 77.4781 84.87 80.35 84.87Z" stroke="#00F2B3" stroke-width="2" stroke-linecap="round"/>
<path d="M76.41 42.18C79.2819 42.18 81.61 39.8519 81.61 36.98C81.61 34.1081 79.2819 31.78 76.41 31.78C73.5381 31.78 71.21 34.1081 71.21 36.98C71.21 39.8519 73.5381 42.18 76.41 42.18Z" stroke="#00F2B3" stroke-width="2" stroke-linecap="round"/>
<path d="M30.33 65.4C33.2019 65.4 35.53 63.0719 35.53 60.2C35.53 57.3281 33.2019 55 30.33 55C27.4581 55 25.13 57.3281 25.13 60.2C25.13 63.0719 27.4581 65.4 30.33 65.4Z" stroke="#00F2B3" stroke-width="2" stroke-linecap="round"/>
<path d="M18.21 88.77C21.0819 88.77 23.41 86.4419 23.41 83.57C23.41 80.6981 21.0819 78.37 18.21 78.37C15.3381 78.37 13.01 80.6981 13.01 83.57C13.01 86.4419 15.3381 88.77 18.21 88.77Z" stroke="white" stroke-width="2" stroke-linecap="round"/>
<path d="M102.8 46.18C105.672 46.18 108 43.8519 108 40.98C108 38.1081 105.672 35.78 102.8 35.78C99.9281 35.78 97.6 38.1081 97.6 40.98C97.6 43.8519 99.9281 46.18 102.8 46.18Z" stroke="white" stroke-width="2" stroke-linecap="round"/>
</g>
<defs>
<clipPath id="clip0_47_1276">
<rect width="98" height="96.4" fill="white" transform="translate(11 12)"/>
</clipPath>
</defs>
</svg>
