<svg width="120" height="120" viewBox="0 0 120 120" fill="none" xmlns="http://www.w3.org/2000/svg">
<g clip-path="url(#clip0_47_1381)">
<path d="M52.36 28.0903C58.54 24.7603 66.06 25.1803 71.83 29.1803C78.78 27.2903 86.09 30.6203 89.23 37.0903H89.79C96.37 37.0903 101.7 42.4203 101.7 49.0003V49.2403C107.7 51.8703 110.44 58.8703 107.81 64.8703C106.97 66.8003 105.62 68.4703 103.92 69.7103C104.61 71.2303 104.97 72.8803 104.96 74.5503C104.99 81.1003 99.69 86.4403 93.14 86.4603C91.98 86.4603 90.83 86.3003 89.72 85.9703V99.6603L67.92 79.9703" stroke="#00F2B3" stroke-width="2" stroke-linecap="round"/>
<path d="M61.36 59.2C64.59 60.5 68.26 58.93 69.56 55.71" stroke="#00F2B3" stroke-width="2" stroke-linecap="round"/>
<path d="M88.99 46.1396C85.73 47.0596 83.83 50.4396 84.75 53.6996" stroke="#00F2B3" stroke-width="2" stroke-linecap="round"/>
<path d="M51.74 70.3203C52.29 73.5803 55.38 75.7703 58.63 75.2203C58.64 75.2203 58.66 75.2203 58.67 75.2203" stroke="#00F2B3" stroke-width="2" stroke-linecap="round"/>
<path d="M66.36 59.0703C68.44 65.3503 75.21 68.7603 81.49 66.6903C81.51 66.6903 81.52 66.6803 81.54 66.6703" stroke="#00F2B3" stroke-width="2" stroke-linecap="round"/>
<path d="M91.19 59.4905C97 59.4905 101.7 54.7805 101.7 48.9805" stroke="#00F2B3" stroke-width="2" stroke-linecap="round"/>
<path d="M68.36 36.8701C66.06 39.3101 66.17 43.1501 68.61 45.4501C71 47.7101 74.76 47.6501 77.08 45.3201" stroke="#00F2B3" stroke-width="2" stroke-linecap="round"/>
<path d="M93.76 72.4297C89.78 71.6897 85.95 74.3097 85.2 78.2897" stroke="#00F2B3" stroke-width="2" stroke-linecap="round"/>
<path d="M52.34 50.6096C55.4604 50.6096 57.99 48.08 57.99 44.9596C57.99 41.8392 55.4604 39.3096 52.34 39.3096C49.2196 39.3096 46.69 41.8392 46.69 44.9596C46.69 48.08 49.2196 50.6096 52.34 50.6096Z" stroke="white" stroke-width="2" stroke-linecap="round"/>
<path d="M44.91 26.3C48.0304 26.3 50.56 23.7704 50.56 20.65C50.56 17.5296 48.0304 15 44.91 15C41.7896 15 39.26 17.5296 39.26 20.65C39.26 23.7704 41.7896 26.3 44.91 26.3Z" stroke="white" stroke-width="2" stroke-linecap="round"/>
<path d="M45.36 104.66C48.4804 104.66 51.01 102.131 51.01 99.0104C51.01 95.8899 48.4804 93.3604 45.36 93.3604C42.2396 93.3604 39.71 95.8899 39.71 99.0104C39.71 102.131 42.2396 104.66 45.36 104.66Z" stroke="white" stroke-width="2" stroke-linecap="round"/>
<path d="M28.02 94.8996C31.1404 94.8996 33.67 92.37 33.67 89.2496C33.67 86.1292 31.1404 83.5996 28.02 83.5996C24.8996 83.5996 22.37 86.1292 22.37 89.2496C22.37 92.37 24.8996 94.8996 28.02 94.8996Z" stroke="white" stroke-width="2" stroke-linecap="round"/>
<path d="M22.29 61.7196H52.34V50.5996" stroke="white" stroke-width="2" stroke-linecap="round"/>
<path d="M40.51 61.7197V76.7597" stroke="white" stroke-width="2" stroke-linecap="round"/>
<path d="M16.65 67.3703C19.7704 67.3703 22.3 64.8407 22.3 61.7203C22.3 58.5999 19.7704 56.0703 16.65 56.0703C13.5296 56.0703 11 58.5999 11 61.7203C11 64.8407 13.5296 67.3703 16.65 67.3703Z" stroke="white" stroke-width="2" stroke-linecap="round"/>
<path d="M40.51 76.7598L32 85.2498" stroke="white" stroke-width="2" stroke-linecap="round"/>
<path d="M34.89 54.4797C38.0104 54.4797 40.54 51.9501 40.54 48.8297C40.54 45.7093 38.0104 43.1797 34.89 43.1797C31.7696 43.1797 29.24 45.7093 29.24 48.8297C29.24 51.9501 31.7696 54.4797 34.89 54.4797Z" stroke="white" stroke-width="2" stroke-linecap="round"/>
<path d="M21.33 40.4699C24.4504 40.4699 26.98 37.9403 26.98 34.8199C26.98 31.6995 24.4504 29.1699 21.33 29.1699C18.2096 29.1699 15.68 31.6995 15.68 34.8199C15.68 37.9403 18.2096 40.4699 21.33 40.4699Z" stroke="white" stroke-width="2" stroke-linecap="round"/>
<path d="M30.89 44.8295L25.09 39.0195" stroke="white" stroke-width="2" stroke-linecap="round"/>
<path d="M49.34 95.0302L60.63 83.7402" stroke="white" stroke-width="2" stroke-linecap="round"/>
<path d="M48.92 24.6201L52.36 28.0901" stroke="white" stroke-width="2" stroke-linecap="round"/>
<path d="M60.63 83.7396C65.7 83.7396 69.81 79.6296 69.81 74.5596" stroke="white" stroke-width="2" stroke-linecap="round"/>
</g>
<defs>
<clipPath id="clip0_47_1381">
<rect width="99.81" height="91.65" fill="white" transform="translate(10 14)"/>
</clipPath>
</defs>
</svg>
